<svg width="400" height="342" viewBox="0 0 400 342" fill="none" xmlns="http://www.w3.org/2000/svg">
<path d="M329.66 306.99H295.26V307.24H329.66V306.99Z" fill="#E0E0E0"/>
<path d="M63.04 307.11H43.68V307.36H63.04V307.11Z" fill="#E0E0E0"/>
<path d="M203 306.53H163.76V306.78H203V306.53Z" fill="#E0E0E0"/>
<path d="M162.76 302.97H145.22V303.22H162.76V302.97Z" fill="#E0E0E0"/>
<path d="M376.56 303.1H323.57V303.35H376.56V303.1Z" fill="#E0E0E0"/>
<path d="M391.31 171.23C379.01 152.5 390.24 132.37 388.37 111.53C386.5 90.6899 366.7 86.1499 370.45 68.5299C374.79 48.0499 363.22 28.3999 350.11 28.3999C337 28.3999 325.44 47.9999 329.78 68.4999C333.53 86.1499 313.78 90.6999 311.86 111.5C309.94 132.3 321.22 152.5 308.91 171.2C296.6 189.9 299.84 214.73 306.77 227.04C308.613 230.306 310.835 233.344 313.39 236.09C318.087 241.132 323.771 245.153 330.089 247.902C336.408 250.651 343.224 252.07 350.115 252.07C357.006 252.07 363.822 250.651 370.141 247.902C376.459 245.153 382.143 241.132 386.84 236.09C389.388 233.341 391.607 230.304 393.45 227.04C400.39 214.76 403.62 190 391.31 171.23Z" fill="#E0E0E0"/>
<path d="M350.11 185.44C350.927 185.44 351.736 185.601 352.49 185.913C353.245 186.226 353.931 186.684 354.508 187.262C355.086 187.839 355.544 188.525 355.857 189.28C356.169 190.034 356.33 190.843 356.33 191.66V296.4H343.89V191.66C343.89 190.843 344.051 190.034 344.363 189.28C344.676 188.525 345.134 187.839 345.712 187.262C346.289 186.684 346.975 186.226 347.73 185.913C348.484 185.601 349.293 185.44 350.11 185.44Z" fill="#F0F0F0"/>
<path d="M271.91 296.4H255V191.67C255.005 189.425 255.899 187.274 257.487 185.687C259.074 184.099 261.225 183.205 263.47 183.2C265.715 183.205 267.866 184.099 269.453 185.687C271.041 187.274 271.935 189.425 271.94 191.67L271.91 296.4Z" fill="#E0E0E0"/>
<path d="M263.44 268.15C292.253 268.15 315.61 244.793 315.61 215.98C315.61 187.167 292.253 163.81 263.44 163.81C234.627 163.81 211.27 187.167 211.27 215.98C211.27 244.793 234.627 268.15 263.44 268.15Z" fill="#F0F0F0"/>
<path d="M324.744 200.325C327.481 189.305 320.767 178.152 309.746 175.415C298.726 172.678 287.574 179.392 284.836 190.412C282.099 201.432 288.813 212.585 299.833 215.322C310.854 218.06 322.006 211.345 324.744 200.325Z" fill="#F0F0F0"/>
<path d="M233.251 185.149C234.331 178.515 229.83 172.262 223.196 171.181C216.562 170.101 210.308 174.603 209.228 181.237C208.147 187.871 212.649 194.124 219.283 195.205C225.917 196.285 232.171 191.783 233.251 185.149Z" fill="#F0F0F0"/>
<path d="M234.48 185.44C239.197 185.44 243.02 181.616 243.02 176.9C243.02 172.183 239.197 168.36 234.48 168.36C229.763 168.36 225.94 172.183 225.94 176.9C225.94 181.616 229.763 185.44 234.48 185.44Z" fill="#F0F0F0"/>
<path d="M156 233.89C147.888 235.098 140.135 238.056 133.28 242.56C133.22 234.64 131.77 227.13 128.05 221.06C122.39 226.57 117.8 233.71 114.05 241.39C112.68 227 108.89 213 100.5 204.13C87.93 212.04 81.45 225.22 78.37 239.18C73.2817 229.767 65.8962 221.793 56.9 216C49.21 224.1 46.75 235.3 46.96 246.78C38.22 236.6 28.52 228.66 19.06 227.73C16.73 243.82 21.69 259 28 271C32.0967 278.699 38.2168 285.134 45.7008 289.612C53.1847 294.09 61.7488 296.44 70.47 296.41H111.56C129.07 296.41 145.49 287.07 153.7 271.6C158.89 261.8 161.37 249.19 156 233.89Z" fill="#E0E0E0"/>
<path d="M144.26 26.1399C149.33 11.2699 145.26 0.679932 132.89 0.679932C125.11 0.679932 115.46 4.84993 106.06 11.6299C105 7.75993 102.01 5.44993 97.2 5.44993C88.73 5.44993 77.06 12.6099 67.91 22.7099C65.3338 20.2624 61.9234 18.886 58.37 18.8599C50.26 18.3999 40.45 22.5199 31.92 29.2099C31.4926 28.6117 30.9283 28.1244 30.2742 27.7887C29.6201 27.4529 28.8952 27.2785 28.16 27.2799C23.49 27.0199 17.16 31.1799 14.03 36.5599C13.84 36.8899 13.67 37.2199 13.49 37.5599H146.72C147.12 32.8599 146.29 28.9399 144.26 26.1399Z" fill="#F0F0F0"/>
<path d="M144.67 116.43C147.15 109.17 145.18 104 139.12 104C135.31 104 130.6 106 126.01 109.35C125.763 108.417 125.191 107.602 124.398 107.052C123.604 106.503 122.641 106.254 121.68 106.35C117.55 106.35 111.85 109.85 107.37 114.79C106.114 113.59 104.447 112.918 102.71 112.91C98.71 112.68 93.9599 114.69 89.7899 117.96C89.5878 117.671 89.3204 117.433 89.0094 117.267C88.6985 117.1 88.3527 117.008 88 117C85.72 116.87 82.63 118.9 81.1 121.53L80.83 122.01H145.91C146.182 120.061 145.742 118.08 144.67 116.43Z" fill="#F0F0F0"/>
<path d="M294.77 61.49C294.256 61.4179 293.739 61.3811 293.22 61.38C293.7 54.13 290.93 49.49 285 49.49C280.73 49.49 275.48 51.91 270.14 56C271.67 41.92 266.77 32.77 255.67 32.77C246.73 32.77 235.4 38.77 224.21 48.43C223.21 42.91 219.93 39.59 214.39 39.59C204.66 39.59 190.83 49.83 179.74 64.27C178.476 62.6049 176.856 61.244 174.997 60.287C173.139 59.3301 171.089 58.8015 169 58.74C159.74 58.09 148.23 63.97 138 73.55C137.628 72.7422 137.035 72.0556 136.291 71.5692C135.546 71.0828 134.679 70.8162 133.79 70.8C128.72 70.44 121.79 75.73 117.68 82.8H302.92C307.27 72.08 303.81 62.7 294.77 61.49Z" fill="#F0F0F0"/>
<path d="M202 341.56C309.082 341.56 395.89 336.492 395.89 330.24C395.89 323.988 309.082 318.92 202 318.92C94.9175 318.92 8.10999 323.988 8.10999 330.24C8.10999 336.492 94.9175 341.56 202 341.56Z" fill="#F5F5F5"/>
<path d="M0.859985 64.5601L228.83 97.3801L259.42 128.25L0.859985 64.5601Z" fill="#EA8A8A"/>
<path d="M0.859985 64.5601L228.83 97.3801L218.25 142.02L0.859985 64.5601Z" fill="#B42121"/>
<path d="M213.57 12.8801L226.8 74.8801C227.144 76.4991 226.832 78.1885 225.932 79.5777C225.032 80.9668 223.618 81.9423 222 82.2901L103.92 107.49C102.301 107.832 100.613 107.518 99.2247 106.619C97.8362 105.719 96.8602 104.307 96.51 102.69L83.27 40.6901C82.9288 39.07 83.2434 37.3807 84.1449 35.9919C85.0463 34.6032 86.4613 33.6281 88.08 33.2801L206.16 8.08014C207.78 7.73901 209.469 8.05359 210.858 8.95506C212.247 9.85653 213.222 11.2714 213.57 12.8901V12.8801Z" fill="#EB4E4E"/>
<path opacity="0.4" d="M213.57 12.8801L226.8 74.8801C227.144 76.4991 226.832 78.1885 225.932 79.5777C225.033 80.9668 223.618 81.9423 222 82.2901L103.92 107.49C102.301 107.832 100.613 107.518 99.2249 106.619C97.8364 105.719 96.8604 104.307 96.5102 102.69L83.2702 40.6901C82.9291 39.07 83.2437 37.3807 84.1451 35.9919C85.0466 34.6032 86.4615 33.6281 88.0802 33.2801L206.16 8.08014C207.78 7.73901 209.47 8.05359 210.858 8.95506C212.247 9.85653 213.222 11.2714 213.57 12.8901V12.8801Z" fill="#B21A1A"/>
<path d="M210.66 8.8201L171.21 57.2501C167.551 61.7402 162.469 64.8469 156.805 66.0561C151.141 67.2654 145.233 66.5047 140.06 63.9001L84.27 35.8001C85.1726 34.5035 86.5348 33.599 88.08 33.2701L206.16 8.0701C207.701 7.74214 209.309 8.01013 210.66 8.8201Z" fill="#EB4E4E"/>
<path d="M0.859985 64.5601L188.89 109.25L218.25 142.02L0.859985 64.5601Z" fill="#EA8A8A"/>
<path d="M69.449 107.635L68.9436 108.498L89.8681 120.755L90.3736 119.892L69.449 107.635Z" fill="#D43939"/>
<path d="M99.6118 125.296L99.1063 126.158L106.631 130.566L107.136 129.703L99.6118 125.296Z" fill="#D43939"/>
<path d="M0.859985 64.5601L188.89 109.25L152.34 153.3L0.859985 64.5601Z" fill="#EB4E4E"/>
<path d="M252.36 169.26C252.107 169.261 251.856 169.213 251.62 169.12L221 157C220.51 156.803 220.118 156.42 219.91 155.934C219.701 155.449 219.693 154.901 219.887 154.41C220.081 153.919 220.462 153.524 220.946 153.313C221.43 153.101 221.978 153.089 222.47 153.28L253.1 165.4C253.533 165.571 253.893 165.889 254.118 166.297C254.342 166.705 254.417 167.179 254.329 167.637C254.241 168.094 253.997 168.507 253.637 168.803C253.278 169.1 252.826 169.261 252.36 169.26Z" fill="#D43939"/>
<path d="M250.55 151.7C250.299 151.699 250.051 151.648 249.82 151.55L233.37 145C233.124 144.905 232.899 144.762 232.709 144.579C232.519 144.397 232.366 144.178 232.26 143.937C232.155 143.695 232.098 143.435 232.093 143.171C232.088 142.908 232.136 142.646 232.233 142.4C232.33 142.155 232.474 141.931 232.658 141.742C232.842 141.553 233.061 141.402 233.303 141.298C233.546 141.194 233.806 141.138 234.07 141.135C234.334 141.132 234.595 141.182 234.84 141.28L251.29 147.8C251.783 147.994 252.179 148.376 252.391 148.861C252.602 149.347 252.613 149.897 252.42 150.39C252.279 150.773 252.025 151.104 251.69 151.338C251.356 151.572 250.958 151.699 250.55 151.7Z" fill="#EB4E4E"/>
<path d="M216.16 169C215.91 168.997 215.663 168.95 215.43 168.86L185.56 157C185.314 156.905 185.089 156.762 184.899 156.579C184.709 156.397 184.556 156.178 184.45 155.937C184.345 155.695 184.288 155.435 184.283 155.171C184.278 154.908 184.326 154.646 184.423 154.4C184.52 154.155 184.664 153.931 184.848 153.742C185.032 153.553 185.251 153.402 185.493 153.298C185.736 153.194 185.996 153.138 186.26 153.135C186.524 153.132 186.785 153.182 187.03 153.28L216.9 165.1C217.333 165.271 217.693 165.589 217.918 165.997C218.142 166.405 218.217 166.879 218.129 167.337C218.041 167.794 217.797 168.207 217.437 168.503C217.078 168.8 216.626 168.961 216.16 168.96V169Z" fill="#D43939"/>
<path d="M324.3 78.8201C326.95 83.9901 329.38 89.1701 331.69 94.4701C334 99.7701 336.15 105.14 338.03 110.77L338.71 112.9C338.83 113.28 339 113.9 339.1 114.34C339.2 114.78 339.29 115.28 339.34 115.7C339.569 117.313 339.686 118.941 339.69 120.57C339.705 123.575 339.565 126.579 339.27 129.57C338.712 135.36 337.803 141.11 336.55 146.79L331.06 146.18C330.99 140.55 330.94 134.86 330.74 129.31C330.65 126.55 330.49 123.78 330.21 121.18C330.083 119.959 329.883 118.747 329.61 117.55C329.56 117.27 329.48 117.06 329.42 116.83C329.36 116.6 329.3 116.52 329.2 116.22L328.44 114.33C326.35 109.27 324 104.17 321.6 99.0901L314.34 83.8501L324.3 78.8201Z" fill="#E4897B"/>
<path d="M331.14 144.42L328.58 149.21L336.76 151.49C336.76 151.49 338.32 147.64 336.46 144.6L331.14 144.42Z" fill="#E4897B"/>
<path d="M325.45 156.11L332.97 156.71L336.76 151.49L328.58 149.21L325.45 156.11Z" fill="#E4897B"/>
<path d="M289.87 44.2601C289.76 44.8501 289.35 45.2601 288.97 45.1801C288.59 45.1001 288.38 44.5701 288.5 43.9901C288.62 43.4101 289.02 42.9901 289.4 43.0701C289.78 43.1501 290 43.6801 289.87 44.2601Z" fill="#263238"/>
<path d="M289.41 45.26C288.354 46.896 287.079 48.3798 285.62 49.67C285.961 50.0323 286.376 50.3165 286.837 50.5029C287.297 50.6893 287.793 50.7737 288.29 50.75L289.41 45.26Z" fill="#DE5753"/>
<path d="M292.65 41.4701C292.555 41.4677 292.466 41.4282 292.4 41.3601C292.113 41.0315 291.752 40.7752 291.347 40.6119C290.942 40.4486 290.505 40.3829 290.07 40.4201C289.987 40.4209 289.907 40.3923 289.843 40.3394C289.779 40.2864 289.736 40.2126 289.722 40.131C289.707 40.0493 289.722 39.9653 289.764 39.8937C289.806 39.8221 289.872 39.7677 289.95 39.7401C290.506 39.6696 291.071 39.7378 291.594 39.9384C292.118 40.139 292.583 40.466 292.95 40.8901C293.014 40.9555 293.05 41.0435 293.05 41.1351C293.05 41.2267 293.014 41.3147 292.95 41.3801C292.91 41.4167 292.862 41.4439 292.81 41.4594C292.758 41.475 292.704 41.4787 292.65 41.4701Z" fill="#263238"/>
<path d="M306.41 52.4299C305.36 57.8099 304.31 67.6499 308.07 71.2399C308.07 71.2399 306.6 76.6899 296.61 76.6899C285.61 76.6899 291.37 71.2399 291.37 71.2399C297.37 69.8099 297.2 65.3599 296.16 61.1899L306.41 52.4299Z" fill="#E4897B"/>
<path d="M309.58 74.6299C310.37 71.9999 311.24 68.9899 309.44 68.0399C307.44 67.0399 296.57 65.9399 292.82 67.8899C289.07 69.8399 290.14 75.1899 290.14 75.1899L309.58 74.6299Z" fill="#263238"/>
<path d="M332.64 324C332.329 324.041 332.014 324.02 331.712 323.938C331.409 323.855 331.127 323.713 330.88 323.52C330.793 323.399 330.746 323.254 330.746 323.105C330.746 322.956 330.793 322.811 330.88 322.69C330.937 322.586 331.016 322.496 331.111 322.425C331.206 322.355 331.314 322.305 331.43 322.28C332.51 322.04 334.53 323.42 334.62 323.48C334.646 323.502 334.666 323.529 334.678 323.561C334.69 323.592 334.694 323.626 334.69 323.66C334.684 323.692 334.669 323.722 334.646 323.745C334.622 323.769 334.592 323.784 334.56 323.79C333.929 323.926 333.286 323.996 332.64 324ZM331.72 322.6H331.51C331.442 322.614 331.378 322.643 331.323 322.684C331.268 322.726 331.222 322.779 331.19 322.84C331.03 323.12 331.13 323.24 331.19 323.28C331.5 323.7 333 323.7 334.1 323.52C333.383 323.047 332.57 322.739 331.72 322.62V322.6Z" fill="#DD4141"/>
<path d="M334.52 323.82H334.44C333.68 323.4 332.21 321.82 332.36 320.98C332.386 320.85 332.455 320.733 332.558 320.649C332.66 320.566 332.788 320.52 332.92 320.52C333.052 320.506 333.185 320.518 333.312 320.556C333.439 320.593 333.557 320.656 333.66 320.74C334.51 321.44 334.66 323.56 334.66 323.65C334.664 323.682 334.659 323.714 334.644 323.742C334.63 323.771 334.608 323.794 334.58 323.81C334.561 323.818 334.541 323.821 334.52 323.82ZM333.04 320.82H333C332.77 320.82 332.75 320.96 332.74 321C332.65 321.49 333.59 322.7 334.34 323.27C334.289 322.435 333.99 321.633 333.48 320.97C333.413 320.917 333.336 320.879 333.253 320.856C333.171 320.834 333.085 320.828 333 320.84L333.04 320.82Z" fill="#DD4141"/>
<path d="M288.53 324C287.59 324 286.68 323.87 286.37 323.45C286.292 323.339 286.25 323.206 286.25 323.07C286.25 322.934 286.292 322.801 286.37 322.69C286.431 322.587 286.512 322.498 286.608 322.427C286.704 322.357 286.814 322.307 286.93 322.28C288.14 321.95 290.72 323.41 290.83 323.47C290.859 323.489 290.883 323.516 290.897 323.548C290.911 323.58 290.916 323.615 290.91 323.65C290.904 323.685 290.888 323.717 290.862 323.742C290.837 323.768 290.805 323.784 290.77 323.79C290.031 323.929 289.282 323.999 288.53 324ZM287.36 322.58C287.251 322.564 287.139 322.564 287.03 322.58C286.96 322.594 286.893 322.622 286.834 322.664C286.776 322.705 286.727 322.758 286.69 322.82C286.56 323.04 286.61 323.14 286.69 323.2C287.02 323.66 288.88 323.69 290.26 323.5C289.361 323.015 288.376 322.709 287.36 322.6V322.58Z" fill="#DD4141"/>
<path d="M290.75 323.82H290.68C289.79 323.43 288.04 321.82 288.17 321.01C288.17 320.81 288.34 320.57 288.82 320.52C288.999 320.493 289.181 320.506 289.354 320.558C289.527 320.609 289.686 320.699 289.82 320.82C290.76 321.58 290.95 323.56 290.96 323.65C290.964 323.68 290.959 323.711 290.947 323.74C290.935 323.768 290.915 323.792 290.89 323.81C290.869 323.821 290.845 323.828 290.821 323.83C290.797 323.832 290.773 323.828 290.75 323.82ZM288.96 320.82H288.85C288.54 320.82 288.52 320.98 288.51 321.02C288.43 321.52 289.63 322.77 290.51 323.31C290.424 322.47 290.074 321.679 289.51 321.05C289.367 320.926 289.188 320.853 289 320.84L288.96 320.82Z" fill="#DD4141"/>
<path d="M298.83 323.64H291.48L290.75 306.63H298.1L298.83 323.64Z" fill="#E4897B"/>
<path d="M342.94 323.64H335.59L331.9 306.63H339.24L342.94 323.64Z" fill="#E4897B"/>
<path d="M335.07 322.79H343.32C343.467 322.791 343.61 322.842 343.724 322.935C343.839 323.027 343.918 323.156 343.95 323.3L345.4 329.83C345.433 329.989 345.43 330.153 345.391 330.311C345.352 330.469 345.277 330.615 345.173 330.74C345.07 330.865 344.939 330.965 344.791 331.033C344.644 331.1 344.482 331.133 344.32 331.13C341.44 331.08 340.04 330.91 336.41 330.91C334.18 330.91 329.58 331.15 326.49 331.15C323.4 331.15 323.01 328.15 324.27 327.82C329.93 326.58 332.06 324.87 333.87 323.25C334.199 322.953 334.627 322.789 335.07 322.79Z" fill="#263238"/>
<path d="M291.53 322.79H299.53C299.677 322.791 299.82 322.842 299.934 322.935C300.049 323.027 300.128 323.156 300.16 323.3L301.61 329.83C301.645 329.988 301.643 330.151 301.606 330.308C301.569 330.465 301.496 330.611 301.394 330.736C301.292 330.861 301.163 330.962 301.017 331.03C300.871 331.098 300.711 331.132 300.55 331.13C297.66 331.08 293.48 330.91 289.84 330.91C285.59 330.91 281.91 331.15 276.92 331.15C273.92 331.15 273.07 328.15 274.33 327.82C280.08 326.56 284.77 326.43 289.74 323.37C290.269 323.01 290.89 322.809 291.53 322.79Z" fill="#263238"/>
<path d="M288 84.14C281.857 83.664 275.745 82.8528 269.69 81.71C266.69 81.13 263.63 80.48 260.59 79.66C257.474 78.8625 254.414 77.8603 251.43 76.66C250.66 76.34 249.88 75.99 249.11 75.66C248.243 75.2329 247.408 74.745 246.61 74.2C245.17 73.25 243.93 72.26 242.7 71.28C240.25 69.28 237.98 67.2799 235.7 65.2299C231.23 61.09 226.99 56.81 222.9 52.31L226.58 48.2L241.09 58.63C243.48 60.35 245.9 62.04 248.28 63.63C249.46 64.42 250.67 65.1599 251.78 65.7899C252.244 66.0547 252.725 66.2885 253.22 66.49C253.81 66.72 254.41 66.95 255.04 67.17C260.445 68.8342 265.972 70.0713 271.57 70.8699C277.28 71.7699 283.18 72.51 288.88 73.11L288 84.14Z" fill="#E4897B"/>
<path d="M321.22 72.8999C328.11 74.4799 335.07 94.6099 335.07 94.6099L320.9 104.78C320.9 104.78 316.9 95.3999 313.04 87.1999C309 78.6099 314.18 71.2899 321.22 72.8999Z" fill="#D43939"/>
<path opacity="0.4" d="M321.22 72.8999C328.11 74.4799 335.07 94.6099 335.07 94.6099L320.9 104.78C320.9 104.78 316.9 95.3999 313.04 87.1999C309 78.6099 314.18 71.2899 321.22 72.8999Z" fill="#D43939"/>
<path d="M317.25 83.9001L314.44 90.1902C317.35 96.4702 320.01 102.69 320.72 104.35C320.62 96.9202 319.21 87.7001 317.25 83.9001Z" fill="#8C1E1E"/>
<path d="M280.07 73.2799C280.07 73.2799 272.25 82.1099 279.63 136.78H318.92C319.2 130.78 315.41 101.32 321.22 72.8999C316.877 72.0636 312.485 71.5091 308.07 71.2399C302.508 70.9197 296.932 70.9197 291.37 71.2399C287.556 71.6242 283.778 72.3063 280.07 73.2799Z" fill="#D43939"/>
<path opacity="0.4" d="M280.07 73.2799C280.07 73.2799 272.25 82.1099 279.63 136.78H318.92C319.2 130.78 315.41 101.32 321.22 72.8999C316.877 72.0636 312.485 71.5091 308.07 71.2399C302.508 70.9197 296.932 70.9197 291.37 71.2399C287.556 71.6242 283.778 72.3063 280.07 73.2799Z" fill="#EB4E4E"/>
<path d="M277.16 83.9001C276.9 85.9701 276.7 88.4201 276.57 91.3102C280.45 90.1456 284.137 88.4135 287.51 86.1702L277.16 83.9001Z" fill="#8C1E1E"/>
<path d="M294 85C288.74 89.66 268.66 89.19 268.66 89.19L268 69.75C274.781 70.7159 281.621 71.2104 288.47 71.23C299.66 71 299.74 79.86 294 85Z" fill="#D43939"/>
<path opacity="0.4" d="M294 85C288.74 89.66 268.66 89.19 268.66 89.19L268 69.75C274.781 70.7159 281.621 71.2104 288.47 71.23C299.66 71 299.74 79.86 294 85Z" fill="#D43939"/>
<path d="M226.77 48.2401L221.77 42.3501L216.38 48.3501C216.38 48.3501 219.7 53.9301 224.97 53.0501L226.77 48.2401Z" fill="#E4897B"/>
<path d="M214.61 35.48L212.67 43.17L216.34 48.31L221.73 42.35L214.61 35.48Z" fill="#E4897B"/>
<path d="M290.75 306.64L291.13 315.4H298.48L298.1 306.64H290.75Z" fill="#CE6F64"/>
<path d="M339.25 306.64H331.9L333.8 315.4H341.15L339.25 306.64Z" fill="#CE6F64"/>
<path d="M295.17 37C288.58 34 286.5 20.67 305.46 24C305.46 24 302.6 27.16 308.4 29.16C314.2 31.16 309.35 43.51 295.17 37Z" fill="#263238"/>
<path d="M309.49 47C307.6 54 306.86 58.26 302.49 61.19C295.95 65.59 287.82 60.54 287.56 53.07C287.33 46.36 290.46 35.97 298.01 34.55C299.676 34.2232 301.399 34.3289 303.013 34.8569C304.627 35.3849 306.079 36.3176 307.23 37.5661C308.381 38.8145 309.193 40.3371 309.589 41.9886C309.985 43.6401 309.951 45.3654 309.49 47Z" fill="#E4897B"/>
<path d="M305.2 27.5001C309.69 30.0001 315.77 31.5001 315.2 35.0601C314.45 39.4101 318.87 36.6902 317.84 43.1602C317.17 47.3902 309.37 60.2101 303.84 59.5901C295.58 58.5901 296.63 46.0302 296.6 39.4102C296.58 35.5002 296.4 22.5701 305.2 27.5001Z" fill="#263238"/>
<path d="M295.61 33.1101C293.61 33.5801 290.96 45.1101 298.71 46.1701C307.62 47.3801 295.61 33.1101 295.61 33.1101Z" fill="#263238"/>
<path d="M295.81 37.1999C293.36 37.4199 287.81 34.4699 288.49 30.0299C288.49 29.9999 292 35.2199 295.81 37.1999Z" fill="#263238"/>
<path d="M299.45 47.0901C298.698 48.7389 297.422 50.0926 295.82 50.9401C293.71 52.0401 292.52 50.4401 293 48.3201C293.43 46.4201 295.05 43.5501 297.22 43.3201C299.39 43.0901 300.32 45.0901 299.45 47.0901Z" fill="#E4897B"/>
<path d="M310.45 38.9999C311.945 38.3514 313.255 37.3423 314.264 36.0631C315.272 34.7839 315.948 33.2744 316.23 31.6699C316.23 31.6699 319.53 40.8399 310.45 38.9999Z" fill="#263238"/>
<path d="M318.79 38.8501C318.094 38.3828 317.293 38.0952 316.459 38.0132C315.625 37.9312 314.784 38.0573 314.01 38.3801C314.01 38.3801 317.09 34.3901 318.79 38.8501Z" fill="#263238"/>
<path d="M293.57 136.78C293.57 136.78 301.91 192.92 306.48 213.95C311.48 236.95 330.38 313.71 330.38 313.71H343.83C343.83 313.71 331.38 238.84 328.52 216C325.42 191.25 318.92 136.74 318.92 136.74L293.57 136.78Z" fill="#E65E5E"/>
<path d="M328.23 308.75C328.17 308.75 329.62 313.92 329.62 313.92H344.76L344.48 309.31L328.23 308.75Z" fill="#DD4141"/>
<path d="M298.84 156.78C308.48 158.67 307.46 194.62 306.3 213.11C303.52 200.04 299.45 174.89 296.67 157.04C297.343 156.709 298.108 156.617 298.84 156.78Z" fill="#DD4141"/>
<path d="M279.63 136.78C279.63 136.78 278.63 191.7 279.42 214.11C280.25 237.41 288.42 313.71 288.42 313.71H300.86C300.86 313.71 301.32 238.77 301.86 215.89C302.47 190.94 305.48 136.78 305.48 136.78H279.63Z" fill="#E65E5E"/>
<path d="M291 304.77C290.97 304.77 290.941 304.759 290.919 304.739C290.896 304.718 290.883 304.69 290.88 304.66C288.68 283.54 283.51 232.44 282.88 214.11C282.21 195.4 282.82 153.42 283.02 141C283.02 140.968 283.033 140.938 283.055 140.915C283.078 140.893 283.108 140.88 283.14 140.88C283.173 140.88 283.205 140.892 283.229 140.915C283.253 140.937 283.268 140.967 283.27 141C283.07 153.42 282.46 195.4 283.13 214.1C283.78 232.43 288.95 283.51 291.13 304.63C291.13 304.664 291.118 304.697 291.096 304.723C291.074 304.748 291.044 304.765 291.01 304.77H291Z" fill="#DD4141"/>
<path d="M286 308.75C285.95 308.75 286.71 313.92 286.71 313.92H301.84L302.25 309.31L286 308.75Z" fill="#DD4141"/>
</svg>
