<svg width="450" height="450" fill="none" xmlns="http://www.w3.org/2000/svg"><g clip-path="url(#clip0)"><path d="M363.894 380.573h-37.427v.272h37.427v-.272zM73.811 380.703H52.748v.272H73.81v-.272zM226.088 380.072h-42.693v.272h42.693v-.272zM182.307 376.199h-19.084v.272h19.084v-.272zM414.921 376.341h-57.653v.272h57.653v-.272zM430.969 232.866c-13.382-20.378-1.164-42.28-3.198-64.954-2.035-22.674-23.577-27.613-19.497-46.784 4.722-22.282-7.867-43.661-22.13-43.661-14.264 0-26.841 21.325-22.119 43.629 4.08 19.203-17.408 24.153-19.497 46.784-2.089 22.63 10.183 44.608-3.21 64.953-13.393 20.346-9.868 47.361-2.328 60.754a51.919 51.919 0 007.202 9.847 54.615 54.615 0 0039.957 17.386 54.61 54.61 0 0039.957-17.386 52.411 52.411 0 007.192-9.847c7.55-13.361 11.065-40.299-2.329-60.721z" fill="#E0E0E0"/><path d="M386.144 248.326a6.768 6.768 0 016.767 6.768v113.957h-13.535V255.094a6.769 6.769 0 016.768-6.768z" fill="#F0F0F0"/><path d="M301.062 369.051h-18.398V255.105a9.238 9.238 0 019.215-9.215 9.24 9.24 0 019.216 9.215l-.033 113.946z" fill="#E0E0E0"/><path d="M291.847 338.315c31.348 0 56.761-25.413 56.761-56.761 0-31.348-25.413-56.761-56.761-56.761-31.348 0-56.761 25.413-56.761 56.761 0 31.348 25.413 56.761 56.761 56.761z" fill="#F0F0F0"/><path d="M358.545 264.522c2.978-11.99-4.327-24.124-16.317-27.102-11.99-2.978-24.124 4.327-27.102 16.317-2.978 11.99 4.327 24.124 16.317 27.102 11.99 2.978 24.124-4.327 27.102-16.317zM259.001 248.01c1.176-7.217-3.723-14.021-10.94-15.197-7.218-1.175-14.022 3.723-15.197 10.94-1.176 7.218 3.722 14.022 10.94 15.198 7.218 1.175 14.022-3.723 15.197-10.941z" fill="#F0F0F0"/><path d="M260.338 248.326a9.292 9.292 0 100-18.583 9.292 9.292 0 000 18.583z" fill="#F0F0F0"/><path d="M174.952 301.04a61.53 61.53 0 00-24.719 9.433c-.066-8.617-1.643-16.788-5.691-23.392-6.158 5.995-11.152 13.763-15.232 22.119-1.49-15.656-5.614-30.888-14.742-40.539-13.676 8.606-20.726 22.946-24.078 38.135a69.049 69.049 0 00-23.359-25.22c-8.367 8.812-11.043 20.998-10.815 33.488-9.509-11.076-20.062-19.714-30.355-20.726-2.535 17.506 2.862 34.022 9.727 47.078a52.143 52.143 0 0046.207 27.646h44.706c19.051 0 36.916-10.162 45.849-26.994 5.646-10.662 8.345-24.382 2.502-41.028z" fill="#E0E0E0"/><path d="M162.179 75.008c5.516-16.178 1.088-27.7-12.371-27.7-8.464 0-18.964 4.537-29.191 11.913-1.153-4.21-4.406-6.724-9.639-6.724-9.216 0-21.913 7.79-31.868 18.78a15.232 15.232 0 00-10.38-4.19c-8.823-.5-19.496 3.983-28.777 11.261a5.016 5.016 0 00-4.09-2.1c-5.082-.282-11.969 4.244-15.374 10.097-.207.36-.392.718-.588 1.088h144.954c.436-5.114-.467-9.379-2.676-12.425zM162.625 173.244c2.698-7.899.555-13.524-6.038-13.524-4.146 0-9.27 2.176-14.264 5.821a4.416 4.416 0 00-4.711-3.264c-4.494 0-10.695 3.808-15.569 9.182a7.388 7.388 0 00-5.071-2.045c-4.352-.25-9.52 1.936-14.057 5.494a2.442 2.442 0 00-1.947-1.044c-2.48-.142-5.843 2.067-7.507 4.928l-.294.523h70.807a8.888 8.888 0 00-1.349-6.071zM325.934 113.469a12.521 12.521 0 00-1.687-.12c.523-7.888-2.491-12.936-8.943-12.936-4.646 0-10.358 2.633-16.168 7.083 1.665-15.32-3.666-25.274-15.743-25.274-9.727 0-22.054 6.528-34.229 17.038-1.088-6.006-4.656-9.618-10.684-9.618-10.586 0-25.633 11.141-37.699 26.852a15.227 15.227 0 00-11.685-6.017c-10.075-.707-22.598 5.69-33.728 16.113a5.147 5.147 0 00-4.58-2.992c-5.517-.391-13.056 5.364-17.528 13.056h201.541c4.733-11.663.968-21.868-8.867-23.185z" fill="#F0F0F0"/><path d="M225 418.185c116.506 0 210.952-5.514 210.952-12.316 0-6.802-94.446-12.316-210.952-12.316s-210.952 5.514-210.952 12.316c0 6.802 94.446 12.316 210.952 12.316z" fill="#F5F5F5"/><path d="M6.16 116.809l248.031 35.708 33.282 33.586L6.16 116.809z" fill="#EA8A8A"/><path d="M6.16 116.809l248.031 35.708-11.511 48.568L6.16 116.809z" fill="#B42121"/><path d="M237.588 60.581l14.394 67.456a6.797 6.797 0 01-5.222 8.063l-128.471 27.417a6.808 6.808 0 01-8.062-5.222L95.822 90.839a6.81 6.81 0 015.233-8.062l128.471-27.418a6.811 6.811 0 018.062 5.233v-.01z" fill="#EB4E4E"/><path opacity=".4" d="M237.588 60.581l14.395 67.456a6.8 6.8 0 01-5.223 8.063l-128.471 27.417a6.808 6.808 0 01-8.062-5.222L95.822 90.839a6.811 6.811 0 015.233-8.062l128.471-27.418a6.811 6.811 0 018.062 5.233v-.01z" fill="#B21A1A"/><path d="M234.422 56.164l-42.921 52.692a27.673 27.673 0 01-33.892 7.235l-60.7-30.573a6.767 6.767 0 014.146-2.753l128.471-27.417a6.778 6.778 0 014.896.816z" fill="#EB4E4E"/><path d="M6.16 116.809l204.576 48.622 31.944 35.654L6.16 116.809z" fill="#EA8A8A"/><path d="M80.784 163.674l-.55.939L103 177.949l.55-.939-22.766-13.336zM113.602 182.889l-.55.939 8.186 4.795.55-.938-8.186-4.796z" fill="#D43939"/><path d="M6.16 116.809l204.576 48.622-39.766 47.927L6.16 116.809z" fill="#EB4E4E"/><path d="M279.792 230.723c-.276 0-.549-.051-.805-.153l-33.315-13.186a2.178 2.178 0 01-.059-4.012 2.18 2.18 0 011.658-.036l33.326 13.187a2.173 2.173 0 011.337 2.433 2.178 2.178 0 01-2.142 1.767z" fill="#D43939"/><path d="M277.822 211.618a2.085 2.085 0 01-.794-.164l-17.897-7.126a2.181 2.181 0 01-1.208-1.157 2.174 2.174 0 011.135-2.871 2.159 2.159 0 011.672-.019l17.898 7.093a2.18 2.18 0 011.229 2.818 2.174 2.174 0 01-2.035 1.426z" fill="#EB4E4E"/><path d="M240.406 230.44a2.268 2.268 0 01-.794-.153l-32.499-12.903a2.193 2.193 0 01-1.207-1.157 2.174 2.174 0 01.432-2.388 2.188 2.188 0 011.537-.66c.287-.003.571.05.838.157l32.498 12.861a2.171 2.171 0 011.337 2.433 2.17 2.17 0 01-2.142 1.766v.044z" fill="#D43939"/><path d="M358.062 132.324a299.462 299.462 0 018.041 17.027c2.513 5.767 4.852 11.609 6.898 17.735l.739 2.317c.131.414.316 1.088.425 1.567.109.479.207 1.023.261 1.48.249 1.755.376 3.525.381 5.298a95.003 95.003 0 01-.457 9.792 156.856 156.856 0 01-2.96 18.736l-5.973-.664c-.076-6.126-.13-12.316-.348-18.355-.098-3.003-.272-6.016-.577-8.845a32.989 32.989 0 00-.652-3.95c-.055-.304-.142-.533-.207-.783s-.131-.337-.239-.664l-.827-2.056c-2.274-5.505-4.831-11.054-7.442-16.581l-7.899-16.581 10.836-5.473z" fill="#E4897B"/><path d="M365.504 203.697l-2.785 5.212 8.9 2.48s1.697-4.188-.327-7.496l-5.788-.196z" fill="#E4897B"/><path d="M359.314 216.416l8.181.653 4.124-5.679-8.9-2.481-3.405 7.507z" fill="#E4897B"/><path d="M320.603 94.723c-.12.642-.566 1.088-.98 1.001-.413-.087-.642-.663-.511-1.294.131-.632.566-1.088.979-1.001.414.087.653.663.512 1.294z" fill="#263238"/><path d="M320.102 95.811a23.223 23.223 0 01-4.123 4.799 3.744 3.744 0 002.905 1.175l1.218-5.974z" fill="#DE5753"/><path d="M323.627 91.688a.393.393 0 01-.272-.12 3.022 3.022 0 00-2.535-1.022.38.38 0 01-.13-.74 3.7 3.7 0 013.264 1.25.383.383 0 010 .534.4.4 0 01-.327.098z" fill="#263238"/><path d="M338.598 103.612c-1.142 5.854-2.285 16.56 1.806 20.466 0 0-1.599 5.929-12.468 5.929-11.968 0-5.701-5.929-5.701-5.929 6.528-1.556 6.343-6.398 5.211-10.935l11.152-9.531z" fill="#E4897B"/><path d="M342.047 127.765c.86-2.861 1.806-6.136-.152-7.17-2.176-1.088-14.003-2.284-18.083-.163-4.08 2.122-2.916 7.943-2.916 7.943l21.151-.61z" fill="#263238"/><path d="M367.136 399.081a2.569 2.569 0 01-1.915-.523.774.774 0 010-.903.925.925 0 01.251-.288.932.932 0 01.348-.158c1.175-.261 3.373 1.241 3.471 1.306.028.023.05.054.063.088.013.034.018.071.013.108a.172.172 0 01-.049.093.17.17 0 01-.093.048 10.18 10.18 0 01-2.089.229zm-1.001-1.524h-.228a.52.52 0 00-.348.261c-.174.305-.066.436 0 .479.337.457 1.969.457 3.166.261a6.298 6.298 0 00-2.59-.979v-.022z" fill="#DD4141"/><path d="M369.182 398.885h-.087c-.827-.457-2.427-2.176-2.263-3.09a.616.616 0 01.609-.501 1.078 1.078 0 01.805.24c.925.761 1.088 3.068 1.088 3.166a.166.166 0 01-.017.1.172.172 0 01-.07.074.162.162 0 01-.065.011zm-1.61-3.264h-.044c-.25 0-.272.152-.283.196-.098.533.925 1.849 1.741 2.469a4.556 4.556 0 00-.936-2.502.689.689 0 00-.522-.141l.044-.022zM319.145 399.08c-1.023 0-2.013-.141-2.35-.598a.714.714 0 010-.827.967.967 0 01.258-.286.966.966 0 01.351-.16c1.316-.359 4.123 1.229 4.243 1.295a.195.195 0 01.087.196.177.177 0 01-.052.1.177.177 0 01-.1.052c-.804.151-1.62.228-2.437.228zm-1.273-1.545a1.27 1.27 0 00-.359 0 .555.555 0 00-.37.262c-.142.239-.087.348 0 .413.359.5 2.382.533 3.884.326a8.574 8.574 0 00-3.155-.979v-.022z" fill="#DD4141"/><path d="M321.56 398.885h-.076c-.969-.425-2.872-2.176-2.731-3.058 0-.217.185-.478.707-.533a1.33 1.33 0 011.088.327c1.023.827 1.23 2.981 1.24 3.079a.17.17 0 01-.014.097.179.179 0 01-.062.077.185.185 0 01-.152.011zm-1.948-3.264h-.119c-.337 0-.359.174-.37.217-.087.544 1.218 1.904 2.176 2.492a4.352 4.352 0 00-1.088-2.459.941.941 0 00-.555-.228l-.044-.022z" fill="#DD4141"/><path d="M330.351 398.689h-7.997l-.794-18.507h7.997l.794 18.507zM378.343 398.689h-7.997l-4.015-18.507h7.986l4.026 18.507z" fill="#E4897B"/><path d="M369.78 397.764h8.976a.707.707 0 01.686.555l1.577 7.104a1.174 1.174 0 01-1.175 1.415c-3.133-.055-4.656-.24-8.606-.24-2.426 0-7.431.261-10.793.261-3.362 0-3.786-3.264-2.415-3.623 6.158-1.349 8.475-3.209 10.445-4.972a1.935 1.935 0 011.305-.5zM322.409 397.764h8.704a.702.702 0 01.685.555l1.578 7.104a1.17 1.17 0 01-.645 1.306 1.174 1.174 0 01-.509.109c-3.144-.055-7.692-.24-11.652-.24-4.624 0-8.628.261-14.057.261-3.264 0-4.189-3.264-2.818-3.623 6.256-1.371 11.359-1.512 16.766-4.841a3.649 3.649 0 011.948-.631z" fill="#263238"/><path d="M318.568 138.113a184.17 184.17 0 01-19.921-2.644c-3.264-.631-6.594-1.339-9.901-2.231a79.431 79.431 0 01-9.966-3.264c-.838-.348-1.687-.729-2.524-1.088a22.188 22.188 0 01-2.72-1.588c-1.567-1.034-2.916-2.111-4.254-3.177-2.666-2.176-5.136-4.352-7.616-6.583a229.092 229.092 0 01-13.927-14.057l4.004-4.471 15.787 11.348c2.6 1.871 5.233 3.71 7.823 5.44 1.283.859 2.6 1.664 3.808 2.35.505.288 1.028.542 1.566.761.642.251 1.295.501 1.981.74a117.457 117.457 0 0017.984 4.026c6.213.979 12.632 1.784 18.833 2.437l-.957 12.001z" fill="#E4897B"/><path d="M354.711 125.883c7.497 1.719 15.069 23.62 15.069 23.62l-15.417 11.065s-4.352-10.205-8.551-19.127c-4.396-9.346 1.24-17.31 8.899-15.558z" fill="#D43939"/><path opacity=".4" d="M354.711 125.883c7.497 1.719 15.069 23.62 15.069 23.62l-15.417 11.065s-4.352-10.205-8.551-19.127c-4.396-9.346 1.24-17.31 8.899-15.558z" fill="#D43939"/><path d="M350.392 137.852l-3.057 6.843c3.166 6.833 6.06 13.6 6.832 15.406-.108-8.084-1.643-18.115-3.775-22.249z" fill="#8C1E1E"/><path d="M309.94 126.297s-8.508 9.607-.479 69.088h42.748c.305-6.528-3.819-38.58 2.502-69.501a111.575 111.575 0 00-14.307-1.806 157.778 157.778 0 00-18.169 0 79.995 79.995 0 00-12.295 2.219z" fill="#D43939"/><path opacity=".4" d="M309.94 126.297s-8.508 9.607-.478 69.088h42.747c.305-6.528-3.819-38.58 2.503-69.501a111.613 111.613 0 00-14.308-1.806 157.778 157.778 0 00-18.169 0 79.995 79.995 0 00-12.295 2.219z" fill="#EB4E4E"/><path d="M306.774 137.852c-.283 2.252-.5 4.917-.642 8.062a44.685 44.685 0 0011.903-5.593l-11.261-2.469z" fill="#8C1E1E"/><path d="M325.096 139.048c-5.723 5.07-27.57 4.559-27.57 4.559l-.718-21.151a161.135 161.135 0 0022.271 1.61c12.175-.25 12.262 9.39 6.017 14.982z" fill="#D43939"/><path opacity=".4" d="M325.096 139.048c-5.723 5.07-27.57 4.559-27.57 4.559l-.718-21.151a161.135 161.135 0 0022.271 1.61c12.175-.25 12.262 9.39 6.017 14.982z" fill="#D43939"/><path d="M251.95 99.053l-5.44-6.409-5.865 6.528s3.613 6.072 9.346 5.114l1.959-5.233zM238.72 85.17l-2.111 8.368 3.993 5.592 5.864-6.484-7.746-7.475z" fill="#E4897B"/><path d="M321.56 380.192l.413 9.531h7.997l-.413-9.531h-7.997zM374.328 380.192h-7.997l2.067 9.531h7.997l-2.067-9.531z" fill="#CE6F64"/><path d="M326.369 86.824c-7.17-3.264-9.433-17.767 11.195-14.144 0 0-3.111 3.438 3.199 5.614 6.311 2.176 1.034 15.613-14.394 8.53z" fill="#263238"/><path d="M341.949 97.705c-2.056 7.616-2.861 12.251-7.616 15.438-7.115 4.788-15.961-.707-16.244-8.834-.25-7.3 3.155-18.605 11.37-20.15a10.815 10.815 0 0112.49 13.546z" fill="#E4897B"/><path d="M337.282 76.488c4.885 2.72 11.5 4.352 10.88 8.225-.816 4.733 3.993 1.774 2.872 8.813-.729 4.602-9.215 18.55-15.232 17.876-8.987-1.088-7.845-14.754-7.877-21.956-.022-4.254-.218-18.322 9.357-12.958z" fill="#263238"/><path d="M326.848 82.592c-2.176.511-5.06 13.056 3.372 14.21 9.695 1.316-3.372-14.21-3.372-14.21z" fill="#263238"/><path d="M327.065 87.042c-2.665.24-8.704-2.97-7.964-7.8 0-.033 3.819 5.646 7.964 7.8z" fill="#263238"/><path d="M331.026 97.802a8.936 8.936 0 01-3.95 4.189c-2.296 1.197-3.59-.544-3.068-2.85.468-2.068 2.23-5.19 4.591-5.44s3.373 1.925 2.427 4.101z" fill="#E4897B"/><path d="M342.994 89a10.72 10.72 0 006.288-7.975s3.591 9.977-6.288 7.975z" fill="#263238"/><path d="M352.068 88.837a5.522 5.522 0 00-5.201-.512s3.351-4.34 5.201.512z" fill="#263238"/><path d="M324.628 195.385s9.074 61.081 14.046 83.961c5.44 25.024 26.003 108.539 26.003 108.539h14.634s-13.546-81.458-16.657-106.308c-3.373-26.928-10.445-86.235-10.445-86.235l-27.581.043z" fill="#E65E5E"/><path d="M362.338 382.488c-.065 0 1.513 5.625 1.513 5.625h16.472l-.305-5.015-17.68-.61zM330.362 217.145c10.488 2.057 9.378 41.17 8.116 61.287-3.024-14.22-7.452-41.583-10.477-61.004a3.587 3.587 0 012.361-.283z" fill="#DD4141"/><path d="M309.461 195.385s-1.088 59.753-.228 84.135c.903 25.35 9.792 108.365 9.792 108.365h13.535s.5-81.535 1.088-106.429c.663-27.145 3.938-86.071 3.938-86.071h-28.125z" fill="#E65E5E"/><path d="M321.832 378.158a.128.128 0 01-.13-.12c-2.394-22.978-8.019-78.575-8.705-98.518-.729-20.357-.065-66.031.153-79.544 0-.034.014-.068.038-.092a.128.128 0 01.092-.038c.036 0 .07.013.097.037a.144.144 0 01.045.093c-.218 13.513-.882 59.187-.153 79.533.708 19.943 6.333 75.518 8.705 98.497a.153.153 0 01-.131.152h-.011zM316.392 382.488c-.054 0 .772 5.625.772 5.625h16.462l.446-5.015-17.68-.61z" fill="#DD4141"/></g><defs><clipPath id="clip0"><path fill="#fff" d="M0 0h450v450H0z"/></clipPath></defs></svg>