<svg style="display: none;">


	<symbol id="account" viewBox="0 0 28 28" xmlns="http://www.w3.org/2000/svg"><path fill-rule="evenodd" clip-rule="evenodd" d="M14 26.353c6.822 0 12.353-5.53 12.353-12.353 0-6.822-5.53-12.353-12.353-12.353C7.178 1.647 1.647 7.177 1.647 14c0 6.822 5.53 12.353 12.353 12.353zM14 28c7.732 0 14-6.268 14-14S21.732 0 14 0 0 6.268 0 14s6.268 14 14 14z" /><path fill-rule="evenodd" clip-rule="evenodd" d="M11.238 27.728l-5.667-4.64a12.35 12.35 0 0113.703-2.14 12.352 12.352 0 013.14 2.126l-5.669 4.657a13.943 13.943 0 006.027-2.819l.217-.178c.608-.51 1.172-1.07 1.685-1.675a13.997 13.997 0 00-16.672-3.591 14.001 14.001 0 00-4.676 3.591 13.99 13.99 0 007.912 4.669z" /><path fill-rule="evenodd" clip-rule="evenodd" d="M14 18.118a4.941 4.941 0 100-9.883 4.941 4.941 0 000 9.883zm0 1.647a6.588 6.588 0 100-13.177 6.588 6.588 0 000 13.177z" /></symbol>


	<symbol id="arrow-left" viewBox="0 0 25 15" xmlns="http://www.w3.org/2000/svg"><g clip-path="url(#clip0)"><path d="M.293 6.793a1 1 0 000 1.414l6.364 6.364a1 1 0 001.414-1.414L2.414 7.5l5.657-5.657A1 1 0 006.657.43L.293 6.793zM25 6.5H1v2h24v-2z" /></g><defs><clipPath id="clip0"><path  transform="rotate(-180 12.5 7.5)" d="M0 0h25v15H0z"/></clipPath></defs></symbol>


	<symbol id="arrow-right" viewBox="0 0 25 15" xmlns="http://www.w3.org/2000/svg"><path d="M24.707 8.207a1 1 0 000-1.414L18.343.429a1 1 0 10-1.414 1.414L22.586 7.5l-5.657 5.657a1 1 0 001.414 1.414l6.364-6.364zM0 8.5h24v-2H0v2z" /></symbol>

	<symbol id="arrow-top" viewBox="0 0 16 20" xmlns="http://www.w3.org/2000/svg"><path d="M8.707.854a1 1 0 0 0-1.414 0L.929 7.218a1 1 0 1 0 1.414 1.414L8 2.975l5.657 5.657a1 1 0 1 0 1.414-1.414L8.707.854ZM9 20V1.56H7V20h2Z" /></symbol>

	<symbol id="arrow-diag" viewBox="0 0 25 25" xmlns="http://www.w3.org/2000/svg"><path d="M22.6077 24.1065C23.4362 24.1065 24.1077 23.4349 24.1077 22.6065L24.1077 9.10652C24.1077 8.27809 23.4362 7.60652 22.6077 7.60652C21.7793 7.60652 21.1077 8.27809 21.1077 9.10652V21.1065H9.10774C8.27931 21.1065 7.60774 21.7781 7.60774 22.6065C7.60774 23.4349 8.27931 24.1065 9.10774 24.1065L22.6077 24.1065ZM0.333871 2.45397L21.5471 23.6672L23.6684 21.5459L2.45519 0.33265L0.333871 2.45397Z"/></symbol>

	<symbol id="arrow-diag2" viewBox="0 0 35 35" xmlns="http://www.w3.org/2000/svg"><path d="M32.4056 33.9056C33.234 33.9056 33.9056 33.234 33.9056 32.4056L33.9056 18.9056C33.9056 18.0772 33.234 17.4056 32.4056 17.4056C31.5772 17.4056 30.9056 18.0772 30.9056 18.9056L30.9056 30.9056L18.9056 30.9056C18.0772 30.9056 17.4056 31.5772 17.4056 32.4056C17.4056 33.234 18.0772 33.9056 18.9056 33.9056L32.4056 33.9056ZM0.93934 3.06066L31.3449 33.4663L33.4663 31.3449L3.06066 0.93934L0.93934 3.06066Z" /></symbol>

	<symbol id="arr-top" viewBox="0 0 10 10" fill="none" xmlns="http://www.w3.org/2000/svg"><g clip-path="url(#a)" transform="rotate(-180 4.95 5.071)"><path d="m.354 2.596 4.949 4.95m-.707 0 4.95-4.95"/></g></symbol>

	<symbol id="arr-down" viewBox="0 0 10 10" fill="none" xmlns="http://www.w3.org/2000/svg"><g clip-path="url(#clip0)"><path d="M.354 2.596l4.949 4.95M4.596 7.546l4.95-4.95"/></g></symbol>

	<symbol id="arr-top-fill" viewBox="0 0 12 12" xmlns="http://www.w3.org/2000/svg"><path d="M11 8.5L6 3.5L1 8.5L11 8.5Z" /></symbol>


	<symbol id="arr-down-fill" viewBox="0 0 12 12" xmlns="http://www.w3.org/2000/svg"><path d="M1 3.5L6 8.5L11 3.5L1 3.5Z" /></symbol>




	<symbol id="arr-left" viewBox="0 0 12 20" xmlns="http://www.w3.org/2000/svg"><path d="M1.116 9.116a1.25 1.25 0 000 1.768l7.955 7.955a1.25 1.25 0 101.768-1.768L3.768 10l7.07-7.071A1.25 1.25 0 109.072 1.16L1.116 9.116zM3 8.75H2v2.5h1v-2.5z"/></symbol>

	<symbol id="arr-right" viewBox="0 0 12 20" xmlns="http://www.w3.org/2000/svg"><path d="M10.884 10.884a1.25 1.25 0 000-1.768L2.929 1.161A1.25 1.25 0 001.16 2.93L8.232 10l-7.07 7.071a1.25 1.25 0 101.767 1.768l7.955-7.955zM9 11.25h1v-2.5H9v2.5z"/></symbol>

	<symbol id="arr-register" viewBox="0 0 18 15" xmlns="http://www.w3.org/2000/svg"><path d="M17.49 8.207a1 1 0 0 0 0-1.414L11.126.429A1 1 0 0 0 9.71 1.843L15.368 7.5l-5.657 5.657a1 1 0 1 0 1.415 1.414l6.364-6.364ZM.879 8.5h15.903v-2H.88v2Z" /></symbol>

	<symbol id="long-arrow-left" viewBox="0 0 21 8" xmlns="http://www.w3.org/2000/svg"><path d="M.646 3.646a.5.5 0 0 0 0 .708l3.182 3.182a.5.5 0 1 0 .708-.708L1.707 4l2.829-2.828a.5.5 0 1 0-.708-.708L.646 3.646ZM21 3.5H1v1h20v-1Z"/></symbol>

	<symbol id="long-arrow-right" viewBox="0 0 41 16" xmlns="http://www.w3.org/2000/svg"><path d="M40.707 8.707a1 1 0 000-1.414L34.343.929a1 1 0 10-1.414 1.414L38.586 8l-5.657 5.657a1 1 0 001.414 1.414l6.364-6.364zM0 9h40V7H0v2z"/></symbol>

	<symbol id="drag" viewBox="0 0 22 23"  xmlns="http://www.w3.org/2000/svg"><g clip-path="url(#clip0)"><path d="M18.119 2.605a2.58 2.58 0 00-1.44.438 2.595 2.595 0 00-2.443-1.732 2.58 2.58 0 00-1.439.438A2.595 2.595 0 0010.354.017 2.595 2.595 0 007.91 1.75a2.59 2.59 0 00-4.027 2.15v2.968L2.62 8.127a4.502 4.502 0 00-1.326 3.203v1.96c0 1.21.471 2.348 1.326 3.205l2.59 2.588a9.95 9.95 0 007.084 2.934c4.638 0 8.412-3.774 8.412-8.412V5.194a2.59 2.59 0 00-2.588-2.589zm1.294 11c0 3.925-3.194 7.118-7.12 7.118a8.662 8.662 0 01-6.167-2.555l-2.59-2.588a3.22 3.22 0 01-.947-2.288v-1.96c0-.865.337-1.678.947-2.288l.347-.347v1.026a.647.647 0 001.294 0V7.136 3.899c0-.713.58-1.294 1.294-1.294.715 0 1.295.581 1.295 1.294v1.942a.647.647 0 001.294 0V2.605c0-.713.58-1.294 1.294-1.294.714 0 1.294.581 1.294 1.294v3.236a.647.647 0 001.294 0V3.899c0-.713.58-1.294 1.294-1.294.714 0 1.294.581 1.294 1.294v1.942a.647.647 0 001.294 0v-.647a1.295 1.295 0 012.589 0v8.411z" /></g></symbol>

	<symbol id="login" viewBox="0 0 31 28" xmlns="http://www.w3.org/2000/svg"><path fill-rule="evenodd" clip-rule="evenodd" d="M29.5 14c0 6.904-5.596 12.5-12.5 12.5-5.505 0-10.178-3.558-11.846-8.5H3.58C5.3 23.783 10.658 28 17 28c7.732 0 14-6.268 14-14S24.732 0 17 0C10.658 0 5.3 4.217 3.58 10h1.574C6.822 5.058 11.495 1.5 17 1.5c6.904 0 12.5 5.596 12.5 12.5z" /><path d="M20.53 14.53a.75.75 0 000-1.06l-4.773-4.773a.75.75 0 00-1.06 1.06L18.939 14l-4.242 4.243a.75.75 0 001.06 1.06l4.773-4.773zM0 14.75h20v-1.5H0v1.5z" /></symbol>

	<symbol id="cabinet" viewBox="0 0 28 28" xmlns="http://www.w3.org/2000/svg"><path fill-rule="evenodd" clip-rule="evenodd" d="M14 26.353c6.822 0 12.353-5.53 12.353-12.353 0-6.822-5.53-12.353-12.353-12.353C7.178 1.647 1.647 7.177 1.647 14c0 6.822 5.53 12.353 12.353 12.353zM14 28c7.732 0 14-6.268 14-14S21.732 0 14 0 0 6.268 0 14s6.268 14 14 14z" /><path fill-rule="evenodd" clip-rule="evenodd" d="M11.238 27.728l-5.667-4.64a12.35 12.35 0 0113.703-2.14 12.352 12.352 0 013.14 2.126l-5.669 4.657a13.943 13.943 0 006.027-2.819l.217-.178c.608-.51 1.172-1.07 1.685-1.675a13.997 13.997 0 00-16.672-3.591 14.001 14.001 0 00-4.676 3.591 13.99 13.99 0 007.912 4.669z" /><path fill-rule="evenodd" clip-rule="evenodd" d="M13.588 18.53a4.941 4.941 0 100-9.883 4.941 4.941 0 000 9.882zm0 1.646a6.588 6.588 0 100-13.176 6.588 6.588 0 000 13.177z" /></symbol>

	<symbol id="menu" viewBox="0 0 20 12" xmlns="http://www.w3.org/2000/svg"><path d="M0 0h20v1.5H0zM0 5h20v1.5H0zM0 10h20v1.5H0z"/></symbol>

	<symbol id="play" viewBox="0 0 12 14" xmlns="http://www.w3.org/2000/svg"><path d="M12 7L0 13.928V.072L12 7z" /></symbol>

	<symbol id="plus" viewBox="0 0 11 11" xmlns="http://www.w3.org/2000/svg"><path d="M0 5h11v1H0z"/><path d="M5 0h1v11H5z"/></symbol>

	<symbol id="location" viewBox="0 0 16 19" xmlns="http://www.w3.org/2000/svg"><path fill-rule="evenodd" clip-rule="evenodd" d="M8 16A8 8 0 108 0a8 8 0 000 16zm.001-5.334a2.667 2.667 0 100-5.333 2.667 2.667 0 000 5.333z"/><path d="M8.408 18.67a.4.4 0 01-.674 0l-2.072-3.256A.4.4 0 016 14.8h4.142a.4.4 0 01.338.614L8.408 18.67z"/></symbol>

	<symbol id="wish" viewBox="0 0 15 20" xmlns="http://www.w3.org/2000/svg"><path d="M1 0.75H13.6154C13.7535 0.75 13.8654 0.861929 13.8654 1V18.1857C13.8654 18.3826 13.6484 18.5022 13.4819 18.397L8.24218 15.0878C7.67135 14.7272 6.94404 14.7272 6.3732 15.0878L1.1335 18.397C0.967031 18.5022 0.75 18.3826 0.75 18.1857V1C0.75 0.861929 0.861929 0.75 1 0.75Z" stroke-width="1.5"/></symbol>


	<symbol id="search" viewBox="0 0 18 18" fill="none" xmlns="http://www.w3.org/2000/svg"><g clip-path="url(#clip0)" stroke-width="1.5"><circle cx="7.654" cy="7.654" r="6.904"/><path stroke-linecap="round" d="M13.307 13.027l3.808 3.912"/></g><defs><clipPath id="clip0"><path fill="#fff" d="M0 0h18v18H0z"/></clipPath></defs></symbol>

	<symbol id="hash" viewBox="0 0 12 13" xmlns="http://www.w3.org/2000/svg"><path d="M11.466 4.81v-.99H8.928L9.342.4H8.37l-.414 3.42H4.248L4.68.4h-.99l-.414 3.42h-2.7v.99H3.15l-.468 3.78H0v.99h2.556L2.142 13h.972l.432-3.42h3.69L6.822 13h.972l.414-3.42h2.682v-.99H8.334l.468-3.78h2.664zM7.362 8.59H3.654l.486-3.78h3.69l-.468 3.78z"/></symbol>

	<symbol id="close" viewBox="0 0 16 16" xmlns="http://www.w3.org/2000/svg"><g clip-path="url(#clip0)" stroke="#000"><path d="M.574 15.425L15.424.575M15.424 15.425L.575.575"/></g></symbol>

	<symbol id="close2" viewBox="0 0 16 16" xmlns="http://www.w3.org/2000/svg"><g clip-path="url(#clip0)"><path d="M.574 15.425L15.424.575M15.424 15.425L.575.575"/></g></symbol>

	<symbol id="dots" viewBox="0 0 8 2" xmlns="http://www.w3.org/2000/svg"><path d="M.77 1.54c.42 0 .77-.35.77-.77C1.54.35 1.19 0 .77 0 .35 0 0 .35 0 .77c0 .42.35.77.77.77zM3.997 1.54c.42 0 .77-.35.77-.77 0-.42-.35-.77-.77-.77-.42 0-.77.35-.77.77 0 .42.35.77.77.77zM7.223 1.54c.42 0 .77-.35.77-.77 0-.42-.35-.77-.77-.77-.42 0-.77.35-.77.77 0 .42.35.77.77.77z" /></symbol>


	<symbol id="soc-fb" viewBox="0 0 17 15" xmlns="http://www.w3.org/2000/svg"><path d="M9.688 5.156V3.281c0-.517.42-.937.937-.937h.938V0H9.687a2.812 2.812 0 00-2.812 2.813v2.343H5V7.5h1.875V15h2.813V7.5h1.874l.938-2.344H9.687z" /></symbol>


	<symbol id="soc-insta" viewBox="0 0 17 15" xmlns="http://www.w3.org/2000/svg"><path fill-rule="evenodd" clip-rule="evenodd" d="M1 3.158A3.158 3.158 0 014.158 0h8.684A3.158 3.158 0 0116 3.158v8.684A3.158 3.158 0 0112.842 15H4.158A3.158 3.158 0 011 11.842V3.158zm7.5 7.895a3.553 3.553 0 100-7.106 3.553 3.553 0 000 7.106zm0 .79a4.342 4.342 0 100-8.685 4.342 4.342 0 000 8.684zm5.29-9.08a.553.553 0 11-1.106 0 .553.553 0 011.106 0zm.631 0a1.184 1.184 0 11-2.368 0 1.184 1.184 0 012.368 0z" /></symbol>


	<symbol id="soc-tg" viewBox="0 0 17 15" xmlns="http://www.w3.org/2000/svg"><path d="M1.265 7.232l3.456 1.29 1.338 4.303a.407.407 0 00.646.194l1.927-1.57a.575.575 0 01.7-.02l3.475 2.523c.24.174.579.043.639-.246L15.99 1.46a.407.407 0 00-.545-.463L1.26 6.47a.408.408 0 00.004.762zm4.579.603l6.754-4.16c.122-.074.247.09.143.186L7.166 9.043a1.156 1.156 0 00-.358.692l-.19 1.407c-.026.188-.29.207-.341.025L5.547 8.6a.68.68 0 01.297-.766z" /></symbol>


	<symbol id="soc-you" viewBox="0 0 18 15" xmlns="http://www.w3.org/2000/svg"><g clip-path="url(#clip0)"><path d="M16.777 2.776c-.46-.82-.961-.97-1.98-1.028-1.018-.07-3.577-.098-5.795-.098-2.222 0-4.782.029-5.799.097-1.017.058-1.518.208-1.984 1.03C.744 3.595.5 5.006.5 7.49v.008c0 2.474.244 3.895.72 4.706.465.82.965.969 1.982 1.038 1.018.06 3.578.095 5.8.095 2.218 0 4.777-.035 5.796-.094 1.019-.069 1.52-.218 1.98-1.038.48-.81.722-2.232.722-4.706v-.005-.003c0-2.485-.242-3.896-.723-4.716zm-9.902 7.905V4.306l5.313 3.188-5.313 3.187z" /></g><defs><clipPath id="clip0"><path fill="#fff" transform="translate(.5)" d="M0 0h17v15H0z"/></clipPath></defs></symbol>

	<symbol id="soc-vk" viewBox="0 0 30 23" xmlns="http://www.w3.org/2000/svg"><path d="M29.316 4.22c.206-.702 0-1.22-.991-1.22h-3.28c-.836 0-1.22.444-1.426.94 0 0-1.67 4.111-4.032 6.777-.763.771-1.114 1.019-1.532 1.019-.206 0-.523-.248-.523-.951V4.221c0-.844-.234-1.221-.925-1.221H11.45c-.523 0-.835.394-.835.76 0 .798 1.18.984 1.303 3.234v4.882c0 1.069-.19 1.266-.607 1.266-1.114 0-3.82-4.129-5.424-8.854C5.564 3.371 5.247 3 4.405 3h-3.28C.189 3 0 3.444 0 3.94c0 .877 1.114 5.236 5.185 10.996C7.897 18.868 11.718 21 15.193 21c2.088 0 2.344-.473 2.344-1.288 0-3.758-.189-4.112.858-4.112.485 0 1.32.248 3.27 2.143C23.891 19.993 24.258 21 25.506 21h3.28c.936 0 1.41-.473 1.136-1.406-.623-1.963-4.84-6.002-5.029-6.272-.484-.63-.345-.911 0-1.474.006-.006 4.01-5.698 4.422-7.627Z"/></symbol>

	<symbol id="tg-big" viewBox="0 0 100 102" fill="none" xmlns="http://www.w3.org/2000/svg"><ellipse cx="50" cy="51" rx="50" ry="51" fill="url(#paint0_linear)"/><g clip-path="url(#clip0)"><path d="M17.024 49.965l13.365 4.988 5.173 16.635a1.573 1.573 0 002.498.753l7.45-6.073a2.222 2.222 0 012.709-.076l13.436 9.755a1.575 1.575 0 002.468-.952l9.843-47.346c.253-1.221-.947-2.24-2.11-1.79L17.01 47.018c-1.354.522-1.342 2.438.015 2.947zm17.704 2.332l26.119-16.086c.47-.289.952.346.55.72L39.84 56.968a4.468 4.468 0 00-1.385 2.674l-.735 5.441c-.097.727-1.117.799-1.318.096l-2.824-9.923a2.63 2.63 0 011.149-2.959z" fill="#fff" fill-opacity=".85"/></g><defs><linearGradient id="paint0_linear" x1="50" y1="0" x2="50" y2="102" gradientUnits="userSpaceOnUse"><stop stop-color="#2BA3E2"/><stop offset="1" stop-color="#0B82BD"/></linearGradient><clipPath id="clip0"><path fill="#fff" transform="translate(16 22)" d="M0 0h58v58H0z"/></clipPath></defs></symbol>

	<symbol id="file" viewBox="0 0 29 25" xmlns="http://www.w3.org/2000/svg"><path d="M20.835 13.095a4.171 4.171 0 01-4.167-4.166V2.38A2.383 2.383 0 0119.048 0a2.383 2.383 0 012.382 2.381v6.548a.595.595 0 01-1.19 0V2.38a1.19 1.19 0 00-2.382 0v6.548a2.979 2.979 0 002.977 2.976 2.979 2.979 0 002.976-2.976V.595a.595.595 0 011.19 0V8.93a4.171 4.171 0 01-4.166 4.166z" /><path d="M25.595 25H2.976A2.979 2.979 0 010 22.024V6.547a2.979 2.979 0 012.976-2.976h6.06c.468 0 .924.19 1.255.52l1.69 1.691c.105.105.263.17.412.17h1.297a.595.595 0 010 1.19h-1.297c-.468 0-.924-.189-1.255-.52l-1.69-1.69a.604.604 0 00-.412-.17h-6.06c-.984 0-1.786.801-1.786 1.785v15.477c0 .984.802 1.785 1.786 1.785h22.62c.984 0 1.785-.8 1.785-1.785V8.928a.595.595 0 011.19 0v13.096A2.979 2.979 0 0125.595 25z" /></symbol>

	<symbol id="points" viewBox="0 0 15 3" xmlns="http://www.w3.org/2000/svg"><circle cx="1.5" cy="1.5" r="1.5" /><circle cx="7.5" cy="1.5" r="1.5" /><circle cx="13.5" cy="1.5" r="1.5" /></symbol>

	<symbol id="star" viewBox="0 0 24 24" xmlns="http://www.w3.org/2000/svg"><path d="M11.515 1.292c.201-.39.769-.39.97 0L15.777 7.7c.08.155.233.262.408.287l7.347 1.024a.529.529 0 0 1 .299.911l-5.302 4.961a.525.525 0 0 0-.16.477l1.253 7.016c.078.432-.384.765-.782.564l-6.593-3.327a.552.552 0 0 0-.496 0L5.159 22.94c-.398.201-.86-.132-.783-.564l1.254-7.017a.525.525 0 0 0-.16-.476L.168 9.923a.529.529 0 0 1 .299-.912l7.347-1.024a.542.542 0 0 0 .408-.287l3.293-6.408Z"/></symbol>

	<symbol id="edit" viewBox="0 0 14 14" xmlns="http://www.w3.org/2000/svg"><path d="m2.024 8.878-.687 2.961a.744.744 0 0 0 .723.903.775.775 0 0 0 .155 0l2.98-.686 5.72-5.699-3.193-3.185-5.698 5.706ZM12.713 3.504l-2.13-2.13a.747.747 0 0 0-1.055 0L8.344 2.558l3.188 3.189 1.185-1.185a.749.749 0 0 0-.004-1.058Z" /></symbol>

	<symbol id="photo" viewBox="0 0 36 28" xmlns="http://www.w3.org/2000/svg"><path d="M23.513 16.307A5.519 5.519 0 0 1 18 21.819a5.518 5.518 0 0 1-5.511-5.512A5.518 5.518 0 0 1 18 10.794a5.52 5.52 0 0 1 5.513 5.513ZM35.09 8.479v15.657a3.78 3.78 0 0 1-3.78 3.78H4.69a3.78 3.78 0 0 1-3.78-3.78V8.479A3.78 3.78 0 0 1 4.69 4.7h4.648V3.393A3.306 3.306 0 0 1 12.646.085h10.709a3.306 3.306 0 0 1 3.307 3.307v1.307h4.649a3.781 3.781 0 0 1 3.78 3.78Zm-8.743 7.828c0-4.603-3.744-8.347-8.347-8.347-4.601 0-8.346 3.744-8.346 8.347 0 4.602 3.745 8.347 8.346 8.347 4.603 0 8.347-3.745 8.347-8.347Z" /></symbol>

	<symbol id="sort-asc" viewBox="0 0 20 20" xmlns="http://www.w3.org/2000/svg"><path d="M3.333 4h3.334c.458 0 .833.45.833 1s-.375 1-.833 1H3.333C2.875 6 2.5 5.55 2.5 5s.375-1 .833-1ZM2.5 15c0-.55.375-1 .833-1h13.334c.458 0 .833.45.833 1s-.375 1-.833 1H3.333c-.458 0-.833-.45-.833-1Zm.833-6h8.334c.458 0 .833.45.833 1s-.375 1-.833 1H3.333c-.458 0-.833-.45-.833-1s.375-1 .833-1Z" /></symbol>

	<symbol id="sort-desc" viewBox="0 0 20 20" xmlns="http://www.w3.org/2000/svg"><path d="M3.333 16h3.334c.458 0 .833-.45.833-1s-.375-1-.833-1H3.333c-.458 0-.833.45-.833 1s.375 1 .833 1ZM2.5 5c0 .55.375 1 .833 1h13.334c.458 0 .833-.45.833-1s-.375-1-.833-1H3.333c-.458 0-.833.45-.833 1Zm.833 6h8.334c.458 0 .833-.45.833-1s-.375-1-.833-1H3.333c-.458 0-.833.45-.833 1s.375 1 .833 1Z" /></symbol>

	<symbol id="attention" viewBox="0 0 20 20" xmlns="http://www.w3.org/2000/svg"><g clip-path="url(#a)"><path fill-rule="evenodd" clip-rule="evenodd" d="M13.5114 1.53566a9.1407 9.1407 0 0 0-3.5088-.69581 9.14084 9.14084 0 0 0-6.48175 2.68491 9.14091 9.14091 0 0 0-2.6849 6.48174 9.14092 9.14092 0 0 0 .6958 3.5088 9.14054 9.14054 0 0 0 1.98914 2.973 9.14037 9.14037 0 0 0 2.97299 1.989 9.13997 9.13997 0 0 0 3.50872.6959 9.14235 9.14235 0 0 0 3.5088-.6958 9.14323 9.14323 0 0 0 2.973-1.9891 9.14323 9.14323 0 0 0 1.9891-2.973 9.14235 9.14235 0 0 0 .6958-3.5088 9.14008 9.14008 0 0 0-.6959-3.50872 9.14035 9.14035 0 0 0-1.989-2.97301 9.14152 9.14152 0 0 0-2.973-1.98911Zm5.6579 8.47084v-.0011l-.8334.0011.8334.0011v-.0011Zm-9.1667 9.1667h.0011l-.0011-.8333-.0011.8333h.0011Zm-8.33462-9.1667-.83203.0011v-.0022l.83203.0011Zm8.33462-8.33364.0011-.833-.0011-.00001h-.0011l.0011.83301Zm0 13.75034c.2763 0 .5412-.1098.7366-.3051.1953-.1954.3051-.4603.3051-.7366 0-.2763-.1098-.5412-.3051-.7366a1.04198 1.04198 0 0 0-.7366-.3051 1.0419 1.0419 0 0 0-.73657.3051 1.04176 1.04176 0 0 0 0 1.4732 1.0419 1.0419 0 0 0 .73657.3051Zm-.0013-11.25035c.4602 0 .8333.3731.8333.83333v6.66672c0 .4602-.3731.8333-.8333.8333-.46024 0-.83333-.3731-.83333-.8333V5.00618c0-.46023.37309-.83333.83333-.83333Z" /></g></symbol>

	
</svg>