<svg xmlns="http://www.w3.org/2000/svg" width="81" height="20" fill="none" viewBox="0 0 81 20"><mask id="a" width="81" height="20" x="0" y=".072" fill="#000" maskUnits="userSpaceOnUse"><path fill="#fff" d="M0 .072h81v20H0z"/><path d="M6.283 6.605H1.21l.687 2.292h5.071l-.686-2.292ZM4.839 19.088h5.2l-.692-2.292H4.839a1.534 1.534 0 0 1-1.532-1.529 1.527 1.527 0 0 1 1.532-1.529h3.59l-.687-2.292H4.84a3.624 3.624 0 0 0-2.78 1.05 3.609 3.609 0 0 0-1.052 2.774 3.603 3.603 0 0 0 2.33 3.591c.48.181.99.258 1.502.227ZM10.984 6.605H8.633l3.757 12.488h2.55l3.756-12.488h-2.35l-2.679 8.922-2.683-8.922ZM76.185 16.556h-3.881l-.694 2.285h4.575c2.282 0 3.816-1.524 3.816-3.82-.014-3.924-6.348-3.035-6.348-4.924a1.41 1.41 0 0 1 1.387-1.389h3.504l.693-2.285H75.04a3.524 3.524 0 0 0-3.434 2.244 3.53 3.53 0 0 0-.239 1.43c0 3.935 6.34 3.046 6.34 4.952a1.47 1.47 0 0 1-.93 1.425c-.188.074-.39.108-.592.1M48.783 14.39c0 2.798 1.904 4.705 4.7 4.705 3.43 0 4.193-2.67 4.193-2.67l-2.168-.65a2.428 2.428 0 0 1-4.44-1.389V10.83a2.433 2.433 0 0 1 1.704-2.348 2.426 2.426 0 0 1 2.736.96l2.168-.65s-.763-2.67-4.194-2.67c-2.795 0-4.7 1.906-4.7 4.705v3.563ZM39.394 10.844a2.413 2.413 0 0 1 2.409-2.412 2.408 2.408 0 0 1 2.409 2.412V14.4a2.414 2.414 0 0 1-2.41 2.411 2.408 2.408 0 0 1-2.408-2.411v-3.556Zm7.1 0c0-2.778-1.9-4.695-4.69-4.695-2.788 0-4.689 1.903-4.689 4.695V14.4c0 2.778 1.9 4.694 4.69 4.694 2.788 0 4.69-1.902 4.69-4.694v-3.556ZM66.796 16.557H64.26a1.996 1.996 0 0 1-1.882-1.25c-.1-.248-.15-.514-.147-.782V6.403h-2.282v8.122c0 2.539 1.775 4.317 4.31 4.317h4.819V6.403h-2.282v10.154ZM30.496 18.841h2.307V8.688h1.852l.694-2.285h-2.546V5.389a2.007 2.007 0 0 1 1.248-1.885 2 2 0 0 1 .781-.147h1.419l.694-2.285h-2.113c-2.535 0-4.311 1.778-4.311 4.317v1.014h-1.613l-.694 2.285h2.282V18.84Z"/></mask><path fill="#FF4C41" d="M6.283 6.605H1.21l.687 2.292h5.071l-.686-2.292ZM4.839 19.088h5.2l-.692-2.292H4.839a1.534 1.534 0 0 1-1.532-1.529 1.527 1.527 0 0 1 1.532-1.529h3.59l-.687-2.292H4.84a3.624 3.624 0 0 0-2.78 1.05 3.609 3.609 0 0 0-1.052 2.774 3.603 3.603 0 0 0 2.33 3.591c.48.181.99.258 1.502.227ZM10.984 6.605H8.633l3.757 12.488h2.55l3.756-12.488h-2.35l-2.679 8.922-2.683-8.922ZM76.185 16.556h-3.881l-.694 2.285h4.575c2.282 0 3.816-1.524 3.816-3.82-.014-3.924-6.348-3.035-6.348-4.924a1.41 1.41 0 0 1 1.387-1.389h3.504l.693-2.285H75.04a3.524 3.524 0 0 0-3.434 2.244 3.53 3.53 0 0 0-.239 1.43c0 3.935 6.34 3.046 6.34 4.952a1.47 1.47 0 0 1-.93 1.425c-.188.074-.39.108-.592.1M48.783 14.39c0 2.798 1.904 4.705 4.7 4.705 3.43 0 4.193-2.67 4.193-2.67l-2.168-.65a2.428 2.428 0 0 1-4.44-1.389V10.83a2.433 2.433 0 0 1 1.704-2.348 2.426 2.426 0 0 1 2.736.96l2.168-.65s-.763-2.67-4.194-2.67c-2.795 0-4.7 1.906-4.7 4.705v3.563ZM39.394 10.844a2.413 2.413 0 0 1 2.409-2.412 2.408 2.408 0 0 1 2.409 2.412V14.4a2.414 2.414 0 0 1-2.41 2.411 2.408 2.408 0 0 1-2.408-2.411v-3.556Zm7.1 0c0-2.778-1.9-4.695-4.69-4.695-2.788 0-4.689 1.903-4.689 4.695V14.4c0 2.778 1.9 4.694 4.69 4.694 2.788 0 4.69-1.902 4.69-4.694v-3.556ZM66.796 16.557H64.26a1.996 1.996 0 0 1-1.882-1.25c-.1-.248-.15-.514-.147-.782V6.403h-2.282v8.122c0 2.539 1.775 4.317 4.31 4.317h4.819V6.403h-2.282v10.154ZM30.496 18.841h2.307V8.688h1.852l.694-2.285h-2.546V5.389a2.007 2.007 0 0 1 1.248-1.885 2 2 0 0 1 .781-.147h1.419l.694-2.285h-2.113c-2.535 0-4.311 1.778-4.311 4.317v1.014h-1.613l-.694 2.285h2.282V18.84Z"/><path fill="#FF4C41" d="m6.283 6.605.205-.062-.046-.153h-.16v.215Zm-5.072 0V6.39H.923l.082.276.206-.061Zm.687 2.292-.206.061.046.153h.16v-.214Zm5.071 0v.214h.289l-.083-.276-.205.062ZM4.84 19.088v-.215l-.013.001.013.214Zm5.2 0v.215h.29l-.084-.277-.206.062Zm-.692-2.292.205-.062-.046-.152h-.159v.214Zm-.918-3.058v.215h.288l-.082-.276-.206.061Zm-.687-2.292.206-.062-.046-.152h-.16v.214Zm-2.903 0-.013.215h.013v-.215Zm-1.503.227-.076-.2.076.2Zm-1.277.823-.151-.151.151.151Zm-.824 1.274-.201-.076.2.076Zm-.228 1.5.214.013v-.026l-.214.013Zm9.977-8.665.205-.062-.046-.153h-.16v.215Zm-2.351 0V6.39h-.288l.083.276.205-.061Zm3.757 12.488-.206.062.046.153h.16v-.215Zm2.55 0v.215h.159l.046-.153-.206-.062Zm3.756-12.488.205.061.084-.276h-.289v.215Zm-2.35 0V6.39h-.16l-.046.153.205.062Zm-2.679 8.922-.205.061.206.684.205-.684-.206-.061Zm58.637 1.03v-.215h-.16l-.046.152.206.062Zm-.694 2.284-.205-.062-.084.277h.289v-.215Zm8.39-3.82h.215H80Zm-6.347-4.924-.214-.003v.003h.214Zm.412-.976-.151-.152.151.152Zm.975-.413v-.214h-.003l.003.214Zm3.504 0v.215h.159l.046-.153-.205-.062Zm.693-2.285.206.063.084-.277h-.29v.214Zm-4.197 0-.009.215h.01v-.215ZM72.4 7.453l.151.152-.151-.152Zm-1.032 2.644h.215v-.009l-.215.01Zm6.34 4.952h-.214v.009l.215-.009Zm-.098.593.2.078-.2-.078Zm-.329.503.152.152-.152-.152Zm-.503.33-.078-.2.078.2Zm-19.1-.05.205.058.059-.203-.203-.061-.062.205Zm-2.169-.65.062-.205-.151-.046-.088.131.177.12Zm-1.21.934.072.202-.071-.203Zm-1.526.026.064-.205-.064.204Zm-1.704-2.349.215.003v-.003h-.215Zm0-3.556h.215v-.002l-.215.002Zm1.704-2.348.064.204-.064-.204Zm1.527.026.07-.203-.07.203Zm1.21.933-.178.12.088.13.15-.044-.06-.206Zm2.167-.65.062.206.203-.06-.059-.204-.206.059Zm-14.17.347.152-.151-.152.151Zm0 6.967.152.152-.152-.152Zm23.29.452v.214h.214v-.214h-.215Zm-2.536 0v-.215h-.003l.003.215Zm-.78-.147.08-.199-.08.199Zm-.663-.44-.152.152.152-.152Zm-.44-.663.2-.08-.2.08Zm-.146-.782.214.003v-.003h-.214Zm0-8.122h.214V6.19h-.214v.214Zm-2.282 0V6.19h-.215v.214h.215Zm9.129 12.439v.214h.214v-.214h-.214Zm0-12.439h.214V6.19h-.214v.214Zm-2.282 0V6.19h-.215v.214h.215Zm-36.3 12.438h-.214v.215h.214v-.215Zm2.307 0v.215h.214v-.215h-.214Zm0-10.153v-.215h-.215v.215h.215Zm1.852 0v.214h.16l.045-.152-.205-.062Zm.694-2.285.205.062.084-.277h-.29v.215Zm-2.546 0h-.215v.214h.215v-.214Zm0-1.014h.214v-.003l-.214.003Zm.586-1.445.152.151-.152-.151Zm1.443-.587-.003.215h.003v-.215Zm1.419 0v.215h.159l.046-.152-.205-.063Zm.694-2.285.205.063.084-.277h-.29v.214Zm-6.424 5.33v.215h.214v-.214h-.214Zm-1.613 0v-.214h-.16l-.045.152.205.063Zm-.694 2.286-.205-.063-.084.277h.29v-.214Zm2.282 0h.215v-.215h-.215v.215ZM6.283 6.39H1.21v.43h5.072v-.43Zm-5.278.276.687 2.292.411-.123-.687-2.292-.41.123Zm.893 2.445h5.071v-.429H1.899v.43Zm5.277-.276-.687-2.292-.41.123.686 2.292.411-.123ZM4.839 19.303h5.2v-.43h-5.2v.43Zm5.406-.277-.693-2.292-.41.124.692 2.292.41-.124Zm-.898-2.444H4.839v.429h4.508v-.43Zm-4.508 0a1.32 1.32 0 0 1-.932-.386l-.303.304c.327.327.772.51 1.235.51v-.428Zm-.932-.386a1.313 1.313 0 0 1-.386-.929h-.429c0 .463.184.906.512 1.233l.303-.303Zm-.386-.929c0-.348.139-.683.386-.93l-.303-.303c-.328.327-.512.77-.512 1.233h.429Zm.386-.93a1.32 1.32 0 0 1 .932-.384v-.43c-.463 0-.908.184-1.235.511l.303.304Zm.932-.384h3.59v-.43H4.84v.43Zm3.796-.276-.687-2.293-.411.124.687 2.292.41-.123Zm-.893-2.445H4.84v.429h2.903v-.43Zm-2.89 0a3.838 3.838 0 0 0-1.592.24l.152.402a3.41 3.41 0 0 1 1.414-.214l.026-.428Zm-1.592.24a3.832 3.832 0 0 0-1.352.873l.303.303c.34-.34.75-.604 1.2-.774l-.15-.401Zm-1.352.873a3.823 3.823 0 0 0-.874 1.35l.401.151c.17-.45.435-.858.776-1.198l-.303-.303Zm-.874 1.35a3.817 3.817 0 0 0-.241 1.588l.428-.026c-.03-.48.043-.96.214-1.41l-.401-.153Zm-.241 1.562c-.033.54.05 1.081.243 1.587l.4-.153a3.388 3.388 0 0 1-.215-1.408l-.428-.026Zm.243 1.587c.192.506.49.965.874 1.348l.303-.304a3.393 3.393 0 0 1-.776-1.197l-.401.153Zm.874 1.348c.384.382.845.679 1.352.87l.151-.401c-.45-.17-.86-.434-1.2-.773l-.303.303Zm1.352.87c.507.191 1.049.273 1.59.24l-.026-.428c-.481.03-.962-.043-1.413-.213l-.151.401ZM10.984 6.39H8.633v.429h2.35V6.39Zm-2.556.276 3.756 12.49.411-.124-3.757-12.49-.41.124Zm3.962 12.642h2.55v-.429h-2.55v.429Zm2.755-.153L18.9 6.666l-.41-.123-3.757 12.489.41.123ZM18.696 6.39h-2.35v.429h2.35V6.39Zm-2.556.153-2.678 8.922.41.123 2.679-8.922-.411-.123Zm-2.267 8.922-2.684-8.922-.41.123 2.683 8.922.41-.123Zm62.312.877h-3.881v.429h3.881v-.43Zm-4.087.152-.693 2.285.41.124.694-2.285-.41-.124Zm-.488 2.562h4.575v-.43H71.61v.43Zm4.575 0c1.19 0 2.201-.399 2.915-1.112.714-.714 1.115-1.726 1.115-2.923h-.429c0 1.1-.366 1.997-.989 2.62-.623.622-1.52.986-2.612.986v.429Zm4.03-4.036c-.004-1.05-.435-1.788-1.075-2.322-.63-.527-1.456-.853-2.253-1.106-.818-.26-1.578-.439-2.163-.679-.288-.118-.507-.241-.651-.379a.579.579 0 0 1-.205-.437h-.43c0 .306.132.552.34.749.201.191.477.339.783.464.604.247 1.428.446 2.195.69.788.251 1.547.557 2.11 1.027.55.46.917 1.083.92 1.995l.429-.002Zm-6.347-4.92c.004-.31.13-.608.349-.828l-.304-.303a1.626 1.626 0 0 0-.474 1.125l.429.006Zm.349-.827c.22-.22.516-.346.827-.35l-.007-.43a1.622 1.622 0 0 0-1.124.476l.304.304Zm.823-.35h3.504v-.43H75.04v.43Zm3.709-.153.694-2.284-.41-.125-.695 2.285.41.124Zm.488-2.561H75.04v.429h4.197v-.43Zm-4.187 0a3.738 3.738 0 0 0-1.516.252l.155.4a3.31 3.31 0 0 1 1.343-.223l.018-.43Zm-1.516.252c-.483.188-.92.474-1.287.84l.303.304a3.313 3.313 0 0 1 1.14-.744l-.156-.4Zm-1.287.84a3.748 3.748 0 0 0-.84 1.288l.399.156c.167-.428.42-.816.744-1.14l-.303-.303Zm-.84 1.288c-.19.483-.275 1-.254 1.517l.429-.018a3.318 3.318 0 0 1 .224-1.343l-.4-.156Zm-.254 1.508c0 1.053.428 1.793 1.067 2.33.628.528 1.455.855 2.252 1.11.817.263 1.578.443 2.163.685.594.247.858.5.858.827h.43c0-.626-.53-.977-1.124-1.223-.604-.25-1.428-.45-2.196-.697-.788-.252-1.546-.56-2.107-1.03-.55-.463-.914-1.087-.914-2.002h-.43Zm6.34 4.96c.008.174-.021.346-.084.507l.4.156c.084-.216.123-.448.113-.68l-.428.018Zm-.084.507a1.254 1.254 0 0 1-.28.43l.303.303c.164-.164.292-.36.377-.577l-.4-.156Zm-.28.43a1.247 1.247 0 0 1-.43.28l.157.4a1.68 1.68 0 0 0 .576-.377l-.303-.303Zm-.43.28c-.16.063-.333.092-.505.085l-.018.429c.232.01.463-.03.68-.114l-.157-.4ZM48.57 14.39c0 1.45.493 2.683 1.363 3.554.87.872 2.103 1.366 3.55 1.366v-.429c-1.347 0-2.465-.458-3.246-1.24-.78-.781-1.239-1.9-1.239-3.25h-.429Zm4.913 4.92c1.78 0 2.883-.695 3.54-1.404a4.18 4.18 0 0 0 .673-.967 3.474 3.474 0 0 0 .184-.443l.002-.008v-.002l.001-.001-.206-.06-.206-.059-.001.004a3.024 3.024 0 0 1-.157.377c-.119.236-.31.552-.603.868-.582.627-1.575 1.266-3.227 1.266v.43Zm4.256-3.09-2.168-.65-.123.412 2.168.649.123-.411Zm-2.407-.564a2.215 2.215 0 0 1-1.103.851l.142.405a2.644 2.644 0 0 0 1.316-1.016l-.355-.24Zm-1.103.851a2.21 2.21 0 0 1-1.392.024l-.128.41a2.64 2.64 0 0 0 1.662-.03l-.142-.404Zm-1.392.024a2.213 2.213 0 0 1-1.13-.813l-.348.252c.334.46.807.8 1.35.97l.128-.41Zm-1.13-.813a2.218 2.218 0 0 1-.423-1.329l-.43-.004c-.006.569.171 1.124.505 1.585l.347-.252Zm-.423-1.33V10.83h-.43v3.556h.43Zm0-3.56a2.218 2.218 0 0 1 .422-1.328l-.347-.251a2.648 2.648 0 0 0-.504 1.585l.429-.005Zm.422-1.328c.28-.385.677-.67 1.131-.813l-.128-.409c-.543.17-1.016.51-1.35.97l.347.252Zm1.131-.813a2.211 2.211 0 0 1 1.392.024l.142-.405a2.64 2.64 0 0 0-1.662-.028l.128.41Zm1.392.024c.45.158.836.456 1.102.851l.356-.24a2.644 2.644 0 0 0-1.316-1.016l-.142.405Zm1.342.937 2.168-.65-.123-.41-2.168.649.123.41Zm2.106-.855.206-.06v-.003l-.003-.008a3.377 3.377 0 0 0-.042-.12c-.03-.079-.076-.19-.142-.322a4.183 4.183 0 0 0-.672-.968c-.658-.709-1.762-1.404-3.54-1.404v.429c1.651 0 2.644.64 3.226 1.267.293.315.484.631.602.867a3.036 3.036 0 0 1 .159.38v.001l.206-.06Zm-4.194-2.885c-1.447 0-2.68.495-3.55 1.366-.87.871-1.364 2.104-1.364 3.554h.43c0-1.35.457-2.47 1.238-3.25.78-.782 1.899-1.241 3.247-1.241v-.43Zm-4.914 4.92v3.563h.43v-3.563h-.43Zm-8.96.017c0-.583.232-1.142.643-1.554l-.303-.303a2.627 2.627 0 0 0-.769 1.857h.43Zm.643-1.554c.412-.412.97-.643 1.552-.643v-.43c-.696 0-1.363.277-1.855.77l.303.303Zm1.552-.643c.582 0 1.14.231 1.552.643l.303-.303a2.622 2.622 0 0 0-1.855-.77v.43Zm1.552.643a2.2 2.2 0 0 1 .642 1.554h.43c0-.697-.277-1.365-.769-1.857l-.303.303Zm.642 1.554V14.4h.43v-3.556h-.43Zm0 3.556c0 .582-.231 1.141-.642 1.553l.303.303c.492-.492.768-1.16.768-1.856h-.429Zm-.642 1.553c-.412.412-.97.644-1.552.644v.429c.696 0 1.363-.277 1.855-.77l-.303-.303Zm-1.552.644c-.582 0-1.14-.232-1.552-.644l-.303.304c.492.492 1.159.769 1.855.769v-.43Zm-1.552-.644a2.198 2.198 0 0 1-.643-1.553h-.429c0 .696.277 1.364.769 1.857l.303-.304Zm-.643-1.553v-3.556h-.429V14.4h.43Zm7.1-3.556c0-1.44-.493-2.67-1.361-3.54-.869-.872-2.098-1.37-3.542-1.37v.43c1.343 0 2.459.46 3.238 1.242.78.782 1.237 1.899 1.237 3.238h.429Zm-4.903-4.91c-1.445 0-2.674.494-3.543 1.364-.868.87-1.361 2.1-1.361 3.546h.428c0-1.346.458-2.463 1.237-3.243.779-.78 1.894-1.238 3.239-1.238v-.429Zm-4.904 4.91V14.4h.428v-3.556h-.428Zm0 3.556c0 1.439.493 2.67 1.361 3.54.868.871 2.098 1.369 3.543 1.369v-.429c-1.344 0-2.46-.461-3.24-1.243-.778-.781-1.235-1.898-1.235-3.237h-.43Zm4.904 4.909c1.444 0 2.673-.494 3.542-1.363.868-.87 1.362-2.1 1.362-3.546h-.43c0 1.346-.457 2.463-1.236 3.242-.779.78-1.894 1.238-3.238 1.238v.429Zm4.904-4.91v-3.555h-.43V14.4h.43Zm20.087 1.943H64.26v.43h2.535v-.43Zm-2.54 0a1.783 1.783 0 0 1-.696-.13l-.162.396c.275.112.569.168.865.163l-.006-.429Zm-.696-.13a1.786 1.786 0 0 1-.592-.393l-.303.303c.21.21.459.375.733.486l.162-.397Zm-.591-.393a1.79 1.79 0 0 1-.392-.592l-.398.16c.111.276.277.525.486.735l.304-.303Zm-.392-.592a1.79 1.79 0 0 1-.132-.699l-.428-.006c-.005.297.05.591.162.866l.398-.161Zm-.132-.702V6.403h-.429v8.122h.43Zm-.214-8.336h-2.282v.429h2.282v-.43Zm-2.497.214v8.122h.43V6.403h-.43Zm0 8.122c0 1.321.463 2.456 1.268 3.262.804.806 1.939 1.27 3.258 1.27v-.43c-1.216 0-2.238-.425-2.955-1.143-.717-.718-1.142-1.74-1.142-2.959h-.429Zm4.526 4.531h4.818v-.429H64.26v.43Zm5.032-.214V6.403h-.429v12.439h.43Zm-.214-12.653h-2.282v.429h2.282v-.43Zm-2.497.214v10.154h.429V6.403h-.429ZM30.496 19.056h2.307v-.43h-2.307v.43Zm2.521-.215V8.688h-.429V18.84h.43Zm-.214-9.939h1.852v-.429h-1.852v.429Zm2.057-.152.694-2.285-.41-.125-.694 2.285.41.125Zm.489-2.562h-2.546v.43h2.546v-.43Zm-2.332.215V5.389h-.429v1.014h.43Zm0-1.017a1.79 1.79 0 0 1 .131-.698l-.397-.162c-.111.275-.167.57-.162.866l.428-.006Zm.131-.698a1.79 1.79 0 0 1 .393-.593l-.304-.303c-.21.21-.375.46-.486.734l.398.162Zm.393-.593c.169-.169.37-.302.591-.392l-.162-.397a2.216 2.216 0 0 0-.733.486l.304.303Zm.591-.392c.221-.09.458-.135.697-.131l.006-.43a2.214 2.214 0 0 0-.865.164l.162.397Zm.7-.131h1.419v-.43h-1.419v.43Zm1.624-.152.694-2.285-.41-.125-.695 2.285.411.125Zm.488-2.562h-2.112v.429h2.112v-.43Zm-2.112 0c-1.32 0-2.453.463-3.258 1.269-.805.806-1.268 1.941-1.268 3.262h.43c0-1.218.424-2.241 1.141-2.959.717-.718 1.739-1.143 2.955-1.143v-.43Zm-4.526 4.53v1.015h.43V5.389h-.43Zm.215.8h-1.613v.43h1.613v-.43Zm-1.818.152-.694 2.285.41.125.694-2.285-.41-.125Zm-.489 2.562h2.282v-.429h-2.282v.429Zm2.068-.214V18.84h.429V8.688h-.43Z" mask="url(#a)"/></svg>