<svg width="40" height="46" viewBox="0 0 40 46" fill="none" xmlns="http://www.w3.org/2000/svg">
<path fill-rule="evenodd" clip-rule="evenodd" d="M24.0837 39.5827C33.1709 37.6975 40 29.6462 40 20C40 8.9543 31.0457 0 20 0C8.9543 0 0 8.9543 0 20C0 29.6462 6.82907 37.6975 15.9163 39.5827L19.1563 44.6742C19.5493 45.2917 20.4507 45.2917 20.8437 44.6742L24.0837 39.5827ZM26.6667 20C26.6667 23.6819 23.6819 26.6667 20 26.6667C16.3181 26.6667 13.3333 23.6819 13.3333 20C13.3333 16.3181 16.3181 13.3333 20 13.3333C23.6819 13.3333 26.6667 16.3181 26.6667 20Z" fill="#B31A1A"/>
</svg>
