<svg width="384" height="307" fill="none" xmlns="http://www.w3.org/2000/svg"><path d="M384 272.594H0v.191h384v-.191ZM345.523 284.853h-25.436v.19h25.436v-.19ZM254.377 286.925h-6.674v.19h6.674v-.19ZM319.319 277.782h-14.738v.191h14.738v-.191ZM73.46 279.062H40.29v.191h33.17v-.191ZM85.164 279.062h-4.862v.191h4.862v-.191ZM172.915 282.278h-71.946v.19h71.946v-.19Z" fill="#EBEBEB"/><path d="M305.902 54.992H208.32v217.602h97.582V54.992Z" fill="#F0F0F0"/><path d="M305.902 54.992h-95.524v217.602h95.524V54.992Z" fill="#F5F5F5"/><path d="M300.073 267.657V59.929h-83.881v207.728h83.881Z" fill="#F0F0F0"/><path d="M224.44 98.585a22.533 22.533 0 0 1 1.733-8.686 22.681 22.681 0 0 1 4.952-7.366 22.887 22.887 0 0 1 7.418-4.925 23.03 23.03 0 0 1 8.753-1.734h21.658a23.022 23.022 0 0 1 8.763 1.723 22.87 22.87 0 0 1 7.429 4.923 22.658 22.658 0 0 1 4.96 7.371 22.518 22.518 0 0 1 1.734 8.694h-67.4Z" fill="#FAFAFA"/><path d="M291.84 254.744v-49.628h-67.392v49.628h67.392ZM224.44 198.717h29.73v-86.159h-29.73v86.159ZM262.103 198.717h29.729v-86.159h-29.729v86.159Z" fill="#F5F5F5"/><path d="M281.088 155.245h12.173c.501 0 .981-.197 1.336-.549.354-.351.553-.828.553-1.325a1.876 1.876 0 0 0-.555-1.323 1.906 1.906 0 0 0-1.334-.551h-12.173c-.501 0-.982.197-1.336.549a1.866 1.866 0 0 0 0 2.65c.354.352.835.549 1.336.549Z" fill="#E0E0E0"/><path d="M300.073 267.657V59.929h-1.513v207.728h1.513Z" fill="#F0F0F0"/><path d="M14.4 188.051h92.844V57.689c0-10.384-92.844-10.384-92.844 0V188.05Z" fill="#E0E0E0"/><path d="M16.535 188.051h92.836V57.689c0-10.384-92.844-10.384-92.836 0V188.05Z" fill="#EBEBEB"/><path d="M104.763 181.514V60.264a1.955 1.955 0 0 0-.359-1.137 1.981 1.981 0 0 0-.954-.722c-5.154-1.836-19.2-3.931-40.497-3.931s-35.328 2.095-40.497 3.93a1.98 1.98 0 0 0-.954.723c-.235.333-.36.73-.359 1.137v121.25c0 .521.209 1.021.58 1.39.372.368.876.575 1.401.575h79.657a1.99 1.99 0 0 0 1.401-.575c.372-.369.581-.869.581-1.39Z" fill="#FAFAFA"/><path d="m85.14 55.35 14.477 128.129H78.474L63.882 54.474c8.233.023 15.345.365 21.258.876ZM57.8 54.52l14.592 128.959H60.695L46.165 54.953c3.54-.213 7.426-.365 11.635-.434Z" fill="#fff"/><path d="M49.129 185.178V52.508h-4.055v132.67h4.055ZM81.784 185.178V52.508H77.73v132.67h4.055Z" fill="#EBEBEB"/><path d="M77.73 185.171V52.501h-.731v132.67h.73ZM45.074 185.171V52.501h-.73v132.67h.73Z" fill="#E0E0E0"/><path d="M19.653 85.748h87.552v-4.023H19.653v4.023Z" fill="#EBEBEB"/><path d="M18.885 191.273h94.717v-4.441H18.885v4.441Z" fill="#F5F5F5"/><path d="M18.885 186.824H14.4v4.442h4.485v-4.442Z" fill="#E0E0E0"/><path d="M327.387 23.712h23.155V17.22h-23.155v6.49Z" fill="#F0F0F0"/><path d="M157.432 134.111h23.156v-6.491h-23.156v6.491ZM123.08 215.821h23.155v-6.492H123.08v6.492Z" fill="#F5F5F5"/><path d="M337.289 228.726h-23.155v6.491h23.155v-6.491Z" fill="#E6E6E6"/><path d="M145.851 12.054h23.155V5.563h-23.155v6.49Z" fill="#F0F0F0"/><path d="M60.795 255.247H83.95v-6.491H60.795v6.491ZM42.486 208.118H65.64v-6.491H42.486v6.491Z" fill="#F5F5F5"/><path d="M72.384 261.738h23.155v-6.491H72.384v6.491ZM79.35 33.058H56.195v6.49H79.35v-6.49Z" fill="#F0F0F0"/><path d="M192 307c82.239 0 148.908-3.861 148.908-8.624s-66.669-8.625-148.908-8.625c-82.239 0-148.907 3.862-148.907 8.625S109.76 307 192 307Z" fill="#F5F5F5"/><path d="M103.696 75.479c-4.546.998-9.83 7.321-4.608 13.774 5.222 6.453-3.525 3.634-4.884 14.925-1.36 11.291 9.016 9.394 5.76 16.799-3.257 7.405 19.345 19.138 33.446 10.247 14.1-8.891 15.421-28.036 11.013-34.802-4.408-6.765-10.844-7.192-7.926-14.437 2.919-7.245-.522-14.78-9.623-14.849-6.866-.053-2.749-4.814-12.196-4.776-7.879.038-14.845 5.523-10.982 13.119Z" fill="#263238"/><path d="M128.971 84.918c-.444 0-.877.13-1.246.375a2.23 2.23 0 0 0-.826.998 2.219 2.219 0 0 0 .486 2.424 2.256 2.256 0 0 0 3.451-.337 2.215 2.215 0 0 0-1.006-3.293 2.247 2.247 0 0 0-.859-.167Zm0 3.924c-.341 0-.673-.1-.957-.288a1.71 1.71 0 0 1-.73-1.755c.067-.33.232-.635.473-.873a1.73 1.73 0 0 1 2.648.267c.188.281.288.612.286.95a1.679 1.679 0 0 1-.504 1.204 1.722 1.722 0 0 1-1.216.495Z" fill="#fff"/><path d="M147.879 106.594a.178.178 0 0 1-.125-.078.171.171 0 0 1-.03-.069.205.205 0 0 1 .001-.074c.692-3.551-2.096-6.987-5.045-10.666-3.449-4.244-7.35-9.059-5.975-14.796 1.175-4.89.652-8.975-1.475-11.504-1.736-2.064-4.447-3.047-8.049-2.834-3.302.168-4.277-.762-5.314-1.66-1.037-.9-2.412-2.172-7.15-2.142a.19.19 0 0 1-.192-.182.198.198 0 0 1 .192-.198h.161c4.777 0 6.09 1.188 7.25 2.24 1.014.921 1.897 1.721 5.038 1.561 3.725-.19 6.543.808 8.364 2.971 2.204 2.629 2.749 6.857 1.536 11.84-1.329 5.554 2.342 10.087 5.898 14.475 3.003 3.71 5.844 7.215 5.122 10.933a.192.192 0 0 1-.064.135.194.194 0 0 1-.143.048Z" fill="#263238"/><path d="m165.935 92.034-1.029 1.996a2.571 2.571 0 0 0 0 2.392l1.82 3.505c.359.691.879 1.287 1.518 1.738.639.45 1.377.743 2.153.852l.968.138c1.95-3.193 1.682-8.069 1.682-8.069l.076-1.394a2.143 2.143 0 0 0-.513-1.596 2.186 2.186 0 0 0-1.507-.758l-2.787-.19c-.49-.021-.975.098-1.397.344a2.531 2.531 0 0 0-.984 1.042Z" fill="#FFC3BD"/><path d="M143.071 105.374s.047.084.085.138l.161.236.369.487c.261.336.545.663.837.991a33.612 33.612 0 0 0 1.851 1.912 29.708 29.708 0 0 0 4.232 3.299 24.97 24.97 0 0 0 9.799 3.809l.653.092.33.045a.393.393 0 0 0-.084 0 .932.932 0 0 0-.461.168c-.146.137.207-.061.545-.564a15.67 15.67 0 0 0 1.897-4.487c.5-1.845.874-3.721 1.121-5.615.146-.96.231-1.943.315-2.918.085-.975.146-1.996.146-2.872l8.848.419c-.116 1.196-.231 2.224-.354 3.329-.122 1.105-.299 2.171-.453 3.253-.338 2.179-.729 4.358-1.305 6.598a31.883 31.883 0 0 1-1.037 3.405 20.504 20.504 0 0 1-1.705 3.619 10.457 10.457 0 0 1-3.84 3.81 8.165 8.165 0 0 1-3.471.952h-1.321l-.907-.061a37.777 37.777 0 0 1-7.134-1.364 42.317 42.317 0 0 1-6.697-2.666 46.054 46.054 0 0 1-6.106-3.718 45.464 45.464 0 0 1-2.849-2.21 47.006 47.006 0 0 1-1.375-1.219l-.691-.647-.361-.358c-.131-.137-.215-.221-.423-.45l9.385-7.413Z" fill="#B21A1A"/><path opacity=".5" d="M143.071 105.374s.047.084.085.138l.161.236.369.487c.261.336.545.663.837.991a33.612 33.612 0 0 0 1.851 1.912 29.708 29.708 0 0 0 4.232 3.299 24.97 24.97 0 0 0 9.799 3.809l.653.092.33.045a.393.393 0 0 0-.084 0 .932.932 0 0 0-.461.168c-.146.137.207-.061.545-.564a15.67 15.67 0 0 0 1.897-4.487c.5-1.845.874-3.721 1.121-5.615.146-.96.231-1.943.315-2.918.085-.975.146-1.996.146-2.872l8.848.419c-.116 1.196-.231 2.224-.354 3.329-.122 1.105-.299 2.171-.453 3.253-.338 2.179-.729 4.358-1.305 6.598a31.883 31.883 0 0 1-1.037 3.405 20.504 20.504 0 0 1-1.705 3.619 10.457 10.457 0 0 1-3.84 3.81 8.165 8.165 0 0 1-3.471.952h-1.321l-.907-.061a37.777 37.777 0 0 1-7.134-1.364 42.317 42.317 0 0 1-6.697-2.666 46.054 46.054 0 0 1-6.106-3.718 45.464 45.464 0 0 1-2.849-2.21 47.006 47.006 0 0 1-1.375-1.219l-.691-.647-.361-.358c-.131-.137-.215-.221-.423-.45l9.385-7.413Z" fill="#fff"/><path d="M124.639 289.508c-1.121-2.483-.345-12.951-.192-14.65-1.943-1.013-8.624.228-8.624.228s1.866 10.994.768 14.422c2.557 1.417 8.048 0 8.048 0ZM207.084 279.482c-2.104-1.744-6.528-11.29-7.15-12.898-2.196-.053-7.15 3.809-7.15 3.809s6.543 9.059 7.058 12.632c2.941.122 7.242-3.543 7.242-3.543Z" fill="#FFC3BD"/><path d="M131.475 295.58c-5.614 0-6.574-.083-9.731-.19-2.703-.099-3.348.236-5.522.19-1.812-.038-1.743-1.76-1.19-3.748.199-.701.476-1.524.768-2.514.108-.376.337-.706.652-.941a1.82 1.82 0 0 1 1.091-.362h6.144a1.88 1.88 0 0 1 1.444.709c1.49 1.836 4.708 3.177 7.519 3.55 3.041.404 1.067 3.306-1.175 3.306ZM218.174 283.741c-6.044 2.712-9.216 1.333-12.25 2.019-2.603.579-2.519 1.067-5.107 1.806-1.72.48-2.603-1.341-2.45-2.941.126-1.164.185-2.334.177-3.505a1.133 1.133 0 0 1 .174-.638 1.15 1.15 0 0 1 .502-.436l6.006-2.705a1.184 1.184 0 0 1 1.198.145c2.396 1.905 7.68 4.289 11.343 3.048 2.857-.937 2.419 2.3.407 3.207Z" fill="#B21A1A"/><path d="M151.512 147.863s14.185 32.311 21.965 56.119c9.53 21.545 28.623 66.747 28.623 66.747.376 1.15-5.66 3.26-6.966 3.047 0 0-25.206-29.987-35.466-64.05-26.688-33.217-34.56-59.882-34.56-59.882l26.404-1.981Z" fill="#263238"/><path opacity=".2" d="M140.13 165.554c3.917 4.259 6.674 19.046 8.079 28.699a221.174 221.174 0 0 1-13.186-21.797c.391-3.611 1.989-6.27 5.107-6.902Z" fill="#000"/><path d="M143.609 148.465s1.006 44.881-2.926 66.991c-4.132 23.213-16.896 51.219-16.013 66.457-1.321.761-5.944.807-8.532 0 0 0-4.424-45.247 8.87-67.334-2.88-22.094-10.545-50.747-3.74-64.43l22.341-1.684Z" fill="#263238"/><path d="M125.315 278.743c.021 1.047.119 2.091.292 3.124a.633.633 0 0 1-.298.675.664.664 0 0 1-.247.087c-3.126.495-7.68-.221-9.078-.473a.66.66 0 0 1-.53-.541l-.468-2.925a.65.65 0 0 1 .38-.704.676.676 0 0 1 .28-.058l9.024.168a.654.654 0 0 1 .645.647Z" fill="#263238"/><path opacity=".1" d="M125.315 278.743c.021 1.047.119 2.091.292 3.124a.633.633 0 0 1-.298.675.664.664 0 0 1-.247.087c-3.126.495-7.68-.221-9.078-.473a.66.66 0 0 1-.53-.541l-.468-2.925a.65.65 0 0 1 .38-.704.676.676 0 0 1 .28-.058l9.024.168a.654.654 0 0 1 .645.647Z" fill="#fff"/><path d="M201.447 267.429c.384.762 1.083 2.004 1.636 2.941a.652.652 0 0 1-.231.884 45.856 45.856 0 0 1-7.733 3.268.657.657 0 0 1-.768-.221l-1.828-2.399a.65.65 0 0 1 .007-.803.65.65 0 0 1 .223-.18l7.788-3.764a.654.654 0 0 1 .513-.059.633.633 0 0 1 .393.333Z" fill="#263238"/><path opacity=".1" d="M201.447 267.429c.384.762 1.083 2.004 1.636 2.941a.652.652 0 0 1-.231.884 45.856 45.856 0 0 1-7.733 3.268.657.657 0 0 1-.768-.221l-1.828-2.399a.65.65 0 0 1 .007-.803.65.65 0 0 1 .223-.18l7.788-3.764a.654.654 0 0 1 .513-.059.633.633 0 0 1 .393.333Z" fill="#fff"/><path d="M145.475 109.831c.768 2.865 1.966 6.011 3.426 12.952 1.344 5.828 2.304 16.075 2.611 25.095-3.948 3.49-17.073 2.896-30.244 2.286-.039-8.495-3.556-16.334-13.118-33.728a6.975 6.975 0 0 1-.539-6.021 7.005 7.005 0 0 1 1.71-2.593 7.099 7.099 0 0 1 2.669-1.61 73.61 73.61 0 0 1 3.633-1.112 98.73 98.73 0 0 1 13.425-3.047c1.49-.199 3.072-.351 4.531-.48a11.481 11.481 0 0 1 7.441 2.012 11.328 11.328 0 0 1 4.455 6.246Z" fill="#B21A1A"/><path opacity=".5" d="M145.475 109.831c.768 2.865 1.966 6.011 3.426 12.952 1.344 5.828 2.304 16.075 2.611 25.095-3.948 3.49-17.073 2.896-30.244 2.286-.039-8.495-3.556-16.334-13.118-33.728a6.975 6.975 0 0 1-.539-6.021 7.005 7.005 0 0 1 1.71-2.593 7.099 7.099 0 0 1 2.669-1.61 73.61 73.61 0 0 1 3.633-1.112 98.73 98.73 0 0 1 13.425-3.047c1.49-.199 3.072-.351 4.531-.48a11.481 11.481 0 0 1 7.441 2.012 11.328 11.328 0 0 1 4.455 6.246Z" fill="#fff"/><path d="m129.931 102.045-13.555 2.895s10.967 4.571 19.76 11.535c2.397-11.977-6.205-14.43-6.205-14.43Z" fill="#fff"/><path d="M113.143 89.878c2.15 4.023 5.376 11.55 3.233 15.047 0 0 12.234 3.504 18.762 9.073.876-9.005-5.207-11.953-5.207-11.953-5.161 0-6.252-3.703-6.42-7.162l-10.368-5.005Z" fill="#FFC3BD"/><path d="M124.639 106.075a44.056 44.056 0 0 1-8.309-.967.204.204 0 0 1-.069-.03.182.182 0 0 1-.052-.055.172.172 0 0 1-.027-.069.173.173 0 0 1 .002-.075.202.202 0 0 1 .23-.145c.077 0 7.319 1.608 11.52.655 1.344-.304 2.135-.761 2.304-1.455a2.203 2.203 0 0 0-.607-1.836.203.203 0 0 1-.043-.062.193.193 0 0 1 .043-.212.194.194 0 0 1 .269 0 2.554 2.554 0 0 1 .699 2.209c-.246.762-1.129 1.379-2.619 1.715a15.807 15.807 0 0 1-3.341.327Z" fill="#fff"/><path d="M130.1 106.182a.774.774 0 0 1-1.037-.145l-.422-.548a.755.755 0 0 1 .146-1.029.773.773 0 0 1 1.036.145l.423.556a.758.758 0 0 1-.146 1.021Z" fill="#B21A1A"/><path opacity=".2" d="m117.366 91.92 6.144 2.964c.028.812.131 1.62.308 2.415-1.92.152-5.061-1.242-5.837-3.048a6.636 6.636 0 0 1-.615-2.331Z" fill="#000"/><path d="M106.952 83.776c3.165 6.506 4.355 9.317 9.216 11.55 7.273 3.36 14.708-1.433 13.586-8.625-1.006-6.476-5.998-15.999-13.732-16.387a9.39 9.39 0 0 0-4.83.881 9.298 9.298 0 0 0-3.708 3.195 9.206 9.206 0 0 0-1.558 4.62 9.193 9.193 0 0 0 1.026 4.766Z" fill="#FFC3BD"/><path d="M109.733 74.328c3.433 4.838 3.256 12.777-.768 13.851-6.144-.945-7.481-2.522-7.481-2.522s1.966-14.924 8.249-11.329Z" fill="#263238"/><path d="M104.894 76.317c9.078 1.15 16.305-2.613 17.664-4.723-8.217-5.509-16.765-.823-17.664 4.723Z" fill="#263238"/><path d="M123.848 80.02a18.073 18.073 0 0 0 3.541 2.864c-.446.937-1.843 1.067-1.843 1.067l-1.698-3.931Z" fill="#ED847E"/><path d="M123.411 86.953c.331-.056.657-.137.975-.244a.162.162 0 0 0 .096-.09.15.15 0 0 0 .012-.066.148.148 0 0 0-.016-.065.193.193 0 0 0-.238-.107 5.114 5.114 0 0 1-4.37-.472.178.178 0 0 0-.246 0 .182.182 0 0 0 .047.244 5.363 5.363 0 0 0 3.74.8Z" fill="#263238"/><path d="M107.359 90.465a5.008 5.008 0 0 0 4.009.48c1.629-.564 1.152-2.53-.384-3.81-1.374-1.127-3.886-2.186-4.992-.944-1.106 1.241-.276 3.367 1.367 4.274Z" fill="#FFC3BD"/><path d="M110.255 90.86c-.444 0-.877.131-1.246.376a2.229 2.229 0 0 0-.826.998 2.21 2.21 0 0 0 .486 2.425 2.248 2.248 0 0 0 2.444.482c.41-.169.76-.454 1.006-.82.247-.365.378-.796.378-1.236a2.207 2.207 0 0 0-1.383-2.057 2.245 2.245 0 0 0-.859-.167Zm0 3.924c-.341 0-.674-.1-.957-.288a1.709 1.709 0 0 1-.73-1.754c.067-.331.232-.635.473-.874a1.725 1.725 0 0 1 1.877-.365c.315.13.583.35.771.632.188.282.288.613.286.95a1.679 1.679 0 0 1-.504 1.205 1.72 1.72 0 0 1-1.216.494Z" fill="#fff"/><path d="M115.254 79.51a.292.292 0 0 0 .146-.221 2.586 2.586 0 0 1 1.437-2.012.338.338 0 0 0 .183-.188.33.33 0 0 0-.014-.262.38.38 0 0 0-.484-.175 3.223 3.223 0 0 0-1.844 2.514.372.372 0 0 0 .182.347.38.38 0 0 0 .394-.004ZM126.16 75.471a.302.302 0 0 0 .23-.121.347.347 0 0 0-.084-.488 3.738 3.738 0 0 0-3.233-.762.32.32 0 0 0-.2.434.384.384 0 0 0 .461.229 2.992 2.992 0 0 1 2.557.602.326.326 0 0 0 .269.106ZM126.053 78.046c.192.564.053 1.12-.323 1.25-.376.13-.837-.236-1.037-.8-.199-.564-.054-1.128.323-1.25.376-.121.845.267 1.037.8ZM119.394 80.766c.2.564.054 1.12-.323 1.25-.376.13-.837-.236-1.036-.762-.2-.526-.054-1.128.322-1.25.376-.122.837.19 1.037.762Z" fill="#263238"/><path d="m118.035 80.294.63-1.341s.361 1.28-.63 1.34ZM124.647 77.658l.63-1.341s.362 1.272-.63 1.34Z" fill="#263238"/><path opacity=".5" d="m116.645 117.244-6.667 2.484c2.742 5.043 4.916 9.218 6.582 12.845a90.298 90.298 0 0 1 .085-15.329Z" fill="#B21A1A"/><path d="M158.37 295.58h8.763V170.323h-8.763V295.58Z" fill="#B21A1A"/><path opacity=".2" d="M158.378 170.331h8.762v21.065l-8.762-2.24v-18.825Z" fill="#000"/><path d="M209.611 185.926h-78.167v-14.521a19.82 19.82 0 0 1 5.875-14.072 20.147 20.147 0 0 1 14.185-5.828h38.047c5.32 0 10.422 2.097 14.184 5.828a19.821 19.821 0 0 1 5.876 14.072v14.521Z" fill="#B21A1A"/><path d="m137.212 162.125-1.298-1.836a2.65 2.65 0 0 0-2.135-1.112H129.8a4.937 4.937 0 0 0-2.254.522 4.9 4.9 0 0 0-1.762 1.489l-.576.762c1.943 3.2 6.413 5.226 6.413 5.226l1.213.724a2.183 2.183 0 0 0 1.662.288c.282-.063.549-.182.784-.35.236-.167.436-.379.588-.623l1.466-2.355c.249-.418.369-.9.347-1.385a2.51 2.51 0 0 0-.469-1.35Z" fill="#FFC3BD"/><path d="M119.102 115.362c-.2.419-.461 1.029-.683 1.524l-.684 1.691a71.396 71.396 0 0 0-1.252 3.436 63.127 63.127 0 0 0-1.897 6.964 48.99 48.99 0 0 0-.568 3.443 33.074 33.074 0 0 0-.2 3.314 13.451 13.451 0 0 0 .976 5.471l.292.609c.021.05.039.1.053.152a13.522 13.522 0 0 0 2.235 4.191 38.76 38.76 0 0 0 3.763 4.304 70.638 70.638 0 0 0 4.493 3.985c.768.64 1.598 1.257 2.412 1.859a52.742 52.742 0 0 0 2.434 1.706l-4.354 6.857c-1.045-.648-1.928-1.242-2.873-1.874a81.015 81.015 0 0 1-2.741-1.943 73.764 73.764 0 0 1-5.315-4.213 48.007 48.007 0 0 1-5.023-4.96 27.391 27.391 0 0 1-2.304-3.047 20.173 20.173 0 0 1-1.943-3.711l.346.762a22.603 22.603 0 0 1-2.78-9.66 48.032 48.032 0 0 1 .245-8.899 76.994 76.994 0 0 1 1.475-8.38c.307-1.366.65-2.727 1.029-4.084.184-.678.376-1.348.584-2.026.207-.678.407-1.318.691-2.126l11.589 4.655Z" fill="#B21A1A"/><path opacity=".5" d="M119.102 115.362c-.2.419-.461 1.029-.683 1.524l-.684 1.691a71.396 71.396 0 0 0-1.252 3.436 63.127 63.127 0 0 0-1.897 6.964 48.99 48.99 0 0 0-.568 3.443 33.074 33.074 0 0 0-.2 3.314 13.451 13.451 0 0 0 .976 5.471l.292.609c.021.05.039.1.053.152a13.522 13.522 0 0 0 2.235 4.191 38.76 38.76 0 0 0 3.763 4.304 70.638 70.638 0 0 0 4.493 3.985c.768.64 1.598 1.257 2.412 1.859a52.742 52.742 0 0 0 2.434 1.706l-4.354 6.857c-1.045-.648-1.928-1.242-2.873-1.874a81.015 81.015 0 0 1-2.741-1.943 73.764 73.764 0 0 1-5.315-4.213 48.007 48.007 0 0 1-5.023-4.96 27.391 27.391 0 0 1-2.304-3.047 20.173 20.173 0 0 1-1.943-3.711l.346.762a22.603 22.603 0 0 1-2.78-9.66 48.032 48.032 0 0 1 .245-8.899 76.994 76.994 0 0 1 1.475-8.38c.307-1.366.65-2.727 1.029-4.084.184-.678.376-1.348.584-2.026.207-.678.407-1.318.691-2.126l11.589 4.655Z" fill="#fff"/><path opacity=".1" d="M131.444 181.621h38.047v-9.591h-38.047v9.591Z" fill="#fff"/><path opacity=".2" d="M169.491 185.926v-14.521a19.82 19.82 0 0 1 5.875-14.072 20.143 20.143 0 0 1 14.185-5.828 20.14 20.14 0 0 1 14.184 5.828 19.821 19.821 0 0 1 5.876 14.072v14.521" fill="#000"/><path d="M169.491 188.478h54.896v-2.552h-54.896v2.552Z" fill="#B21A1A"/><path opacity=".2" d="M184.267 188.478h40.12v-2.552h-40.12v2.552Z" fill="#000"/><path d="M162.763 175.504h1.421v-33.621h-1.421v33.621Z" fill="#E0E0E0"/><path d="M154.668 148.412h9.938v-4.83a.638.638 0 0 0-.645-.64h-9.293l1.628 2.735-1.628 2.735ZM223.488 180.165a.387.387 0 0 1-.361-.512.392.392 0 0 1 .346-.249 68.446 68.446 0 0 0 5.376-.488.393.393 0 0 1 .43.328.375.375 0 0 1-.187.38.369.369 0 0 1-.144.046 63.07 63.07 0 0 1-5.445.488l-.015.007Zm10.752-1.409a.387.387 0 0 1-.426-.339.384.384 0 0 1 .342-.423 59.798 59.798 0 0 0 5.222-1.364.392.392 0 0 1 .309.007.375.375 0 0 1 .204.231.39.39 0 0 1 .016.156.397.397 0 0 1-.049.149.391.391 0 0 1-.25.181 60.623 60.623 0 0 1-5.291 1.387l-.077.015Zm10.33-3.291a.384.384 0 0 1-.162-.732 28.025 28.025 0 0 0 3.756-2.019l.914-.609c.084-.055.188-.075.287-.055.099.02.186.078.243.162a.366.366 0 0 1 .005.421.359.359 0 0 1-.105.104l-.922.61a28.676 28.676 0 0 1-3.84 2.08.425.425 0 0 1-.153.038h-.023Zm9.039-5.935a.404.404 0 0 1-.292-.13.386.386 0 0 1 .039-.541 32.445 32.445 0 0 0 3.77-3.809.395.395 0 0 1 .546-.046.372.372 0 0 1 .046.534 34.215 34.215 0 0 1-3.84 3.878.383.383 0 0 1-.246.114h-.023Zm6.827-8.304a.364.364 0 0 1-.176-.046.382.382 0 0 1-.169-.511c.251-.477.481-.965.691-1.462.474-1.137.86-2.309 1.152-3.505a.385.385 0 0 1 .178-.243.408.408 0 0 1 .298-.046.387.387 0 0 1 .292.472 23.756 23.756 0 0 1-1.19 3.619c-.215.51-.453 1.013-.715 1.523a.373.373 0 0 1-.337.199h-.024Zm2.665-10.377a.388.388 0 0 1-.361-.411 49.34 49.34 0 0 0 .108-3.345v-2.004a.374.374 0 0 1 .104-.276.38.38 0 0 1 .272-.12.376.376 0 0 1 .392.373v2.027c0 1.234-.038 2.347-.108 3.398a.374.374 0 0 1-.12.255.389.389 0 0 1-.264.103h-.023Zm-.145-10.78a.385.385 0 0 1-.384-.358c-.07-1.524-.139-3.215-.139-4.876v-.541a.358.358 0 0 1 .105-.275.363.363 0 0 1 .279-.099c.102 0 .2.041.272.112a.377.377 0 0 1 .112.269v.534c0 1.645.069 3.299.139 4.837a.367.367 0 0 1-.024.147.377.377 0 0 1-.345.25h-.015Zm32.832-4.693c-.699 0-1.383 0-2.036-.046a.39.39 0 0 1-.267-.122.38.38 0 0 1 .15-.617.392.392 0 0 1 .148-.023c.645 0 1.321.046 2.005.046a31.11 31.11 0 0 0 3.371-.168.392.392 0 0 1 .284.082.382.382 0 0 1-.199.68 32.81 32.81 0 0 1-3.433.168h-.023Zm-7.442-.389a215.133 215.133 0 0 1-5.422-.48.386.386 0 0 1-.332-.27.375.375 0 0 1-.014-.149.377.377 0 0 1 .272-.329.402.402 0 0 1 .15-.014c1.79.183 3.61.351 5.376.488a.382.382 0 1 1 0 .762l-.03-.008Zm16.128-1.089a.4.4 0 0 1-.354-.221.381.381 0 0 1 .192-.503 8.572 8.572 0 0 0 3.909-3.291.381.381 0 0 1 .238-.196.397.397 0 0 1 .306.041.382.382 0 0 1 .109.551 9.297 9.297 0 0 1-4.239 3.588.405.405 0 0 1-.161.031Zm-26.919 0h-.046a206.282 206.282 0 0 1-5.376-.762.392.392 0 0 1-.252-.151.374.374 0 0 1 .083-.531.395.395 0 0 1 .284-.073c1.782.275 3.587.534 5.376.762a.386.386 0 0 1 .361.404.386.386 0 0 1-.407.358l-.023-.007Zm-10.752-1.654h-.069c-1.774-.32-3.571-.67-5.338-1.036a.392.392 0 0 1-.249-.165.391.391 0 0 1-.058-.292.392.392 0 0 1 .461-.305c1.766.366 3.556.717 5.322 1.036a.397.397 0 0 1 .251.156.384.384 0 0 1 .064.286.387.387 0 0 1-.376.305l-.008.015Zm-10.637-2.209h-.092a211.524 211.524 0 0 1-5.276-1.31.41.41 0 0 1-.243-.179.383.383 0 0 1-.052-.145.376.376 0 0 1 .073-.291.386.386 0 0 1 .26-.155.4.4 0 0 1 .154.008c1.743.457 3.51.899 5.261 1.302a.405.405 0 0 1 .24.175c.054.086.073.19.052.29a.381.381 0 0 1-.135.207.382.382 0 0 1-.234.083l-.008.015Zm7.051-.716h-.062a.391.391 0 0 1-.322-.434 26.616 26.616 0 0 1 1.359-5.311.384.384 0 0 1 .722.259 25.72 25.72 0 0 0-1.306 5.151.385.385 0 0 1-.384.32l-.007.015Zm-17.565-2.034a.275.275 0 0 1-.107 0 189.437 189.437 0 0 1-5.207-1.577.376.376 0 0 1-.266-.332.388.388 0 0 1 .211-.37.392.392 0 0 1 .293-.022c1.713.541 3.456 1.074 5.184 1.569a.384.384 0 0 1 .261.473.376.376 0 0 1-.361.243l-.008.016Zm63.983-1.958a.393.393 0 0 1-.377-.313 7.97 7.97 0 0 0-2.718-4.274.378.378 0 0 1-.084-.411.365.365 0 0 1 .084-.122.377.377 0 0 1 .42-.083.374.374 0 0 1 .125.083 8.659 8.659 0 0 1 2.957 4.693.374.374 0 0 1-.056.286.382.382 0 0 1-.244.164l-.107-.023Zm-74.327-1.334a.36.36 0 0 1-.131 0 167.195 167.195 0 0 1-5.107-1.897.388.388 0 0 1-.215-.495.379.379 0 0 1 .351-.24.374.374 0 0 1 .148.027c1.628.64 3.341 1.272 5.076 1.889a.379.379 0 0 1 .238.48.389.389 0 0 1-.143.163.39.39 0 0 1-.21.058l-.007.015Zm-10.107-3.984a.363.363 0 0 1-.154 0c-1.69-.762-3.348-1.524-4.923-2.324a.37.37 0 0 1-.129-.088.371.371 0 0 1-.066-.435.386.386 0 0 1 .541-.155c1.536.762 3.21 1.524 4.892 2.286a.39.39 0 1 1-.161.762v-.046Zm41.871-.663a.417.417 0 0 1-.23-.069.378.378 0 0 1-.077-.533 14.781 14.781 0 0 1 3.648-3.504l.399-.252a.393.393 0 0 1 .427.014.375.375 0 0 1 .151.396.38.38 0 0 1-.171.238l-.376.236a14.095 14.095 0 0 0-3.464 3.322.402.402 0 0 1-.299.137l-.008.015Zm35.228-1.524a.407.407 0 0 1-.184-.045 73.978 73.978 0 0 0-1.874-.96 41.553 41.553 0 0 0-2.995-1.311.377.377 0 0 1-.272-.348.365.365 0 0 1 .111-.284.378.378 0 0 1 .285-.113.382.382 0 0 1 .152.037 38.74 38.74 0 0 1 3.072 1.341 66.55 66.55 0 0 1 1.897.967.39.39 0 0 1 .154.518.374.374 0 0 1-.338.183l-.008.015Zm-86.784-2.704a.343.343 0 0 1-.192-.054 71.296 71.296 0 0 1-4.608-2.864.381.381 0 0 1 .147-.666.394.394 0 0 1 .276.033 79.359 79.359 0 0 0 4.608 2.842.38.38 0 0 1-.192.709h-.039Zm76.685-1.196h-.092a39.19 39.19 0 0 0-5.307-.869.38.38 0 0 1-.346-.411.393.393 0 0 1 .423-.343c1.81.17 3.607.465 5.376.884a.387.387 0 0 1 .259.141.384.384 0 0 1-.344.62l.031-.022Zm-16.166-.244a.392.392 0 0 1-.377-.297.38.38 0 0 1 .284-.457 28.126 28.126 0 0 1 4.102-.648c.445 0 .898-.069 1.344-.091a.37.37 0 0 1 .373.211.383.383 0 0 1-.327.543c-.446 0-.884.061-1.321.099-1.343.11-2.675.319-3.986.625l-.092.015Zm-69.527-4.571a.388.388 0 0 1-.239-.077 65.337 65.337 0 0 1-4.154-3.519.403.403 0 0 1-.085-.124.39.39 0 0 1 0-.293.389.389 0 0 1 .357-.234c.102 0 .2.039.273.11a61.454 61.454 0 0 0 4.109 3.481.38.38 0 0 1 .061.534.372.372 0 0 1-.315.099l-.007.023Zm-7.926-7.352a.418.418 0 0 1-.16-.035.387.387 0 0 1-.132-.095 46.649 46.649 0 0 1-3.372-4.281.39.39 0 0 1-.063-.286.39.39 0 0 1 .156-.248.4.4 0 0 1 .537.1 45.329 45.329 0 0 0 3.364 4.19.379.379 0 0 1 0 .533.382.382 0 0 1-.15.086.376.376 0 0 1-.173.013l-.007.023Zm-6.144-8.86a.38.38 0 0 1-.338-.214 38.49 38.49 0 0 1-2.174-4.99.39.39 0 0 1 .238-.488.387.387 0 0 1 .484.236 37.566 37.566 0 0 0 2.135 4.9c.046.09.054.193.022.289a.382.382 0 0 1-.191.22.354.354 0 0 1-.176.023v.023Zm-3.51-10.18a.373.373 0 0 1-.376-.32 29.89 29.89 0 0 1-.2-1.218 29.392 29.392 0 0 1-.284-4.053v-.16a.379.379 0 0 1 .384-.381.384.384 0 0 1 .384.38v.153c-.001 1.32.091 2.64.276 3.947.062.403.123.8.192 1.196a.381.381 0 0 1-.307.442l-.069.015Zm.038-10.726h-.069a.384.384 0 0 1-.307-.442c.334-1.79.82-3.548 1.452-5.257a.393.393 0 0 1 .203-.213.404.404 0 0 1 .296-.016c.094.036.17.108.212.199a.376.376 0 0 1 .01.29 30.897 30.897 0 0 0-1.42 5.134.375.375 0 0 1-.415.305h.038Zm3.748-10.064a.456.456 0 0 1-.192-.054.388.388 0 0 1-.138-.525 29.782 29.782 0 0 1 3.187-4.442.387.387 0 0 1 .509-.005.377.377 0 0 1 .067.5 29.994 29.994 0 0 0-3.072 4.335.38.38 0 0 1-.384.19h.023Zm7.074-8.114a.384.384 0 0 1-.367-.486.385.385 0 0 1 .128-.192 28.829 28.829 0 0 1 4.647-2.918.39.39 0 0 1 .518.171.382.382 0 0 1-.173.514 28.48 28.48 0 0 0-4.523 2.835.38.38 0 0 1-.254.076h.024Zm47.17-4.747c-1.767-.48-3.653-.2-5.46-.48a.389.389 0 0 1-.331-.434.388.388 0 0 1 .438-.327c1.779.277 3.605 0 5.376.472.134.036.184.048.272.111a.38.38 0 0 1 0 .54.386.386 0 0 1-.272.11l-.023.008Zm-37.586-.198a.39.39 0 0 1-.44-.47.389.389 0 0 1 .317-.291 47.054 47.054 0 0 1 5.299-1.372.39.39 0 0 1 .291.058.393.393 0 0 1 .163.247.369.369 0 0 1-.054.285.365.365 0 0 1-.246.157c-1.763.35-3.504.8-5.215 1.348l-.115.038Zm26.819-1.196h-.069c-1.652-.305-3.518-.647-5.376-.906a.38.38 0 0 1-.323-.427.376.376 0 0 1 .43-.328c1.843.26 3.717.61 5.376.915a.381.381 0 0 1 .307.441.389.389 0 0 1-.345.328v-.023Zm-16.19-.983a.385.385 0 0 1-.407-.358.383.383 0 0 1 .361-.403c.976-.107 2.02-.206 3.072-.29a27.04 27.04 0 0 1 2.12-.084h.253a.392.392 0 0 1 .27.117.372.372 0 0 1 .08.125.368.368 0 0 1 .027.147.398.398 0 0 1-.384.373h-.246c-.707 0-1.398 0-2.066.076-1.06.084-2.089.183-3.072.297h-.008ZM217.974 180.18a50.137 50.137 0 0 1-2.696-.191.365.365 0 0 1-.26-.133.345.345 0 0 1-.071-.13c-.015-.048-.02-.098-.015-.148a.364.364 0 0 1 .265-.33.347.347 0 0 1 .15-.012c.868.084 1.759.144 2.665.183.102 0 .2.04.272.111a.377.377 0 0 1 0 .538.384.384 0 0 1-.272.112h-.038Z" fill="#B21A1A"/><g opacity=".6" fill="#fff"><path opacity=".6" d="M223.488 180.165a.387.387 0 0 1-.361-.512.392.392 0 0 1 .346-.249 68.446 68.446 0 0 0 5.376-.488.393.393 0 0 1 .43.328.375.375 0 0 1-.187.38.369.369 0 0 1-.144.046 63.07 63.07 0 0 1-5.445.488l-.015.007Zm10.752-1.409a.387.387 0 0 1-.426-.339.384.384 0 0 1 .342-.423 59.798 59.798 0 0 0 5.222-1.364.392.392 0 0 1 .309.007.375.375 0 0 1 .204.231.39.39 0 0 1 .016.156.397.397 0 0 1-.049.149.391.391 0 0 1-.25.181 60.623 60.623 0 0 1-5.291 1.387l-.077.015Zm10.33-3.291a.384.384 0 0 1-.162-.732 28.025 28.025 0 0 0 3.756-2.019l.914-.609c.084-.055.188-.075.287-.055.099.02.186.078.243.162a.366.366 0 0 1 .005.421.359.359 0 0 1-.105.104l-.922.61a28.676 28.676 0 0 1-3.84 2.08.425.425 0 0 1-.153.038h-.023Zm9.039-5.935a.404.404 0 0 1-.292-.13.386.386 0 0 1 .039-.541 32.445 32.445 0 0 0 3.77-3.809.395.395 0 0 1 .546-.046.372.372 0 0 1 .046.534 34.215 34.215 0 0 1-3.84 3.878.383.383 0 0 1-.246.114h-.023Zm6.827-8.304a.364.364 0 0 1-.176-.046.382.382 0 0 1-.169-.511c.251-.477.481-.965.691-1.462.474-1.137.86-2.309 1.152-3.505a.385.385 0 0 1 .178-.243.408.408 0 0 1 .298-.046.387.387 0 0 1 .292.472 23.756 23.756 0 0 1-1.19 3.619c-.215.51-.453 1.013-.715 1.523a.373.373 0 0 1-.337.199h-.024Zm2.665-10.377a.388.388 0 0 1-.361-.411 49.34 49.34 0 0 0 .108-3.345v-2.004a.374.374 0 0 1 .104-.276.38.38 0 0 1 .272-.12.376.376 0 0 1 .392.373v2.027c0 1.234-.038 2.347-.108 3.398a.374.374 0 0 1-.12.255.389.389 0 0 1-.264.103h-.023Zm-.145-10.78a.385.385 0 0 1-.384-.358c-.07-1.524-.139-3.215-.139-4.876v-.541a.358.358 0 0 1 .105-.275.363.363 0 0 1 .279-.099c.102 0 .2.041.272.112a.377.377 0 0 1 .112.269v.534c0 1.645.069 3.299.139 4.837a.367.367 0 0 1-.024.147.377.377 0 0 1-.345.25h-.015Zm32.832-4.693c-.699 0-1.383 0-2.036-.046a.39.39 0 0 1-.267-.122.38.38 0 0 1 .15-.617.392.392 0 0 1 .148-.023c.645 0 1.321.046 2.005.046a31.11 31.11 0 0 0 3.371-.168.392.392 0 0 1 .284.082.382.382 0 0 1-.199.68 32.81 32.81 0 0 1-3.433.168h-.023Zm-7.442-.389a215.133 215.133 0 0 1-5.422-.48.386.386 0 0 1-.332-.27.375.375 0 0 1-.014-.149.377.377 0 0 1 .272-.329.402.402 0 0 1 .15-.014c1.79.183 3.61.351 5.376.488a.382.382 0 1 1 0 .762l-.03-.008Zm16.128-1.089a.4.4 0 0 1-.354-.221.381.381 0 0 1 .192-.503 8.572 8.572 0 0 0 3.909-3.291.381.381 0 0 1 .238-.196.397.397 0 0 1 .306.041.382.382 0 0 1 .109.551 9.297 9.297 0 0 1-4.239 3.588.405.405 0 0 1-.161.031Zm-26.919 0h-.046a206.282 206.282 0 0 1-5.376-.762.392.392 0 0 1-.252-.151.374.374 0 0 1 .083-.531.395.395 0 0 1 .284-.073c1.782.275 3.587.534 5.376.762a.386.386 0 0 1 .361.404.386.386 0 0 1-.407.358l-.023-.007Zm-10.752-1.654h-.069c-1.774-.32-3.571-.67-5.338-1.036a.392.392 0 0 1-.249-.165.391.391 0 0 1-.058-.292.392.392 0 0 1 .461-.305c1.766.366 3.556.717 5.322 1.036a.397.397 0 0 1 .251.156.384.384 0 0 1 .064.286.387.387 0 0 1-.376.305l-.008.015Zm-10.637-2.209h-.092a211.524 211.524 0 0 1-5.276-1.31.41.41 0 0 1-.243-.179.383.383 0 0 1-.052-.145.376.376 0 0 1 .073-.291.386.386 0 0 1 .26-.155.4.4 0 0 1 .154.008c1.743.457 3.51.899 5.261 1.302a.405.405 0 0 1 .24.175c.054.086.073.19.052.29a.381.381 0 0 1-.135.207.382.382 0 0 1-.234.083l-.008.015Zm7.051-.716h-.062a.391.391 0 0 1-.322-.434 26.616 26.616 0 0 1 1.359-5.311.384.384 0 0 1 .722.259 25.72 25.72 0 0 0-1.306 5.151.385.385 0 0 1-.384.32l-.007.015Zm-17.565-2.034a.275.275 0 0 1-.107 0 189.437 189.437 0 0 1-5.207-1.577.376.376 0 0 1-.266-.332.388.388 0 0 1 .211-.37.392.392 0 0 1 .293-.022c1.713.541 3.456 1.074 5.184 1.569a.384.384 0 0 1 .261.473.376.376 0 0 1-.361.243l-.008.016Zm63.983-1.958a.393.393 0 0 1-.377-.313 7.97 7.97 0 0 0-2.718-4.274.378.378 0 0 1-.084-.411.365.365 0 0 1 .084-.122.377.377 0 0 1 .42-.083.374.374 0 0 1 .125.083 8.659 8.659 0 0 1 2.957 4.693.374.374 0 0 1-.056.286.382.382 0 0 1-.244.164l-.107-.023Zm-74.327-1.334a.36.36 0 0 1-.131 0 167.195 167.195 0 0 1-5.107-1.897.388.388 0 0 1-.215-.495.379.379 0 0 1 .351-.24.374.374 0 0 1 .148.027c1.628.64 3.341 1.272 5.076 1.889a.379.379 0 0 1 .238.48.389.389 0 0 1-.143.163.39.39 0 0 1-.21.058l-.007.015Zm-10.107-3.984a.363.363 0 0 1-.154 0c-1.69-.762-3.348-1.524-4.923-2.324a.37.37 0 0 1-.129-.088.371.371 0 0 1-.066-.435.386.386 0 0 1 .541-.155c1.536.762 3.21 1.524 4.892 2.286a.39.39 0 1 1-.161.762v-.046Zm41.871-.663a.417.417 0 0 1-.23-.069.378.378 0 0 1-.077-.533 14.781 14.781 0 0 1 3.648-3.504l.399-.252a.393.393 0 0 1 .427.014.375.375 0 0 1 .151.396.38.38 0 0 1-.171.238l-.376.236a14.095 14.095 0 0 0-3.464 3.322.402.402 0 0 1-.299.137l-.008.015Zm35.228-1.524a.407.407 0 0 1-.184-.045 73.978 73.978 0 0 0-1.874-.96 41.553 41.553 0 0 0-2.995-1.311.377.377 0 0 1-.272-.348.365.365 0 0 1 .111-.284.378.378 0 0 1 .285-.113.382.382 0 0 1 .152.037 38.74 38.74 0 0 1 3.072 1.341 66.55 66.55 0 0 1 1.897.967.39.39 0 0 1 .154.518.374.374 0 0 1-.338.183l-.008.015Zm-86.784-2.704a.343.343 0 0 1-.192-.054 71.296 71.296 0 0 1-4.608-2.864.381.381 0 0 1 .147-.666.394.394 0 0 1 .276.033 79.359 79.359 0 0 0 4.608 2.842.38.38 0 0 1-.192.709h-.039Zm76.685-1.196h-.092a39.19 39.19 0 0 0-5.307-.869.38.38 0 0 1-.346-.411.393.393 0 0 1 .423-.343c1.81.17 3.607.465 5.376.884a.387.387 0 0 1 .259.141.384.384 0 0 1-.344.62l.031-.022Zm-16.166-.244a.392.392 0 0 1-.377-.297.38.38 0 0 1 .284-.457 28.126 28.126 0 0 1 4.102-.648c.445 0 .898-.069 1.344-.091a.37.37 0 0 1 .373.211.383.383 0 0 1-.327.543c-.446 0-.884.061-1.321.099-1.343.11-2.675.319-3.986.625l-.092.015Zm-69.527-4.571a.388.388 0 0 1-.239-.077 65.337 65.337 0 0 1-4.154-3.519.403.403 0 0 1-.085-.124.39.39 0 0 1 0-.293.389.389 0 0 1 .357-.234c.102 0 .2.039.273.11a61.454 61.454 0 0 0 4.109 3.481.38.38 0 0 1 .061.534.372.372 0 0 1-.315.099l-.007.023Zm-7.926-7.352a.418.418 0 0 1-.16-.035.387.387 0 0 1-.132-.095 46.649 46.649 0 0 1-3.372-4.281.39.39 0 0 1-.063-.286.39.39 0 0 1 .156-.248.4.4 0 0 1 .537.1 45.329 45.329 0 0 0 3.364 4.19.379.379 0 0 1 0 .533.382.382 0 0 1-.15.086.376.376 0 0 1-.173.013l-.007.023Zm-6.144-8.86a.38.38 0 0 1-.338-.214 38.49 38.49 0 0 1-2.174-4.99.39.39 0 0 1 .238-.488.387.387 0 0 1 .484.236 37.566 37.566 0 0 0 2.135 4.9c.046.09.054.193.022.289a.382.382 0 0 1-.191.22.354.354 0 0 1-.176.023v.023Zm-3.51-10.18a.373.373 0 0 1-.376-.32 29.89 29.89 0 0 1-.2-1.218 29.392 29.392 0 0 1-.284-4.053v-.16a.379.379 0 0 1 .384-.381.384.384 0 0 1 .384.38v.153c-.001 1.32.091 2.64.276 3.947.062.403.123.8.192 1.196a.381.381 0 0 1-.307.442l-.069.015Zm.038-10.726h-.069a.384.384 0 0 1-.307-.442c.334-1.79.82-3.548 1.452-5.257a.393.393 0 0 1 .203-.213.404.404 0 0 1 .296-.016c.094.036.17.108.212.199a.376.376 0 0 1 .01.29 30.897 30.897 0 0 0-1.42 5.134.375.375 0 0 1-.415.305h.038Zm3.748-10.064a.456.456 0 0 1-.192-.054.388.388 0 0 1-.138-.525 29.782 29.782 0 0 1 3.187-4.442.387.387 0 0 1 .509-.005.377.377 0 0 1 .067.5 29.994 29.994 0 0 0-3.072 4.335.38.38 0 0 1-.384.19h.023Zm7.074-8.114a.384.384 0 0 1-.367-.486.385.385 0 0 1 .128-.192 28.829 28.829 0 0 1 4.647-2.918.39.39 0 0 1 .518.171.382.382 0 0 1-.173.514 28.48 28.48 0 0 0-4.523 2.835.38.38 0 0 1-.254.076h.024Zm47.17-4.747c-1.758-.48-3.653-.2-5.46-.48a.389.389 0 0 1-.331-.434.388.388 0 0 1 .438-.327c1.779.277 3.558 0 5.376.472.161.042.158.044.272.111a.38.38 0 0 1 0 .54.386.386 0 0 1-.272.11l-.023.008Zm-37.586-.198a.39.39 0 0 1-.44-.47.389.389 0 0 1 .317-.291 47.054 47.054 0 0 1 5.299-1.372.39.39 0 0 1 .291.058.393.393 0 0 1 .163.247.369.369 0 0 1-.054.285.365.365 0 0 1-.246.157c-1.763.35-3.504.8-5.215 1.348l-.115.038Zm26.819-1.196h-.069c-1.652-.305-3.518-.647-5.376-.906a.38.38 0 0 1-.323-.427.376.376 0 0 1 .43-.328c1.843.26 3.717.61 5.376.915a.381.381 0 0 1 .307.441.389.389 0 0 1-.345.328v-.023Zm-16.19-.983a.385.385 0 0 1-.407-.358.383.383 0 0 1 .361-.403c.976-.107 2.02-.206 3.072-.29a27.04 27.04 0 0 1 2.12-.084h.253a.392.392 0 0 1 .27.117.372.372 0 0 1 .08.125.368.368 0 0 1 .027.147.398.398 0 0 1-.384.373h-.246c-.707 0-1.398 0-2.066.076-1.06.084-2.089.183-3.072.297h-.008ZM217.974 180.18a50.137 50.137 0 0 1-2.696-.191.365.365 0 0 1-.26-.133.345.345 0 0 1-.071-.13c-.015-.048-.02-.098-.015-.148a.364.364 0 0 1 .265-.33.347.347 0 0 1 .15-.012c.868.084 1.759.144 2.665.183.102 0 .2.04.272.111a.377.377 0 0 1 0 .538.384.384 0 0 1-.272.112h-.038Z"/></g><path d="M252.079 49.405 331.88 60.78l10.708 10.7-90.509-22.075Z" fill="#EA8A8A"/><path d="M252.079 49.405 331.88 60.78l-3.704 15.472-76.097-26.847Z" fill="#B42121"/><path d="m327.153 32.493 4.631 21.49a2.146 2.146 0 0 1-.304 1.628c-.315.481-.81.82-1.376.94l-41.334 8.734a2.21 2.21 0 0 1-1.644-.302 2.17 2.17 0 0 1-.95-1.361l-4.635-21.49a2.152 2.152 0 0 1 .307-1.628c.315-.481.81-.82 1.377-.94l41.334-8.734a2.21 2.21 0 0 1 1.645.303c.486.313.827.803.949 1.364v-.004Z" fill="#EB4E4E"/><path opacity=".4" d="m327.153 32.493 4.631 21.49a2.146 2.146 0 0 1-.304 1.628c-.315.481-.81.82-1.376.94l-41.334 8.734a2.21 2.21 0 0 1-1.644-.302 2.17 2.17 0 0 1-.95-1.361l-4.635-21.49a2.152 2.152 0 0 1 .307-1.628c.315-.481.81-.82 1.377-.94l41.334-8.734a2.21 2.21 0 0 1 1.645.303c.486.313.827.803.949 1.364v-.004Z" fill="#B21A1A"/><path d="m325.891 31.18-13.81 16.786a8.912 8.912 0 0 1-5.042 3.052 8.982 8.982 0 0 1-5.862-.747l-19.529-9.74a2.18 2.18 0 0 1 1.334-.877l41.334-8.734a2.199 2.199 0 0 1 1.575.26Z" fill="#EB4E4E"/><path d="m252.079 49.405 65.82 15.49 10.277 11.357-76.097-26.847Z" fill="#EA8A8A"/><path d="m276.088 64.335-.176.299 7.324 4.248.177-.3-7.325-4.247ZM286.647 70.456l-.177.299 2.634 1.528.177-.3-2.634-1.527Z" fill="#D43939"/><path d="m252.079 49.405 65.82 15.49-12.794 15.267-53.026-30.757Z" fill="#EB4E4E"/><path d="M340.117 85.694a.703.703 0 0 1-.259-.049l-10.719-4.2a.687.687 0 0 1-.389-.898.693.693 0 0 1 .37-.38.707.707 0 0 1 .534-.012l10.722 4.2c.151.06.277.17.356.312a.692.692 0 0 1-.168.869.705.705 0 0 1-.447.158Z" fill="#D43939"/><path d="M339.483 79.608a.677.677 0 0 1-.256-.052l-5.758-2.27a.694.694 0 0 1-.249-1.13.695.695 0 0 1 .494-.21.713.713 0 0 1 .27.05l5.758 2.26a.695.695 0 0 1 .396.897.7.7 0 0 1-.655.455Z" fill="#EB4E4E"/><path d="M327.445 85.604a.743.743 0 0 1-.256-.049l-10.456-4.11a.704.704 0 0 1-.388-.369.694.694 0 0 1-.01-.533.7.7 0 0 1 .913-.388l10.456 4.097a.694.694 0 0 1 .43.775.692.692 0 0 1-.242.404.704.704 0 0 1-.447.159v.014Z" fill="#D43939"/></svg>