<svg width="375" height="234" fill="none" xmlns="http://www.w3.org/2000/svg"><path d="M17.265 51.857s-6.571 2.476.627 16.392c7.198 13.916 12.183 20.798 12.183 20.798s1.276 3.233-1.462 3.744c-2.738.511-8.773-.426-9.982 2.914-1.253 3.463 1.282 6.736 6.414 9.543 5.131 2.806 16.14 9.481 17.134 10.104.993.623 1.953 2.094.146 2.739-1.806.646-15.372 2.111-14.294 8.46 1.078 6.349 16.683 11.946 18.376 12.586 1.694.64 2.1 1.358 1.965 2.279-.136.92-4.742.988-8.581 1.56-3.84.573-8.192 1.898-7.26 5.519.931 3.62 10.162 11.187 32.608 13.298l10.45.298 5.645-8.769c10.958-19.563 9.925-31.436 7.452-34.243-2.472-2.806-6.035 0-8.683 2.807-2.647 2.807-5.312 6.563-6.153 6.175-.841-.387-1.203-1.151-.773-2.902.429-1.751 4.635-17.705 0-22.19-4.635-4.486-13.55 5.804-15.108 6.921-1.558 1.117-2.258-.561-2.19-1.684.067-1.123.796-13.938 1.349-19.754.553-5.816-.711-9.74-4.29-10.666-3.45-.898-6.092 4.575-8.068 6.529-1.976 1.953-3.952-.927-3.952-.927s-2.885-7.976-10.337-21.763c-7.452-13.787-13.357-9.672-13.357-9.672" fill="#F5F5F5"/><path d="M76.153 164.55c-5.431-10.15-14.786-28.338-22.893-43.915a7817.62 7817.62 0 0 0-20.865-39.84c-2.688-5.052-4.873-9.183-6.386-12.04a553.492 553.492 0 0 0-1.733-3.273c-.192-.37-.338-.652-.44-.86a3.124 3.124 0 0 1-.141-.291s.062.09.17.28l.468.837 1.79 3.25c1.546 2.807 3.76 6.916 6.475 11.99 5.436 10.144 12.82 24.218 20.933 39.79S70.96 154.26 76.34 164.432" fill="#E0E0E0"/><path d="M27.037 97.35c.25.044.496.112.734.202.463.146 1.13.376 1.942.668 1.632.595 3.867 1.465 6.317 2.47l6.25 2.599 1.897.774c.24.079.47.182.689.309a3.107 3.107 0 0 1-.729-.191 49.481 49.481 0 0 1-1.942-.679c-1.626-.606-3.85-1.51-6.3-2.515l-6.278-2.554-1.902-.763a3.31 3.31 0 0 1-.678-.32ZM45.571 103.71c-.079-.034 1.524-4.693 3.585-10.414 2.06-5.72 3.805-10.329 3.89-10.3.084.028-1.519 4.692-3.585 10.413-2.066 5.72-3.794 10.329-3.89 10.301ZM56.958 128.185a3.4 3.4 0 0 1 .423-.646l1.237-1.684c1.033-1.426 2.461-3.402 3.952-5.641 1.49-2.24 2.783-4.306 3.703-5.81l1.09-1.786c.123-.225.267-.439.429-.639a2.884 2.884 0 0 1-.322.701 56.525 56.525 0 0 1-1 1.836 94.628 94.628 0 0 1-3.63 5.877 102.158 102.158 0 0 1-4.042 5.614c-.564.69-.993 1.252-1.315 1.628-.155.201-.33.386-.525.55ZM38.892 126.108c.237-.031.476-.031.712 0l1.936.146c1.632.14 3.884.353 6.368.606 2.484.253 4.737.5 6.363.696l1.925.247c.238.018.473.063.7.135a3.133 3.133 0 0 1-.711 0l-1.937-.146c-1.631-.14-3.884-.354-6.374-.606-2.49-.253-4.73-.5-6.356-.696l-1.925-.247a2.98 2.98 0 0 1-.7-.135ZM46.17 148.978a5.11 5.11 0 0 1 .908 0l2.484.179c2.09.163 4.98.416 8.17.707 3.189.292 6.074.562 8.163.803l2.472.281c.305.021.608.07.904.146-.305.029-.61.029-.915 0l-2.484-.18c-2.089-.163-4.98-.415-8.169-.713-3.19-.297-6.075-.561-8.163-.802l-2.473-.276a5.046 5.046 0 0 1-.898-.145ZM68.729 150.914c.148-.291.32-.568.514-.831l1.484-2.195a304.61 304.61 0 0 0 4.793-7.297c1.818-2.869 3.388-5.547 4.517-7.478.564-.926.993-1.684 1.343-2.29.15-.287.324-.561.52-.82a4.797 4.797 0 0 1-.412.882 74.929 74.929 0 0 1-1.248 2.341 154.572 154.572 0 0 1-4.46 7.539 180.039 180.039 0 0 1-4.872 7.297 118.29 118.29 0 0 1-1.57 2.139 5.59 5.59 0 0 1-.61.713Z" fill="#E0E0E0"/><path d="M269.629 183.535c-15.062-9.785-19.002-28.691-18.951-45.796 0-2.851-.401-5.849.88-8.392 1.282-2.543 4.421-4.356 7.023-3.233 2.162.931 3.167 3.368 4.426 5.366a16.708 16.708 0 0 0 6.927 6.175c1.852.887 4.133 1.392 5.905.348 2.428-1.431 2.614-4.839 2.507-7.679l-.564-15.853c-.108-2.84-.209-5.731.598-8.454.807-2.723 2.682-5.282 5.374-6.119 2.693-.836 6.092.612 6.775 3.368.277 1.123.079 2.358.192 3.531.113 1.174.711 2.459 1.846 2.757 1.135.297 2.258-.562 3.088-1.404 2.857-2.953 4.737-6.702 6.492-10.43 1.756-3.727 3.45-7.539 6.019-10.744 2.568-3.206 6.21-5.799 10.274-6.175 4.065-.376 8.508 2.015 9.665 5.967 1.158 3.952-1.061 8.1-3.511 11.418a63.607 63.607 0 0 1-12.866 12.973c-.881.662-1.829 1.381-2.14 2.442-.564 1.909 1.299 3.733 3.196 4.294 2.145.64 4.448.348 6.678.562 2.23.213 4.675 1.122 5.584 3.16 1.259 2.863-1.084 5.973-3.422 8.039a54.58 54.58 0 0 1-15.858 9.767c-2.072.825-4.262 1.566-5.905 3.082-1.643 1.516-2.591 4.104-1.502 6.068 1.09 1.965 3.726 2.526 5.911 2.055 2.185-.472 4.116-1.723 6.21-2.571 3.873-1.594 8.943-1.482 11.562 1.807 1.722 2.167 1.959 5.244 1.208 7.91-.751 2.666-2.371 4.99-4.104 7.14-6.052 7.528-13.91 13.675-22.909 17.094-8.999 3.418-17.394 4.524-26.534 1.521" fill="#F5F5F5"/><path d="M273.745 172.683c2.258-8.701 5.532-18.031 9.292-27.675.949-2.41 1.89-4.788 2.823-7.134.932-2.336 1.852-4.654 2.891-6.872a126.547 126.547 0 0 1 6.712-12.349c2.326-3.834 4.675-7.388 6.893-10.666 2.219-3.278 4.364-6.343 6.43-9.032a101.063 101.063 0 0 1 10.682-11.951 101.335 101.335 0 0 1 3.212-2.942l.858-.741c.095-.087.197-.166.305-.236a2.4 2.4 0 0 1-.265.28l-.825.776c-.728.679-1.801 1.684-3.144 3.014a106.306 106.306 0 0 0-10.529 12.03c-2.038 2.694-4.155 5.737-6.362 9.049a300.776 300.776 0 0 0-6.843 10.699 129.127 129.127 0 0 0-6.661 12.35c-1.028 2.201-1.937 4.491-2.868 6.843-.932 2.352-1.858 4.721-2.823 7.129-3.754 9.639-7.034 18.94-9.31 27.608" fill="#E0E0E0"/><path d="M288.863 130.98a6.231 6.231 0 0 1-.316-1.201 73.735 73.735 0 0 1-.632-3.323c-.491-2.807-1.039-6.736-1.62-11.025-.582-4.289-1.186-8.196-1.722-10.991-.26-1.404-.486-2.532-.649-3.312a5.087 5.087 0 0 1-.198-1.224c.172.378.305.773.395 1.179.226.763.508 1.886.813 3.278.632 2.807 1.293 6.686 1.88 10.997s1.078 8.1 1.468 11.042c.188 1.332.344 2.455.468 3.368.085.398.123.805.113 1.212ZM325.328 123.009c-.478.117-.965.19-1.457.219-.937.112-2.297.269-3.951.511-3.348.466-7.949 1.269-12.985 2.374a185.889 185.889 0 0 0-12.793 3.284c-1.626.472-2.93.887-3.833 1.168a7.795 7.795 0 0 1-1.423.393 8.354 8.354 0 0 1 1.355-.59 69.288 69.288 0 0 1 3.788-1.33c3.224-1.055 7.74-2.318 12.793-3.441 4.312-.968 8.67-1.718 13.058-2.245a65.297 65.297 0 0 1 3.997-.349 7.814 7.814 0 0 1 1.451.006ZM274.157 171.998c-.11-.131-.2-.279-.265-.437l-.666-1.297a179.282 179.282 0 0 1-2.315-4.856c-1.903-4.12-4.347-9.897-6.955-16.279-2.609-6.383-5.002-12.21-6.814-16.364l-2.157-4.917-.565-1.342a2.052 2.052 0 0 1-.169-.483c.11.132.2.28.265.438.181.348.401.781.672 1.297.565 1.123 1.361 2.807 2.309 4.85 1.903 4.126 4.347 9.902 6.961 16.319 2.614 6.416 4.996 12.204 6.809 16.358l2.139 4.878.565 1.341c.087.155.149.321.186.494ZM322.404 154.872a2.019 2.019 0 0 1-.474.213l-1.4.517-5.166 1.841c-4.364 1.56-10.365 3.778-16.993 6.242-6.628 2.464-12.652 4.631-17.049 6.096-2.196.736-3.952 1.314-5.222 1.684l-1.434.422a2.015 2.015 0 0 1-.509.112c.15-.092.312-.164.48-.214l1.4-.516 5.166-1.841c4.358-1.555 10.36-3.778 16.987-6.237 6.628-2.459 12.658-4.631 17.05-6.096 2.196-.736 3.952-1.314 5.222-1.684l1.434-.421c.163-.062.334-.101.508-.118Z" fill="#E0E0E0"/><path d="M59.555 28.449c.452-3.29-4.212-5.996-7.723-6.276-1.694-.135-3.387.123-4.99-.427-3.433-1.19-4.805-5.614-8.153-7.006-2.506-1.05-5.391-.112-7.819 1.123-2.427 1.235-4.827 2.734-7.537 2.891-2.36.151-4.922-.719-6.989.427-1.535.858-2.343 2.616-3.76 3.66-1.417 1.044-3.195 1.229-4.917 1.324-1.722.096-3.5.107-5.08.826-1.581.718-2.863 2.357-2.536 4.041l59.504-.583Z" fill="#EBEBEB"/><path d="M292.844 58.577c.474-3.402-4.359-6.175-7.989-6.49-1.727-.14-3.528.124-5.165-.443-3.551-1.235-4.968-5.793-8.435-7.247-2.591-1.089-5.577-.123-8.09 1.123-2.512 1.246-4.99 2.84-7.802 3.02-2.439.157-5.081-.747-7.226.443-1.592.882-2.422 2.706-3.89 3.778-1.467 1.072-3.308 1.28-5.081 1.375-1.772.096-3.624.113-5.25.854-1.626.74-2.958 2.442-2.625 4.182l61.553-.595ZM365.287 73.514c.288-2.093-2.682-3.817-4.917-3.996-1.067-.085-2.174.078-3.185-.275-2.184-.758-3.059-3.565-5.193-4.463-1.592-.668-3.433-.073-4.98.701-1.547.775-3.071 1.752-4.804 1.859-1.502.095-3.133-.46-4.449.275-.976.56-1.49 1.684-2.393 2.324a5.752 5.752 0 0 1-3.134.864 8.762 8.762 0 0 0-3.229.522c-.999.455-1.829 1.505-1.62 2.577l37.904-.388Z" fill="#F5F5F5"/><path d="M349.269 30.387c.531-3.811-4.883-6.95-8.948-7.297-1.936-.157-3.952.14-5.792-.5-3.952-1.375-5.567-6.49-9.451-8.117-2.901-1.196-6.238-.107-9.061 1.297-2.822 1.403-5.594 3.183-8.739 3.368-2.738.174-5.708-.831-8.101.494-1.784.993-2.716 3.037-4.358 4.238-1.643 1.201-3.71 1.431-5.702 1.538-1.993.107-4.065.13-5.877.954-1.813.826-3.32 2.74-2.947 4.693l68.976-.668Z" fill="#EBEBEB"/><path d="M131.868 39.636c1.553-.662 3.213.747 4.059 2.2.847 1.455 1.53 3.212 3.077 3.885 1.203.523 2.586.225 3.901.276 4.037.157 7.164 3.62 8.977 7.213 1.129 2.245 1.953 4.822 1.202 7.208-.66 2.1-2.439 3.66-4.291 4.861a21.363 21.363 0 0 1-12.606 3.559 16.35 16.35 0 0 1-6.403-1.625 16.273 16.273 0 0 1-5.227-4.022c-2.173-2.65-3.33-6.001-3.833-9.38-.502-3.38-.389-6.815-.277-10.228" fill="#263238"/><path d="M149.335 57.33c-.028 0 0-.364-.068-.999a7.644 7.644 0 0 0-.75-2.593 8.397 8.397 0 0 0-2.546-3.054 10.672 10.672 0 0 0-4.517-1.892c-1.722-.308-3.438-.151-4.979-.477a7.92 7.92 0 0 1-3.642-1.875 12.43 12.43 0 0 1-2.258-2.677 1.424 1.424 0 0 1-.124-.23c.225.25.436.512.632.785a14.247 14.247 0 0 0 1.886 1.965 7.757 7.757 0 0 0 3.562 1.768c1.485.303 3.196.14 4.974.455 1.675.278 3.259.952 4.618 1.965a8.428 8.428 0 0 1 2.574 3.177 7.4 7.4 0 0 1 .678 2.672 5.17 5.17 0 0 1 0 .747c0 .09-.014.178-.04.264Z" fill="#455A64"/><path d="m165.047 49.993-5.945 22.129-12.07-12.911a31.556 31.556 0 0 0-18.743-5.053l-18.777-.87-10.365 3.71A38.428 38.428 0 0 0 92 60.452l-20.2 13.86c-4.273 3.07-7.785 5.417-8.609 10.104-1.084 6.175 2.06 13.097 8.604 14.242l28.572.343.88 17.963 44.91-4.154-1.202-27.108c9.168 7.023 13.476 9.756 20.374 8.42 2.298-.443 5.584-2.846 6.651-6.405 3.811-12.686 4.46-32.643 4.46-32.643l-11.393-5.08ZM94.614 81.75l2.608-.735.164.937-2.772-.202Z" fill="#E06363"/><path d="M71.371 98.669h3.675l10.038-.028h33.235l-.147.14c0-.326.034-.674.051-1.022.209-4.463.412-8.78.598-12.793l.13.152c-10.111-.938-18.777-2.386-24.958-3.166-3.094-.405-5.567-.674-7.26-.87l-1.943-.214-.502-.062-.17-.028h.176l.502.04 1.948.168c1.693.163 4.172.41 7.271.791 6.21.73 14.859 2.14 24.959 3.06h.135v.135c-.186 4.008-.384 8.33-.564 12.793 0 .348-.034.696-.051 1.016v.14h-.141l-33.235-.112-10.094-.073-2.727-.034h-.706a1.375 1.375 0 0 1-.22-.033ZM71.947 79.476a1.7 1.7 0 0 1 .457-.225c.43-.174.871-.319 1.321-.432a13.205 13.205 0 0 1 8.982.898c.42.199.823.428 1.209.685.149.084.286.188.406.309-.034.045-.638-.348-1.694-.808a14.55 14.55 0 0 0-8.852-.882c-1.135.242-1.812.505-1.829.455Z" fill="#263238"/><path d="M78.163 74.317c.436.165.85.384 1.23.651a22.877 22.877 0 0 1 2.704 1.976c.983.848 1.886 1.684 2.259 2.487.157.314.236.66.231 1.01a.738.738 0 0 1-.085.371 2.89 2.89 0 0 0-.327-1.285c-.618-.904-1.38-1.7-2.258-2.358a36.077 36.077 0 0 0-2.63-2.027 8.15 8.15 0 0 1-1.124-.825ZM97.606 82.058a11.307 11.307 0 0 1-.509-1.757c-.282-1.09-.654-2.6-1.129-4.25-.474-1.65-.937-3.132-1.326-4.187-.39-1.056-.65-1.684-.61-1.718.106.129.192.272.254.427.147.28.333.696.564 1.218a37.678 37.678 0 0 1 1.412 4.182 76.686 76.686 0 0 1 1.027 4.283c.155.591.26 1.194.317 1.802ZM145.536 98.276c-.079 0-.401-6.736-.722-15.061-.322-8.325-.514-15.078-.429-15.078.084 0 .406 6.736.722 15.067.316 8.33.514 15.072.429 15.072Z" fill="#263238"/><path opacity=".3" d="M144.627 71.23c.468 2.896 1.693 5.613 2.704 8.37 1.011 2.756 1.694 5.759 1.095 8.627l-3.387-2.7" fill="#000"/><path d="M162.049 84.012a1.834 1.834 0 0 1-.26-.421c-.152-.28-.344-.696-.564-1.218a26.694 26.694 0 0 1-2.083-8.59 16.145 16.145 0 0 1-.046-1.34 1.908 1.908 0 0 1 .046-.517c.108.601.182 1.209.22 1.819a34.662 34.662 0 0 0 2.038 8.549c.406 1.055.689 1.695.649 1.718Z" fill="#263238"/><path opacity=".3" d="m94.828 71.982.728 9.503 1.666-.471-2.394-9.032Z" fill="#000"/><path d="M143.6 71.926a.488.488 0 0 1-.147-.062l-.424-.202a12.449 12.449 0 0 0-1.665-.651 12.87 12.87 0 0 0-6.487-.326 13.694 13.694 0 0 0-4.177 1.684c-1.406.82-2.823 1.864-4.359 2.88a16.774 16.774 0 0 1-5.25 2.459 15.43 15.43 0 0 1-6.21.252 17.404 17.404 0 0 1-3.066-.83 15.776 15.776 0 0 1-2.749-1.398 14.829 14.829 0 0 1-2.315-1.87 21.16 21.16 0 0 1-1.857-2.144c-1.129-1.47-2.072-2.936-3.043-4.25a18.851 18.851 0 0 0-3.02-3.368 12.01 12.01 0 0 0-3.167-1.936 8.241 8.241 0 0 0-2.738-.612 7.378 7.378 0 0 0-2.371.337l.146-.062.44-.152c.198-.061.452-.106.746-.168a7.14 7.14 0 0 1 1.044-.067 7.941 7.941 0 0 1 2.79.56c1.177.47 2.273 1.122 3.245 1.932a18.37 18.37 0 0 1 3.077 3.368c.988 1.308 1.942 2.773 3.066 4.221a21.405 21.405 0 0 0 1.84 2.117c.69.68 1.447 1.292 2.258 1.824.853.542 1.757 1 2.699 1.37.976.365 1.986.636 3.015.808 2.029.336 4.106.254 6.102-.241a16.582 16.582 0 0 0 5.177-2.408c1.541-1 2.953-2.038 4.387-2.863a13.798 13.798 0 0 1 4.256-1.684 12.721 12.721 0 0 1 6.566.42c.569.191 1.122.426 1.654.702l.407.23.13.13ZM154.625 67.34c.054.225.075.458.062.69a9.658 9.658 0 0 1-.158 1.897 9.945 9.945 0 0 1-.897 2.678 17.246 17.246 0 0 1-1.863 2.908 13.826 13.826 0 0 1-4.901 3.895c-.573.273-1.168.5-1.778.68-.221.078-.45.128-.683.151 0-.056.948-.297 2.371-1.016a14.528 14.528 0 0 0 4.759-3.89 17.894 17.894 0 0 0 1.852-2.852c.426-.82.742-1.691.937-2.593.148-.843.248-1.694.299-2.549ZM161.456 94.133s-.079-.028-.214-.118a5.263 5.263 0 0 1-.565-.398 9.235 9.235 0 0 1-1.812-1.859 13.835 13.835 0 0 1-2.546-8.044c.059-2.849.552-5.673 1.462-8.375a60.83 60.83 0 0 1 .813-2.448c.095-.301.212-.596.35-.881a6.56 6.56 0 0 1-.237.915c-.187.634-.435 1.465-.729 2.47a30.13 30.13 0 0 0-1.366 8.32 14.119 14.119 0 0 0 2.405 7.942 12.696 12.696 0 0 0 2.439 2.476ZM174.768 68.99c-.176.12-.365.22-.564.297-.362.169-.887.399-1.553.646a14.254 14.254 0 0 1-5.47.92 9.234 9.234 0 0 1-5.205-1.852 6.364 6.364 0 0 1-1.186-1.196 2.004 2.004 0 0 1-.327-.522c.495.571 1.045 1.092 1.642 1.555a9.517 9.517 0 0 0 5.081 1.724 15.38 15.38 0 0 0 5.392-.825c1.366-.438 2.168-.792 2.19-.747ZM90.769 81.384c-.05 0-.277-.875-.802-2.245a25.348 25.348 0 0 0-6.373-9.504c-1.079-1.01-1.813-1.566-1.784-1.605.202.091.392.208.564.348.48.349.94.724 1.378 1.123a22.688 22.688 0 0 1 6.424 9.582c.195.552.361 1.114.497 1.684.056.201.088.409.096.617ZM97.363 82.35a1.122 1.122 0 0 1-.147.298 6.474 6.474 0 0 1-.536.797 8.794 8.794 0 0 1-2.744 2.245 16.315 16.315 0 0 1-4.99 1.623c-1.948.33-4.121.465-6.351.825a18.84 18.84 0 0 0-3.196.78c-.962.34-1.88.79-2.738 1.342a13.944 13.944 0 0 0-3.726 3.542 14.215 14.215 0 0 0-1.648 3.07c-.305.77-.401 1.219-.435 1.207.006-.11.027-.22.062-.325.067-.313.155-.62.265-.92a13.168 13.168 0 0 1 1.587-3.15 13.725 13.725 0 0 1 3.748-3.649c.871-.57 1.808-1.036 2.79-1.386 1.054-.361 2.138-.63 3.24-.803 2.258-.36 4.426-.483 6.357-.797a16.704 16.704 0 0 0 4.94-1.539 9.127 9.127 0 0 0 2.749-2.116c.53-.65.745-1.06.773-1.044ZM109.416 83.894c.09.178.156.366.197.561.148.512.26 1.033.333 1.56a14.78 14.78 0 0 1-1.106 8.017 14.166 14.166 0 0 1-1.129 2.088c-.29.449-.61.876-.96 1.28-.254.28-.395.432-.412.415-.017-.016.502-.662 1.197-1.802.399-.67.752-1.369 1.056-2.088.361-.88.65-1.79.863-2.717.2-.933.321-1.881.362-2.835.031-.777.004-1.556-.079-2.33-.147-1.335-.379-2.138-.322-2.15ZM144.599 92.404a15.885 15.885 0 0 0-3.794-1.078 16.372 16.372 0 0 0-3.952.158c.353-.183.735-.3 1.129-.349a9.354 9.354 0 0 1 5.601.663c.372.14.716.345 1.016.606Z" fill="#FAFAFA"/><path d="M170.929 36.066 165.25 50.09l10.687 4.76 2.743-11.923-7.751-6.86Z" fill="#FFBE9D"/><path d="m183.191 49.91-9.597-11.845c-1.936-2.661-5.019-6.944-5.16-7.298-.197-.561-.271-4.39-.181-5.36a30.362 30.362 0 0 0-.242-3.728l-7.904 2.98-1.688-6.062-1.084.337s-2.862 4.923-1.976 7.724c.886 2.801 4.629 4.07 5.555 4.637.926.567 4.443 2.071 8.412 8.027l.638.92 1.609 2.314 7.339 10.497a2.672 2.672 0 0 0 2.835 1.1 2.678 2.678 0 0 0 1.686-1.244 2.65 2.65 0 0 0 .261-2.072 2.657 2.657 0 0 0-.497-.945l-.006.017Z" fill="#455A64"/><path d="m164.341 23.037-2.066-5.793.745-.241s3.647 2.245 4.432 4.861l-3.111 1.173Z" fill="#455A64"/><path d="m162.134 30.688.09-.039.249-.112.931-.416 3.387-1.526-.084-.051c-.02.342-.02.685 0 1.027.006.387.091.769.248 1.123.39.662.864 1.314 1.349 2.01a287.25 287.25 0 0 0 3.207 4.417c.165.185.278.41.328.652a1.101 1.101 0 0 1-.332.957 1.095 1.095 0 0 1-.978.278 1.081 1.081 0 0 1-.565-.332c-.141-.174-.282-.381-.423-.561l-.83-1.123-2.862-3.84a3.384 3.384 0 0 0-.706-.684c-.248-.185-.491-.343-.717-.494a22.758 22.758 0 0 0-1.197-.713c-.333-.185-.598-.326-.773-.421l-.209-.101h-.074l.068.04.198.117.756.444c.333.196.729.437 1.18.735.226.151.469.314.706.5.261.187.492.415.683.673l2.823 3.857.824 1.122c.141.191.271.376.429.562a1.261 1.261 0 0 0 1.783.063 1.243 1.243 0 0 0 .379-1.09 1.576 1.576 0 0 0-.355-.72c-1.13-1.549-2.259-3.036-3.218-4.411-.48-.69-.966-1.348-1.344-1.988a2.803 2.803 0 0 1-.243-1.038 7.83 7.83 0 0 1 0-1.016v-.096l-.084.04-3.388 1.605-.903.438-.231.112h-.102Z" fill="#263238"/><path opacity=".3" d="m161.4 27.865 3.551-1.308-.023-1.976-3.585 1.358.057 1.926Z" fill="#000"/><path d="M164.172 24.463a3.623 3.623 0 0 0-.142 1.46c-.042.49.016.985.17 1.453.15-.47.198-.968.141-1.46a3.639 3.639 0 0 0-.169-1.453ZM163.094 24.856a3.569 3.569 0 0 0-.136 1.46c-.046.49.012.986.17 1.453.146-.472.192-.968.135-1.46a3.533 3.533 0 0 0-.169-1.453ZM162.066 25.108a3.587 3.587 0 0 0-.141 1.46c-.043.491.015.985.169 1.454a3.64 3.64 0 0 0 .142-1.46 3.657 3.657 0 0 0-.17-1.454Z" fill="#263238"/><path d="m165.617 49.185.384-2.745.26-7.297-.283-5.103s1.694.129 2.637 2.33c.942 2.2.959 5.563.959 5.563s7.17 2.806 4.641 9.542M175.321 38.054a2.755 2.755 0 0 0-.327-1.645 2.376 2.376 0 0 0-1.598-.988 4.591 4.591 0 0 0-1.75 0l1.349 1.87a27.121 27.121 0 0 0-.598 3.418c-.073.59-.068 1.325.446 1.628a1.135 1.135 0 0 0 1.321-.298c.302-.387.511-.839.61-1.319.282-.866.466-1.76.547-2.666Z" fill="#FFBE9D"/><path d="M177.348 40.215a2.842 2.842 0 0 0-.327-1.645 2.39 2.39 0 0 0-1.604-.988 4.536 4.536 0 0 0-1.744 0l1.344 1.87a27.892 27.892 0 0 0-.599 3.418c-.068.561-.068 1.325.452 1.628a1.134 1.134 0 0 0 1.321-.298c.301-.387.507-.839.604-1.319.284-.865.47-1.76.553-2.666Z" fill="#FFBE9D"/><path d="M179.465 42.348a2.796 2.796 0 0 0-.327-1.65 2.374 2.374 0 0 0-1.598-.988 4.828 4.828 0 0 0-1.75 0l1.349 1.869a26.761 26.761 0 0 0-.598 3.419c-.074.595-.068 1.324.446 1.633a1.133 1.133 0 0 0 1.321-.303c.299-.398.502-.859.593-1.347a12.16 12.16 0 0 0 .564-2.633Z" fill="#FFBE9D"/><path d="M175.175 36.734c.238.81.275 1.665.107 2.493a5.265 5.265 0 0 1-.796 2.363c-.085-.034.322-1.067.508-2.408.186-1.342.096-2.437.181-2.448ZM177.342 39.665a5.204 5.204 0 0 1-.897 4.204c-.079-.045.378-.91.615-2.066.237-1.156.192-2.133.282-2.138ZM168.739 36.734c.142.482.245.973.31 1.47.164.927.384 2.246.633 3.801l-.091-.112a7.72 7.72 0 0 1 2.836 1.732 7.666 7.666 0 0 1 1.839 2.759c.344.857.535 1.767.564 2.689a7.598 7.598 0 0 1-.175 1.841 2.282 2.282 0 0 1-.192.651c.121-.821.174-1.651.159-2.481a8.035 8.035 0 0 0-.61-2.6 7.635 7.635 0 0 0-1.841-2.682 7.546 7.546 0 0 0-2.676-1.64h-.079v-.078c-.225-1.555-.406-2.88-.525-3.817a10.79 10.79 0 0 1-.152-1.533Z" fill="#EB996E"/><path d="m167.994 21.662-.124.05-.362.135-1.332.494-4.381 1.684-4.375 1.684-1.332.494-.367.13c-.079.033-.125.044-.125.039l.119-.056.356-.152 1.315-.561c1.129-.444 2.659-1.05 4.364-1.684 1.705-.635 3.263-1.23 4.398-1.628a52.472 52.472 0 0 1 1.343-.455l.367-.118a.452.452 0 0 1 .136-.056Z" fill="#263238"/><path d="M118.963 86.981s7.034-1.914 8.236-1.96c.921-.027 6.256.871 8.711 1.292a1.772 1.772 0 0 1 1.508 1.97 1.625 1.625 0 0 1-.045.169 1.618 1.618 0 0 1-1.355 1.033 1.867 1.867 0 0 1 1.027 1.942c-.192 1.38-1.914 1.42-1.914 1.42s.085.09.203.247a1.673 1.673 0 0 1-.413 2.345 1.7 1.7 0 0 1-.823.3l-.785.055a1.651 1.651 0 0 1 .802 1.527c-.305 1.813-4.471 1.538-4.471 1.538l-11.19-.213.509-11.665Z" fill="#FFBE9D"/><path d="M135.295 84.023c-.136.561-.474 1.847-1.586 2.245l-5.646-1.077s4.443-.809 5.149-1.438a4.98 4.98 0 0 1 .931-.662.817.817 0 0 1 1.141.473.805.805 0 0 1 .011.459Z" fill="#FFBE9D"/><path d="M130.75 85.56c0 .096 1.13.382 2.558.562 1.428.18 2.591.314 2.608.207.017-.106-1.129-.381-2.557-.56-1.429-.18-2.592-.31-2.609-.208ZM131.541 88.895c0 .096.949.421 2.196.561 1.248.14 2.258.05 2.258-.05 0-.101-.999-.174-2.224-.314s-2.207-.298-2.23-.197ZM128.718 88.059c-.09.039-.028.364.26.617.288.252.615.275.643.18.029-.096-.175-.259-.395-.455-.22-.197-.412-.387-.508-.342ZM130.35 92.37c0 .101 1.078.314 2.422.471 1.343.157 2.455.208 2.472.107.017-.101-1.072-.309-2.427-.471-1.355-.163-2.439-.208-2.467-.107ZM127.363 90.377c-.045 0-.146.079-.208.298a1.16 1.16 0 0 0 .118.859c.147.267.392.468.683.56.215.057.356.001.361-.027.006-.028-.462-.236-.722-.702-.26-.466-.136-.954-.232-.988ZM128.978 95.733c0 .1.993.213 2.218.247 1.225.033 2.225 0 2.225-.118s-.988-.213-2.213-.247-2.225.017-2.23.118ZM126.093 93.482c-.045 0-.136.095-.164.314-.021.284.044.567.186.814.339.561.779.814.841.752.063-.061-.237-.46-.519-.932-.282-.471-.254-.92-.344-.948Z" fill="#EB996E"/><path d="M96.968 31.671c-.226-1.802-2.213-3.065-4.014-2.807a4.888 4.888 0 0 0-2.384 1.234 4.845 4.845 0 0 0-1.365 2.303 7.785 7.785 0 0 0 .565 5.288c.564 1.302 1.558 2.588 2.964 2.874a3.865 3.865 0 0 0 3.494-1.387 11.207 11.207 0 0 0 1.863-3.435l-1.123-4.07Z" fill="#263238"/><path d="M99.26 31.278a1.435 1.435 0 0 0-1.807.399 3.041 3.041 0 0 0-.564 1.891 7.615 7.615 0 0 0 .632 3.262 1.166 1.166 0 0 0 .644.735.845.845 0 0 0 .858-.314 2.06 2.06 0 0 0 .378-.882c.452-1.875.356-3.84-.276-5.664M131.247 22.61c3.173-1.543 4.996-3.143 4.731-4.45-.265-1.309-6.65-3.335-8.146-3.886-3.529-1.302-6.865 1.797-12.421 2.908-10.822 2.162-19.155 6.102-18.63 8.802.26 1.303 2.54 2.077 6.041 2.29" fill="#E06363"/><path opacity=".4" d="M129.356 22.891c2.823-1.37 4.516-2.806 4.195-3.93-.859-3.176-8.649-2.806-18.247-.864-9.597 1.943-16.976 5.39-16.49 7.797.231 1.157 2.258 1.842 5.352 2.033" fill="#000"/><path d="M104.183 26.916a13.417 13.417 0 0 1 2.333-10.219 13.518 13.518 0 0 1 3.94-3.637 13.595 13.595 0 0 1 5.052-1.828c7.164-1.061 13.842 3.93 15.305 10.974 1.281 6.175 2.433 12.435 2.529 14.72.282 6.893-3.63 9.79-5.228 10.665a9.018 9.018 0 0 1-1.801.561.046.046 0 0 0-.017.008.04.04 0 0 0-.012.013.051.051 0 0 0-.006.017.055.055 0 0 0 .001.018l1.965 7.826c.977 5.147-1.694 9.919-6.848 10.952-5.154 1.033-9.473-2.728-10.552-7.86l-6.661-32.21Z" fill="#FFBE9D"/><path d="M128.695 26.5a1.128 1.128 0 0 1-.824 1.297 1.064 1.064 0 0 1-1.127-.373 1.05 1.05 0 0 1-.183-.373 1.128 1.128 0 0 1 .824-1.297 1.064 1.064 0 0 1 1.127.373c.086.111.148.238.183.374ZM129.316 24.165c-.107.163-1.05-.275-2.213-.04-1.163.237-1.897.983-2.049.871-.152-.112 0-.331.327-.674a3 3 0 0 1 1.609-.87 2.93 2.93 0 0 1 1.796.202c.434.203.581.433.53.511ZM117.258 28.786a1.128 1.128 0 0 1-.824 1.297 1.07 1.07 0 0 1-.823-.095 1.057 1.057 0 0 1-.504-.652 1.128 1.128 0 0 1 .824-1.297 1.06 1.06 0 0 1 1.327.747ZM117.929 26.663c-.101.169-1.044-.27-2.207-.039-1.163.23-1.897.988-2.055.87-.073-.05 0-.331.327-.674.436-.445.997-.749 1.609-.87a2.925 2.925 0 0 1 1.796.208c.401.202.576.427.53.505ZM123.88 34.399a7.921 7.921 0 0 1 1.818-.713c.293-.09.564-.208.564-.416a1.539 1.539 0 0 0-.372-.836l-1.338-2.077c-1.863-2.958-3.28-5.417-3.162-5.49.119-.073 1.733 2.245 3.602 5.226l1.298 2.094c.258.318.396.715.39 1.123a.732.732 0 0 1-.401.527c-.155.08-.32.139-.491.174a7.58 7.58 0 0 1-1.908.388Z" fill="#263238"/><path d="M126.268 48.169s-4.421 1.263-10.727-.977c0 0 2.97 5.552 11.246 3.082l-.519-2.105ZM123.948 37.29a2.149 2.149 0 0 0-2.038-.399 1.937 1.937 0 0 0-1.175.966 1.219 1.219 0 0 0-.131.728c.034.25.145.485.318.67a1.424 1.424 0 0 0 1.597.078c.513-.3.959-.7 1.31-1.178a1.21 1.21 0 0 0 .265-.41.391.391 0 0 0-.09-.427" fill="#EB996E"/><path d="M120.617 35.886c.186-.05.44 1.207 1.694 1.881 1.253.674 2.58.27 2.625.444.034.072-.249.303-.813.432a3.227 3.227 0 0 1-2.179-.298 2.814 2.814 0 0 1-1.35-1.594c-.146-.517-.067-.853.023-.864ZM117.619 22.93c-.051.338-1.242.422-2.574.86-1.333.438-2.366 1.027-2.603.78-.107-.118.028-.455.412-.848a4.701 4.701 0 0 1 3.952-1.246c.559.101.83.298.813.455ZM128.289 21.269c-.152.303-1.011.19-1.976.37-.965.18-1.744.562-1.993.292-.107-.118-.034-.404.277-.724a2.917 2.917 0 0 1 3.19-.561c.395.224.564.477.502.623Z" fill="#263238"/><path d="M120.543 15.846a7.519 7.519 0 0 1-1.937 2.663 7.575 7.575 0 0 1-2.895 1.587c-1.406.398-3.077.471-3.952 1.622-.649.842-.649 1.987-.796 3.037-.231 1.6.175 3.441-1.05 4.49-.96.826-1.863.803-2.45 1.92-.587 1.118-.474 2.695-.232 4.003.243 1.308.565 3.368-.513 4.199-1.005-4.738-3.58-9.807-4.579-14.545a5.77 5.77 0 0 1-.181-2.144c.283-1.606 1.83-2.65 3.292-3.368 4.149-2.066 8.722-3.127 13.238-4.171" fill="#263238"/><path d="M133.025 17.428s-5.115-10.896-5.47-11.406c-.356-.511-4.646-4.867-12.782-4.738l-6.486 1.297s-8.615 4.788-9.846 7.348c-1.23 2.56.237 13.54.237 13.54l17.394-7.562 12.984.528 3.969.993Z" fill="#E06363"/><path d="m112.385.398 1.79-.36a1.874 1.874 0 0 1 1.908.758 5.69 5.69 0 0 1 .779 1.735c.537 1.981 3.772 15.645 3.772 15.645l-8.209 1.252-3.167-17.037-2.62 1.156-.05-.505a1.504 1.504 0 0 1 .175-.887 1.49 1.49 0 0 1 .993-.735l4.629-1.022Z" fill="#E06363"/><path d="m130.976 19.03-1.66-3.801-13.509-1.404-14.379 7.528.903 4.491s11.827-7.696 28.645-6.815Z" fill="#455A64"/><path d="m127.832 14.274.643.41 4.934 2.33s-8.914-1.123-17.647.707c-8.734 1.83-18.156 6.781-18.156 6.781l5.081-4.625a10.177 10.177 0 0 1 2.77-2.935 10.246 10.246 0 0 1 3.699-1.635l10.947-2.408a10.217 10.217 0 0 1 7.729 1.375Z" fill="#E06363"/><path d="M132.19 17.424s-.102-.079-.322-.186a5.134 5.134 0 0 0-.994-.376 16.11 16.11 0 0 0-3.861-.527 41.905 41.905 0 0 0-12.674 1.762c-2.405.663-4.714 1.246-6.775 1.97a52.35 52.35 0 0 0-5.301 2.246c-.734.365-1.383.735-1.936 1.083-.508.27-.945.655-1.276 1.123-.2.314-.276.69-.215 1.056.057.247.153.348.164.342a1.485 1.485 0 0 1 .214-1.297 3.619 3.619 0 0 1 1.259-.971 27.68 27.68 0 0 1 1.948-1.01 62.82 62.82 0 0 1 5.296-2.15c2.015-.708 4.341-1.263 6.774-1.926a45.478 45.478 0 0 1 12.539-1.886c1.281-.011 2.56.111 3.816.365.87.19 1.316.432 1.344.382ZM130.914 18.905c1.564 3.475 7.018 8.42 1.79 13.22 0 0-1.648-7.858-2.913-10.794a6.345 6.345 0 0 0-1.513-2.364M104.104 25.406a7.061 7.061 0 0 0-4.414 2.825 6.986 6.986 0 0 0-1.232 5.073c.175.927.565 1.842.446 2.807-.118.966-.61 1.724-.841 2.616-.457 1.763-.565 4.665.062 6.388 1.434 4.098 6.662 9.15 11.398 8.207" fill="#263238"/><path d="M107.609 49.926a3.13 3.13 0 0 0 2.761-.825 5.699 5.699 0 0 0 1.462-2.565 9.94 9.94 0 0 0 .189-4.74 9.968 9.968 0 0 0-2.029-4.293 14.607 14.607 0 0 0 1.843-6.91 14.6 14.6 0 0 0-1.663-6.955l-6.639 1.953 4.076 24.335Z" fill="#263238"/><path d="M97.041 35.707a2.913 2.913 0 0 1-1.05.937c-.994.614-2.17.87-3.33.724a5.018 5.018 0 0 1-3.055-1.504 2.068 2.068 0 0 1-.65-1.252c.214.408.482.786.797 1.123a5.27 5.27 0 0 0 2.941 1.358 5.355 5.355 0 0 0 3.19-.617c.745-.416 1.118-.809 1.157-.77Z" fill="#455A64"/><path d="M96.533 34.82a2.834 2.834 0 0 1-1.169.416 6.022 6.022 0 0 1-3-.174 5.994 5.994 0 0 1-2.538-1.6 2.85 2.85 0 0 1-.7-1.022c.04 0 .305.365.847.876a6.528 6.528 0 0 0 5.358 1.718c.739-.102 1.185-.259 1.202-.214ZM110.946 25.456c.018.222.005.445-.039.663a8.96 8.96 0 0 1-.424 1.768 9.93 9.93 0 0 1-3.52 4.795 10.025 10.025 0 0 1-5.642 1.941 8.866 8.866 0 0 1-1.824-.117 2.314 2.314 0 0 1-.65-.163c.819.077 1.641.102 2.462.073a10.246 10.246 0 0 0 5.478-1.966 10.155 10.155 0 0 0 3.504-4.625 20.7 20.7 0 0 0 .655-2.369ZM111.155 35.353s-.096.158-.328.388c-.339.326-.719.61-1.129.842a8.805 8.805 0 0 1-4.443 1.123 17.76 17.76 0 0 1-4.516-.697 25.36 25.36 0 0 1-1.327-.398 1.83 1.83 0 0 1-.474-.185c.625.087 1.243.214 1.852.381 1.467.364 2.97.567 4.482.607a9.348 9.348 0 0 0 4.341-1.005 14.691 14.691 0 0 0 1.542-1.056Z" fill="#455A64"/><path d="M133.314 16.295a1.81 1.81 0 0 1-.396-.112l-1.095-.393-4.025-1.437-1.039-.926a6.355 6.355 0 0 0-1.163-.91 3.792 3.792 0 0 0-1.485-.454 6.67 6.67 0 0 0-1.693.157c-2.304.382-4.827.915-7.458 1.521a230.053 230.053 0 0 0-6.916 1.684 4.745 4.745 0 0 0-1.473.562c-.417.248-.778.579-1.062.97-.525.815-.987 1.634-1.428 2.358l-3.912 2.875-1.078.774c-.121.095-.25.18-.384.253.106-.112.223-.214.35-.303l1.038-.82 3.794-2.936v.034c.441-.741.875-1.544 1.417-2.397.3-.428.684-.79 1.129-1.067.479-.27 1-.46 1.542-.561a221.928 221.928 0 0 1 6.921-1.684c2.631-.606 5.16-1.123 7.48-1.51a6.659 6.659 0 0 1 1.733-.14 3.97 3.97 0 0 1 1.581.494c.436.269.838.59 1.197.954l1.022.937h-.034l3.997 1.522 1.078.426c.124.035.244.078.362.13Z" fill="#263238"/><path d="M111.482 14.409a2.666 2.666 0 0 1-.158-.561 82.978 82.978 0 0 1-.333-1.539 414.202 414.202 0 0 1-.988-5.052c-.175-.993-.35-1.936-.508-2.806-.073-.427-.141-.837-.209-1.224a.518.518 0 0 0-.235-.364.524.524 0 0 0-.431-.063l-1.451.561a1.89 1.89 0 0 1-.564.18c.157-.113.328-.208.508-.28.338-.169.807-.4 1.434-.68a.747.747 0 0 1 .965.562c.079.387.158.797.243 1.223.164.865.339 1.808.53 2.807.367 1.987.684 3.79.898 5.097.107.651.192 1.185.243 1.55.049.192.068.39.056.589ZM119.324 12.675a7.69 7.69 0 0 1-.593-1.623c-.311-1.021-.666-2.447-1.044-4.025-.379-1.577-.7-3.014-.921-4.053a9.713 9.713 0 0 1-.293-1.684c.213.547.379 1.11.497 1.684a195.31 195.31 0 0 1 1.004 4.03c.379 1.578.695 2.92.96 4.043.163.534.293 1.078.39 1.628ZM133.172 35.235a9.13 9.13 0 0 0 3.354-.797 7.19 7.19 0 0 0 2.896-2.245 5.375 5.375 0 0 0 .711-4.311 5.645 5.645 0 0 0-2.551-3.582 35.857 35.857 0 0 0-3.456-1.499 5.88 5.88 0 0 1-2.083-1.504 3.205 3.205 0 0 1-.389-.562c-.068-.14-.102-.218-.091-.224.175.255.363.5.565.735a6.215 6.215 0 0 0 2.094 1.37c1.199.417 2.372.904 3.512 1.46a5.833 5.833 0 0 1 2.693 3.744 5.597 5.597 0 0 1-.774 4.536 7.238 7.238 0 0 1-3.031 2.295 7.942 7.942 0 0 1-2.496.63 4.896 4.896 0 0 1-.7 0 .654.654 0 0 1-.254-.046ZM90.916 33.001s-.051 0-.13-.095a2.475 2.475 0 0 1-.31-.337 3.492 3.492 0 0 1-.638-1.544c-.138-.84.02-1.703.446-2.442a3.677 3.677 0 0 1 2.549-1.638 3.707 3.707 0 0 1 2.921.819 3.704 3.704 0 0 1 1.157 2.195 3.545 3.545 0 0 1-.152 1.684c-.05.143-.116.28-.198.41-.05.09-.084.134-.09.129-.006-.006.079-.203.175-.562a3.757 3.757 0 0 0 .062-1.6 3.57 3.57 0 0 0-1.129-2.026 3.48 3.48 0 0 0-2.709-.738 3.485 3.485 0 0 0-2.372 1.496 3.593 3.593 0 0 0-.474 2.245c.067.534.248 1.047.53 1.505.226.325.379.477.362.5ZM108.485 52.39a.776.776 0 0 1-.238.084c-.158.051-.389.107-.694.18-.86.203-1.737.333-2.619.387a8.61 8.61 0 0 1-3.879-.595 7.469 7.469 0 0 1-3.489-3.267 9.685 9.685 0 0 1-1.18-4.63c.002-1.31.192-2.613.565-3.869.248-.84.558-1.662.926-2.458.13-.281.237-.5.316-.64a.973.973 0 0 1 .13-.214 7.706 7.706 0 0 1-.34.899 21.785 21.785 0 0 0-.829 2.47c-.347 1.239-.52 2.52-.514 3.805a9.5 9.5 0 0 0 1.169 4.491 7.238 7.238 0 0 0 3.336 3.16 8.68 8.68 0 0 0 3.8.646 18.453 18.453 0 0 0 2.602-.291c.309-.073.622-.126.938-.158Z" fill="#263238"/><path d="M96.437 38.53a.794.794 0 0 1-.068.264c-.089.253-.21.492-.36.713a4.251 4.251 0 0 1-2.366 1.684 4.223 4.223 0 0 1-2.033.09 5.042 5.042 0 0 1-2.123-.988 5.698 5.698 0 0 1-1.614-2.004 6.363 6.363 0 0 1-.599-2.694 7.708 7.708 0 0 1 1.762-4.935 4.916 4.916 0 0 1 1.682-1.39 4.946 4.946 0 0 1 2.123-.53c1-.005 1.965.373 2.693 1.056.27.238.477.539.604.876a5.206 5.206 0 0 0-.678-.792 3.908 3.908 0 0 0-2.62-.932 4.758 4.758 0 0 0-3.595 1.88 7.534 7.534 0 0 0-1.694 4.767c0 .887.193 1.764.565 2.57.358.746.878 1.401 1.524 1.92a4.94 4.94 0 0 0 1.998.96c.641.135 1.305.116 1.937-.056a4.28 4.28 0 0 0 2.326-1.538c.203-.292.383-.6.536-.92Z" fill="#263238"/><path d="M257.802 99.202H74.07c-4.543 0-8.226 3.662-8.226 8.179v115.274c0 4.517 3.683 8.179 8.226 8.179h183.732c4.543 0 8.226-3.662 8.226-8.179V107.381c0-4.517-3.683-8.18-8.226-8.18Z" fill="#455A64"/><path d="M58.02 222.335h216.882v1.527a9.963 9.963 0 0 1-2.943 7.066 10.08 10.08 0 0 1-7.106 2.926H68.068a10.081 10.081 0 0 1-7.105-2.926 9.965 9.965 0 0 1-2.944-7.066v-1.527Z" fill="#455A64"/><path d="M260.094 104.434H71.219v111.159h188.875V104.434ZM146.202 221.1l2.693 4.255h37.87l2.501-4.255h-43.064Z" fill="#263238"/><path d="M254.748 108.195H76.954c-1.02 0-1.846.822-1.846 1.836v103.368a1.84 1.84 0 0 0 1.846 1.835h177.794a1.841 1.841 0 0 0 1.846-1.835V110.031a1.841 1.841 0 0 0-1.846-1.836Z" fill="#EBEBEB"/><path d="M256.396 215.397H74.916l.192-99.197h181.288v99.197Z" fill="#FAFAFA"/><path d="M89.99 112.343a1.446 1.446 0 0 1-1.736 1.415 1.449 1.449 0 0 1-1.138-1.137 1.436 1.436 0 0 1 .621-1.48 1.456 1.456 0 0 1 1.362-.13 1.437 1.437 0 0 1 .89 1.332ZM81.233 112.343a1.446 1.446 0 0 1-1.736 1.415 1.449 1.449 0 0 1-1.138-1.137 1.436 1.436 0 0 1 .622-1.48 1.456 1.456 0 0 1 1.362-.13 1.436 1.436 0 0 1 .89 1.332ZM85.423 112.343a1.446 1.446 0 0 1-1.736 1.415 1.449 1.449 0 0 1-1.139-1.137 1.436 1.436 0 0 1 .622-1.48 1.456 1.456 0 0 1 1.83.184c.27.271.423.637.423 1.018ZM264.306 221.1c0 .073-44.43.129-99.225.129-54.795 0-99.237-.056-99.237-.129 0-.073 44.425-.129 99.237-.129s99.225.056 99.225.129Z" fill="#263238"/><path d="M189.017 196.036c0 .078-10.884.145-24.309.145s-24.31-.067-24.31-.145c0-.079 10.885-.146 24.31-.146 13.425 0 24.309.095 24.309.146Z" fill="#E0E0E0"/><path d="M133.461 170.612H79.303v40.474h54.158v-40.474Z" fill="#F5F5F5"/><path d="m79.326 211.114 18.89-25.177 11.731 15.729 7.943-8.42 15.593 17.818-54.157.05ZM114.903 182.838a4.21 4.21 0 0 1-.715 2.356 4.243 4.243 0 0 1-1.911 1.563 4.286 4.286 0 0 1-4.646-.912 4.227 4.227 0 0 1-.93-4.618 4.248 4.248 0 0 1 1.567-1.904 4.277 4.277 0 0 1 2.367-.717 4.272 4.272 0 0 1 3.018 1.235 4.24 4.24 0 0 1 1.25 2.997Z" fill="#E0E0E0"/><path d="M250.316 170.674h-54.157v40.474h54.157v-40.474Z" fill="#F5F5F5"/><path d="m196.176 211.176 18.896-25.177 11.731 15.729 7.938-8.42 15.592 17.817-54.157.051ZM231.759 182.9a4.23 4.23 0 0 1-.716 2.359 4.263 4.263 0 0 1-1.914 1.566 4.286 4.286 0 0 1-4.654-.917 4.235 4.235 0 0 1-1.169-2.173 4.22 4.22 0 0 1 .242-2.452 4.253 4.253 0 0 1 1.572-1.906 4.288 4.288 0 0 1 5.387.526 4.224 4.224 0 0 1 1.252 2.997ZM241.747 162.63a7.64 7.64 0 0 1 1.518-.101c.938 0 2.259-.045 3.664-.045h1.592l-.141.14c0-1.038.029-1.931.057-2.565a4.185 4.185 0 0 1 .084-1.005c.07.33.1.667.091 1.005 0 .634.039 1.527.051 2.565v.141h-1.734c-1.428 0-2.726 0-3.664-.045a7.718 7.718 0 0 1-1.518-.09ZM228.197 162.63a39.304 39.304 0 0 1 6.775 0 39.506 39.506 0 0 1-6.775 0ZM214.648 162.63a39.304 39.304 0 0 1 6.775 0 39.506 39.506 0 0 1-6.775 0ZM201.099 162.63a39.293 39.293 0 0 1 6.774 0 39.495 39.495 0 0 1-6.774 0ZM187.55 162.63a39.293 39.293 0 0 1 6.774 0c-2.254.194-4.52.194-6.774 0ZM174 162.63a39.304 39.304 0 0 1 6.775 0 39.506 39.506 0 0 1-6.775 0ZM160.452 162.63a39.293 39.293 0 0 1 6.774 0 39.495 39.495 0 0 1-6.774 0ZM146.902 162.63a39.304 39.304 0 0 1 6.775 0 39.506 39.506 0 0 1-6.775 0ZM133.353 162.629a20.076 20.076 0 0 1 3.387-.145 19.967 19.967 0 0 1 3.387.145 19.865 19.865 0 0 1-3.387.146 19.972 19.972 0 0 1-3.387-.146ZM119.804 162.629a20.071 20.071 0 0 1 3.387-.145 19.972 19.972 0 0 1 3.387.145 19.87 19.87 0 0 1-3.387.146 19.968 19.968 0 0 1-3.387-.146ZM106.255 162.629a20.071 20.071 0 0 1 3.387-.145 19.972 19.972 0 0 1 3.387.145 19.87 19.87 0 0 1-3.387.146 19.968 19.968 0 0 1-3.387-.146ZM92.705 162.629a20.078 20.078 0 0 1 3.388-.145 19.973 19.973 0 0 1 3.387.145 19.87 19.87 0 0 1-3.387.146 19.974 19.974 0 0 1-3.388-.146ZM79.167 162.624a20.726 20.726 0 0 1 3.387-.14 19.974 19.974 0 0 1 3.388.145 19.871 19.871 0 0 1-3.388.146 20.838 20.838 0 0 1-3.387-.14v-.011ZM79.168 149.151a38.688 38.688 0 0 1 0 6.737 38.668 38.668 0 0 1 0-6.737ZM79.167 135.678a19.65 19.65 0 0 1 .147 3.369 19.703 19.703 0 0 1-.147 3.368 19.025 19.025 0 0 1-.147-3.368 18.966 18.966 0 0 1 .147-3.369ZM79.167 122.206c.146 1.117.195 2.243.147 3.368a19.694 19.694 0 0 1-.147 3.368 19.017 19.017 0 0 1-.147-3.368 18.95 18.95 0 0 1 .147-3.368ZM90.922 120.421a20.078 20.078 0 0 1-3.388.146 19.974 19.974 0 0 1-3.387-.146 19.37 19.37 0 0 1 3.387-.146 19.469 19.469 0 0 1 3.388.146ZM104.471 120.421a20.083 20.083 0 0 1-3.388.146 19.97 19.97 0 0 1-3.387-.146 19.367 19.367 0 0 1 3.387-.146 19.475 19.475 0 0 1 3.388.146ZM118.02 120.421a20.076 20.076 0 0 1-3.387.146 19.98 19.98 0 0 1-3.388-.146 19.377 19.377 0 0 1 3.388-.146 19.468 19.468 0 0 1 3.387.146ZM131.569 120.421a20.076 20.076 0 0 1-3.387.146 19.984 19.984 0 0 1-3.388-.146 19.381 19.381 0 0 1 3.388-.146 19.468 19.468 0 0 1 3.387.146ZM145.118 120.421a39.293 39.293 0 0 1-6.774 0 19.366 19.366 0 0 1 3.387-.146 19.464 19.464 0 0 1 3.387.146ZM158.667 120.421c-2.254.195-4.52.195-6.774 0a39.495 39.495 0 0 1 6.774 0ZM172.216 120.421c-2.253.195-4.52.195-6.774 0a39.495 39.495 0 0 1 6.774 0ZM185.766 120.421a39.304 39.304 0 0 1-6.775 0 39.506 39.506 0 0 1 6.775 0ZM199.315 120.421a39.304 39.304 0 0 1-6.775 0 39.506 39.506 0 0 1 6.775 0ZM212.864 120.421a39.304 39.304 0 0 1-6.775 0 39.506 39.506 0 0 1 6.775 0ZM226.413 120.421a39.304 39.304 0 0 1-6.775 0 39.506 39.506 0 0 1 6.775 0ZM239.962 120.421c-2.254.195-4.52.195-6.774 0a39.495 39.495 0 0 1 6.774 0ZM248.521 125.378a19.754 19.754 0 0 1-.147-3.368v-1.589l.13.129a8.146 8.146 0 0 1-1.784-.129 7.738 7.738 0 0 1 1.784-.129h.13v1.723a18.995 18.995 0 0 1-.113 3.363ZM248.521 138.851a19.762 19.762 0 0 1-.147-3.369 19.754 19.754 0 0 1 .147-3.368c.148 1.116.198 2.244.147 3.368a19.07 19.07 0 0 1-.147 3.369ZM248.521 152.323a38.657 38.657 0 0 1 0-6.736 38.657 38.657 0 0 1 0 6.736ZM189.017 209.682c0 .084-10.884.146-24.309.146s-24.31-.062-24.31-.146c0-.084 10.885-.146 24.31-.146 13.425 0 24.309.068 24.309.146ZM189.017 203.44c0 .078-10.884.146-24.309.146s-24.31-.068-24.31-.146c0-.079 10.885-.146 24.31-.146 13.425 0 24.309.067 24.309.146Z" fill="#E0E0E0"/><path d="M40.112 155.304h-2.924v78.438h2.924v-78.438Z" fill="#263238"/><path d="M38.65 158.099c9.39 0 17.004-7.57 17.004-16.908 0-9.338-7.613-16.908-17.004-16.908-9.391 0-17.005 7.57-17.005 16.908 0 9.338 7.614 16.908 17.005 16.908Z" fill="#E06363"/><path d="M53.96 140.972a1.23 1.23 0 0 1-.028-.247c0-.174 0-.416-.05-.719 0-.163 0-.337-.035-.533a25.161 25.161 0 0 1-.101-.635 10.458 10.458 0 0 0-.322-1.566 14.422 14.422 0 0 0-1.694-4.03 15.237 15.237 0 0 0-3.873-4.283 15.184 15.184 0 0 0-6.906-2.904 15.224 15.224 0 0 0-7.461.748c-.678.243-1.338.532-1.976.864-.322.174-.633.377-.949.562a8.235 8.235 0 0 0-.914.629c-.596.448-1.161.933-1.694 1.453a16.524 16.524 0 0 0-1.49 1.752 14.57 14.57 0 0 0-2.163 4.154 15.919 15.919 0 0 0-.813 4.755c.02 1.614.283 3.217.78 4.754a14.606 14.606 0 0 0 2.167 4.16c.457.615.953 1.2 1.485 1.751a17.438 17.438 0 0 0 1.722 1.454c.29.23.596.44.915.629.316.185.626.387.948.561.637.336 1.297.625 1.976.865a15.293 15.293 0 0 0 10.283.038 15.193 15.193 0 0 0 7.958-6.477 14.335 14.335 0 0 0 1.693-4.025c.147-.515.255-1.04.322-1.572.04-.224.079-.437.102-.634.022-.196 0-.37.034-.528l.05-.724c.001-.083.01-.166.029-.247.007.082.007.165 0 .247v1.286c0 .196-.057.404-.085.64a11.224 11.224 0 0 1-.3 1.583 14.477 14.477 0 0 1-1.693 4.081 15.356 15.356 0 0 1-4.397 4.738 15.437 15.437 0 0 1-5.968 2.52 15.532 15.532 0 0 1-8.107-.651 15.944 15.944 0 0 1-2.021-.876c-.322-.174-.638-.376-.96-.561a8.038 8.038 0 0 1-.943-.663 16.592 16.592 0 0 1-1.755-1.476 17.763 17.763 0 0 1-1.52-1.779 15.004 15.004 0 0 1-2.212-4.233 15.175 15.175 0 0 1 0-9.7 15.004 15.004 0 0 1 2.213-4.233c.466-.624.974-1.216 1.519-1.774a16.691 16.691 0 0 1 1.755-1.504 7.41 7.41 0 0 1 .932-.635c.322-.19.638-.398.96-.561a16.836 16.836 0 0 1 2.02-.876 15.51 15.51 0 0 1 8.108-.645 15.42 15.42 0 0 1 5.976 2.518 15.33 15.33 0 0 1 4.4 4.746 14.43 14.43 0 0 1 1.694 4.086c.138.52.238 1.049.299 1.583.028.231.068.444.085.64.017.197 0 .371 0 .562v.724c.007.069.009.138.005.208Z" fill="#fff"/><path d="M47.507 139.081h-17.71v3.671h17.71v-3.671Z" fill="#FAFAFA"/><path d="m266.634 119.528-165.637 13.207 3.865 47.814 165.637-13.208-3.865-47.813Z" fill="#fff"/><path d="M270.504 167.306c-.056-.691-1.462-17.678-3.951-47.806l.096.085-165.622 13.287.13-.157 3.861 47.81-.152-.129 118.386-9.391 47.252-3.699-.807.072-2.394.203-9.286.757-34.658 2.807-118.476 9.543h-.142v-.146c-1.236-15.241-2.534-31.307-3.867-47.81v-.146h.147l165.611-13.187h.096v.09c2.382 30.134 3.726 47.126 3.776 47.817Z" fill="#263238"/><path d="m157.847 133.96-52.306 3.64 2.752 39.093 52.306-3.641-2.752-39.092Z" fill="#E06363"/><path d="M222.834 167.289c-1.115.237-2.248.38-3.387.426l-.158-.134v-.668c0-.214-.034-.422-.046-.629 0-.371-.039-.724-.062-1.072a3.407 3.407 0 0 1 0-.988c.11.312.173.64.187.971.039.342.079.696.124 1.066 0 .202.039.416.056.629l.034.331V167.552l-.158-.134a20.345 20.345 0 0 1 3.41-.129ZM238.179 166.003a26.334 26.334 0 0 1-3.817.466c-1.275.159-2.56.217-3.844.174a26.166 26.166 0 0 1 3.816-.466 24.454 24.454 0 0 1 3.845-.174ZM253.478 164.718a26.194 26.194 0 0 1-3.817.465c-1.275.156-2.56.214-3.844.174a26.18 26.18 0 0 1 3.816-.465 24.334 24.334 0 0 1 3.845-.174ZM264.227 160.435c.245 1.098.39 2.216.434 3.34-.271.32-.079.089-.135.162h-.683l-.632.045-1.073.062a3.483 3.483 0 0 1-.999 0c.316-.108.647-.171.982-.185l1.067-.124.632-.061.339-.028h.339c-.057.067.135-.158-.13.157a19.751 19.751 0 0 1-.141-3.368ZM263.159 147.866c.388 2.071.577 4.174.566 6.281a17.066 17.066 0 0 1-.413-3.126 17.52 17.52 0 0 1-.153-3.155ZM262.093 135.302c.237 1.028.377 2.074.418 3.127.136 1.046.176 2.102.119 3.155a16.624 16.624 0 0 1-.413-3.132 17.455 17.455 0 0 1-.124-3.15ZM257.898 125.945a20.32 20.32 0 0 1 3.387-.427l.158.135v.668c0 .213.028.421.045.629 0 .37.04.724.057 1.072.049.327.049.66 0 .988a3.321 3.321 0 0 1-.186-.971c-.04-.343-.08-.697-.125-1.067 0-.202-.039-.415-.062-.629l-.028-.331V125.681l.164.135a20.451 20.451 0 0 1-3.41.129ZM242.582 127.23a26.059 26.059 0 0 1 3.817-.466 24.258 24.258 0 0 1 3.839-.173 25.922 25.922 0 0 1-3.817.465 24.378 24.378 0 0 1-3.839.174ZM227.26 128.516a25.894 25.894 0 0 1 3.816-.466 25.205 25.205 0 0 1 3.845-.174 26.28 26.28 0 0 1-3.822.466 24.384 24.384 0 0 1-3.839.174ZM216.505 132.799a19.785 19.785 0 0 1-.429-3.341c.266-.32.074-.089.136-.157h.344l.333-.028.633-.045 1.078-.061c.331-.048.668-.048.999 0a3.613 3.613 0 0 1-.982.185l-1.073.123-.632.062-.333.028h-.345l.136-.157a18.66 18.66 0 0 1 .135 3.391ZM217.573 145.368a17.317 17.317 0 0 1-.413-3.133 16.575 16.575 0 0 1-.118-3.149c.233 1.028.371 2.074.412 3.127.14 1.045.18 2.102.119 3.155ZM218.64 157.931a17.077 17.077 0 0 1-.413-3.127 16.641 16.641 0 0 1-.119-3.155c.234 1.03.372 2.078.413 3.133.14 1.043.179 2.098.119 3.149Z" fill="#E0E0E0"/><path d="m108.151 176.063 16.491-25.525 12.375 14.365 7.073-8.651 16.237 16.123-52.176 3.688ZM140.511 146.429a4.074 4.074 0 0 1-.529 2.32 4.129 4.129 0 0 1-4.095 2.038 4.129 4.129 0 0 1-2.185-.969 4.075 4.075 0 0 1-1.211-4.391 4.092 4.092 0 0 1 1.382-1.942 4.136 4.136 0 0 1 5.225.142 4.09 4.09 0 0 1 1.413 2.802Z" fill="#E06363"/><path opacity=".2" d="m108.151 176.063 16.491-25.525 12.375 14.365 7.073-8.651 16.237 16.123-52.176 3.688ZM140.511 146.429a4.074 4.074 0 0 1-.529 2.32 4.129 4.129 0 0 1-4.095 2.038 4.129 4.129 0 0 1-2.185-.969 4.075 4.075 0 0 1-1.211-4.391 4.092 4.092 0 0 1 1.382-1.942 4.136 4.136 0 0 1 5.225.142 4.09 4.09 0 0 1 1.413 2.802Z" fill="#000"/><path d="M211.932 140.097c0 .084-10.133 1.077-22.649 2.245-12.516 1.168-22.673 2.015-22.684 1.931-.011-.084 10.162-1.072 22.655-2.245 12.494-1.174 22.673-2.01 22.678-1.931ZM213.248 147.596c0 .085-10.252 1.089-22.904 2.246-12.651 1.156-22.926 2.038-22.937 1.959-.012-.079 10.246-1.089 22.909-2.245 12.663-1.157 22.921-2.038 22.932-1.96ZM214.557 155.101c0 .079-10.359 1.095-23.146 2.246s-23.147 2.06-23.147 1.981c0-.078 10.354-1.094 23.147-2.273s23.141-2.049 23.146-1.954ZM214.829 162.534c0 .084-10.371 1.123-23.175 2.279-12.804 1.157-23.203 2.06-23.209 1.982-.005-.079 10.371-1.123 23.181-2.274 12.809-1.151 23.197-2.066 23.203-1.987Z" fill="#263238"/><path d="m189.444 135.146-23.866 1.905.152 1.88 23.866-1.905-.152-1.88Z" fill="#E06363"/><path d="M240.899 152.486c-.079 0-.389-2.762-.688-6.175-.3-3.413-.475-6.203-.39-6.209.085-.006.384 2.762.683 6.175.299 3.413.497 6.203.395 6.209Z" fill="#E0E0E0"/><path d="M246.116 145.991c0 .078-2.676.314-5.984.522-3.309.207-6.002.314-6.002.235a59.08 59.08 0 0 1 5.985-.527c3.308-.196 5.995-.309 6.001-.23Z" fill="#E0E0E0"/><path d="M266.643 119.489s-.135-.039-.401-.14l-1.129-.438-4.448-1.718-16.446-6.405L189.3 89.266h.119l-6.95 3.43-57.584 28.365-17.456 8.561-4.742 2.313-1.242.595c-.277.134-.424.196-.424.196l.412-.224 1.226-.618 4.73-2.363 17.422-8.651 57.539-28.444 6.95-3.43h.119l54.885 21.607 16.372 6.489 4.426 1.769 1.129.466.412.162ZM232.917 41.051a3.763 3.763 0 0 0-1.383-1.6 3.796 3.796 0 0 0-4.072-.026 3.755 3.755 0 0 0-1.404 1.581l-5.9.483 5.962 11.693 3.737-6.837a3.607 3.607 0 0 0 1.185-.32 3.765 3.765 0 0 0 1.974-2.101 3.736 3.736 0 0 0-.099-2.873ZM198.863 24.12l3.85-1.633-9.287-2.324a3.77 3.77 0 0 0-1.705-1.431 3.8 3.8 0 0 0-2.221-.224c-.745.15-1.429.52-1.959 1.061a3.744 3.744 0 0 0 .753 5.835 3.793 3.793 0 0 0 4.257-.24l8.819 5.367-2.507-6.41Z" fill="#263238"/><path d="M273.18 138.895v-.078L209.448 20.685l-.361-.668-10.038 4.552 48.06 125.946.028.079 28.623 45.239.565-.084.66-.095.519-.079-5.922-9.358 3.461-8.863 9.163 3.368 4.036 13.276.48-.068.61-.089.564-.079-16.716-54.867Zm4.121 19.137-11.438-2.919 6.634-12.883 4.804 15.802Zm-12.448-3.178-14.069-3.592 20.765-9.409-6.696 13.001Zm5.312-18.165-14.616-4.019 5.996-11.963 8.62 15.982ZM254.55 132.4l-12.866-3.536 18.94-8.583-6.074 12.119Zm5.211-15.005-13.47-4.67 4.804-11.396 8.666 16.066Zm-14.43-5.001-11.856-4.104 16.762-7.59-4.906 11.694Zm3.856-14.596-12.257-5.265 3.63-10.733 8.627 15.998Zm-13.194-5.664-10.5-4.49 14.198-6.434-3.698 10.924Zm2.823-13.59-.068.034-11.025-5.928 2.45-10.133 8.643 16.027Zm-10.873-20.147-9.598-6.422 1.271-9.05 8.327 15.472Zm-10.557-7.05-7.729-5.165 9.033-4.093-1.304 9.257Zm-8.192-27.698 8.163 15.156-8.394-7.033.231-8.123Zm-1.558 18.878-5.928-15.51 6.21 5.21-.282 10.3Zm.333-11.609-6.667-5.585 6.915-3.132-.248 8.717Zm.954 2.128 8.079 6.736-8.384 3.8.305-10.536Zm.525 14.225 7.785 5.198-1.569 11.109-6.216-16.307Zm8.722 5.826 9.355 6.248-10.935 4.952 1.58-11.2Zm11.161 8.483-2.551 10.559-9.49-5.114 12.041-5.445Zm-11.855 6.702 9.067 4.873-2.795 11.564-6.272-16.437Zm9.992 5.372 10.112 5.434-12.844 5.805 2.732-11.239Zm-2.258 14.944 10.45 4.49-4.104 12.143-6.346-16.633Zm11.387 4.89 11.715 5.051-15.847 7.174 4.132-12.226Zm-3.523 15.717 11.856 4.109-5.397 12.816-6.459-16.925Zm12.821 4.446 12.827 4.446-18.167 8.224 5.34-12.67Zm-5.002 16.049 13.2 3.626-6.707 13.383-6.493-17.009Zm14.221 3.896 14.346 3.929-21.114 9.543 6.768-13.472Zm-5.08 18.525 14.384 3.671-5.414 10.508-8.97-14.179Zm15.395 3.929 11.703 2.987-17.343 7.859 5.64-10.846Zm5.521 29.134-7.683-12.147 10.861 4.002-3.178 8.145Zm3.545-9.088-12.115-4.491-.299-.466 16.937-7.662.175.561-4.698 12.058Zm.955.348 4.177-10.772 4.223 13.888-8.4-3.116Z" fill="#263238"/><path d="M189.26 76.58V72.66c0-2.565 0-6.337-.034-11.17 0-9.673-.028-23.578-.051-40.587v-.106h.108l17.845-1.88h.062l.045.05 46.547 51.729 67.746 75.401 20.527 22.864 5.567 6.231 1.439 1.622c.322.365.486.562.486.562s-.175-.18-.508-.562c-.333-.381-.824-.898-1.462-1.605-1.287-1.415-3.173-3.503-5.606-6.175l-20.573-22.814-67.83-75.334-46.519-51.728.107.044-17.885 1.842.102-.113c0 16.998-.034 30.914-.051 40.587v14.09c0 .673-.062.97-.062.97Z" fill="#263238"/><path d="M190.287 60.72h-2.427a.214.214 0 0 0-.215.214v5.664c0 .118.096.214.215.214h2.427a.214.214 0 0 0 .215-.214v-5.664a.214.214 0 0 0-.215-.213Z" fill="#263238"/><path d="M193.923 67.755h-9.377c-.277 0-.542-.11-.738-.304a1.035 1.035 0 0 1 0-1.469c.196-.195.461-.304.738-.304h9.383a1.038 1.038 0 1 1-.006 2.077ZM189.915 84.438l-.034-1.33-1.383.606c-.048.491-.048.986 0 1.477a.63.63 0 0 0 .051.23c.086.11.204.19.339.23.606.23 1.109.668 1.417 1.235a1.62 1.62 0 0 1-.932 2.245c-.429.13-.893.084-1.289-.127a1.685 1.685 0 0 1-.822-.996c0-.23 0-.56-.316-.56-.458-.046-.655.617-.644.965.073 2.015 1.982 2.655 2.789 2.683a2.951 2.951 0 0 0 1.581-.337 3.053 3.053 0 0 0 1.479-2.082c.44-2.65-2.377-4.07-2.236-4.239Z" fill="#263238"/><path d="m191.095 83.776 5.996-14.343a1.964 1.964 0 0 0-.897-2.49 1.99 1.99 0 0 0-.933-.232h-11.985a1.986 1.986 0 0 0-1.649.873 1.957 1.957 0 0 0-.18 1.85l5.99 14.342a1.988 1.988 0 0 0 3.658 0Z" fill="#E0E0E0"/><path d="m183.885 67.727-1.552 1.538c0 .056 0 .118.028.174l.508 1.213 2.941-2.925h-1.925ZM189.672 67.727h-1.93l-4.308 4.283.57 1.353 5.668-5.636ZM193.794 75.137l1.366-3.278-8.327 8.28.564 1.353 6.397-6.355ZM192.45 78.42l-4.455 4.43.147.359a1.206 1.206 0 0 0 .728.69l2.208-2.2 1.372-3.278ZM193.528 67.727h-1.925l-7.035 6.989.565 1.358 8.395-8.347ZM196.261 68.844a1.159 1.159 0 0 0-.887-1.033l-9.699 9.616.565 1.358 10.021-9.941Z" fill="#E06363"/><path d="M343.619 174.283h10.072c.395 0 .774.156 1.054.434.279.278.436.655.436 1.048v4.57h-13.052v-4.559a1.468 1.468 0 0 1 .432-1.055 1.496 1.496 0 0 1 1.058-.438ZM319.321 178.83h-2.14v-12.653c.001-.56.089-1.117.26-1.65l1.078-3.312a.079.079 0 0 1 .141 0l1.259 2.245-.333 1.027a5.54 5.54 0 0 0-.265 1.684v12.659Z" fill="#263238"/><path d="M372.055 181.132a4.63 4.63 0 0 0-1.384-1.85 4.67 4.67 0 0 0-2.11-.957l-53.519-.028v-8.841a2.139 2.139 0 0 0-.636-1.523 2.155 2.155 0 0 0-1.532-.627h-25.862a2.155 2.155 0 0 0-2.061 1.493l-.773 2.436h2.879a2.265 2.265 0 0 1 1.727.797 2.1 2.1 0 0 1 .452 1.797l-2.766 13.051a2.246 2.246 0 0 1-.793 1.237 2.266 2.266 0 0 1-1.392.487h-5.493a8.539 8.539 0 0 0 .147 2.486l.304 1.308-14.158 2.768a.589.589 0 0 0-.463.449l-1.333 3.559c-.085.161-.15.333-.192.511-.282 1.173-.073 3.138.638 3.138h15.17l-.644.763-.858 2.65h96.363c.023-8.567-.203-21.478-1.711-25.104Zm-66.791-8.095-1.423 12.844c0 .163-.045.326-.074.483a5.638 5.638 0 0 1-2.032 3.206 5.705 5.705 0 0 1-3.613 1.206h-6.357a1.958 1.958 0 0 1-1.904-1.497 1.94 1.94 0 0 1-.01-.861l2.992-15.415a2.17 2.17 0 0 1 .756-1.24 2.19 2.19 0 0 1 1.373-.489h8.694a1.655 1.655 0 0 1 1.215.541c.153.171.268.371.338.588a1.6 1.6 0 0 1 .067.673l-.022-.039Z" fill="#E06363"/><path d="m328.964 212.624-41.015.561c-.265 0-.74-.786-.74-1.05v-4.552a.485.485 0 0 1 .486-.483h41.269a.492.492 0 0 1 .341.142.473.473 0 0 1 .138.341v4.552a.462.462 0 0 1-.136.345.476.476 0 0 1-.343.144Z" fill="#455A64"/><path d="m305.264 173.037-1.423 12.844c0 .163-.045.32-.073.483a5.61 5.61 0 0 1-2.028 3.21 5.663 5.663 0 0 1-3.618 1.196h-6.345a1.976 1.976 0 0 1-1.523-.728 1.946 1.946 0 0 1-.391-1.635l2.992-15.415c.102-.487.369-.924.757-1.239a2.197 2.197 0 0 1 1.371-.49h8.683a1.641 1.641 0 0 1 1.553 1.133c.07.218.093.448.067.675l-.022-.034Z" fill="#E06363"/><path d="M373.8 207.347a2.116 2.116 0 0 0-.129-1.027h-96.149a2.178 2.178 0 0 0-.135 1.027H373.8Z" fill="#E06363" style="mix-blend-mode:screen"/><path d="m284.952 168.794-5.787 17.879a8.52 8.52 0 0 0-.226 4.418l2.479 11.429h33.624v-33.064c0-.572-.228-1.12-.635-1.524a2.17 2.17 0 0 0-1.532-.632h-25.862a2.188 2.188 0 0 0-1.274.415 2.16 2.16 0 0 0-.787 1.079Z" fill="#E06363"/><path d="M291.777 190.736a1.968 1.968 0 0 1-1.523-.724 1.942 1.942 0 0 1-.391-1.633l2.992-15.415a2.182 2.182 0 0 1 2.129-1.729h8.682a1.622 1.622 0 0 1 1.214.561 1.63 1.63 0 0 1 .407 1.263l-1.446 12.822c0 .162-.045.325-.073.482a5.642 5.642 0 0 1-2.033 3.206 5.702 5.702 0 0 1-3.613 1.207l-6.345-.04ZM278.792 188.632a7.974 7.974 0 0 1 .384-1.853l5.024-15.516h2.874a2.255 2.255 0 0 1 1.727.792 2.11 2.11 0 0 1 .458 1.802l-2.772 13.046a2.24 2.24 0 0 1-.789 1.238 2.27 2.27 0 0 1-1.39.491h-5.516Z" fill="#455A64"/><path d="M373.845 208.768h-96.334c-.734 0-.734-2.65 0-2.65h96.334c.74 0 .74 2.65 0 2.65ZM315.126 178.999V179.56c0 .387 0 .921-.034 1.594-.045 1.409-.107 3.408-.18 5.866-.074 2.459-.192 5.434-.305 8.701-.034.82-.062 1.684-.096 2.515.014.9-.179 1.791-.565 2.605a3.597 3.597 0 0 1-2.218 1.684c-.92.246-1.871.36-2.823.337l-19.483-.365-5.899-.146-1.604-.056h-.417a.483.483 0 0 1-.142 0 .377.377 0 0 1 .142 0h2.021l5.905.056 19.477.275a9.691 9.691 0 0 0 2.744-.314 3.298 3.298 0 0 0 2.049-1.516 5.57 5.57 0 0 0 .564-2.481c.04-.853.074-1.684.108-2.515.135-3.267.259-6.214.367-8.695.107-2.482.209-4.458.276-5.867.034-.673.068-1.207.085-1.594 0-.168 0-.303.034-.41a.393.393 0 0 1-.006-.235Z" fill="#263238"/><path d="M287.673 202.654c-.085 0-.147-2.807-.147-6.27 0-3.464.062-6.276.147-6.276.084 0 .147 2.807.147 6.276s-.068 6.27-.147 6.27ZM292.714 167.406a6.522 6.522 0 0 1-.108.904 85.096 85.096 0 0 1-.412 2.453 189.333 189.333 0 0 1-3.601 15.993 75.619 75.619 0 0 1-.684 2.392 4.967 4.967 0 0 1-.293.864c.04-.301.102-.6.186-.892.153-.618.35-1.432.593-2.414a481.49 481.49 0 0 0 1.886-7.971 287.202 287.202 0 0 0 1.693-8.011l.503-2.431c.048-.302.128-.6.237-.887Z" fill="#263238"/><path d="M303.864 195.839c.185-.043.362-.115.525-.213a.998.998 0 0 0 .361-.522 1.114 1.114 0 0 0-.102-.808.906.906 0 0 0-.835-.438h-4.212a.877.877 0 0 0-.858.802.89.89 0 0 0 .565.972c.09.033.186.05.282.05h2.072c.683 0 1.236.028 1.615.045.199-.008.398.011.592.056a2.145 2.145 0 0 1-.592.056c-.379 0-.932.034-1.615.045h-2.061a1.203 1.203 0 0 1-.372-.056 1.175 1.175 0 0 1-.774-1.252 1.12 1.12 0 0 1 .348-.761c.211-.2.491-.311.781-.311h4.212a1.13 1.13 0 0 1 1.016.561c.084.158.131.333.136.511.01.154-.01.308-.057.455a1.067 1.067 0 0 1-.457.561.899.899 0 0 1-.429.141c-.09.129-.141.112-.141.106Z" fill="#E06363"/><path d="M367.511 182.064c0 .084-3.952.145-8.796.145-4.843 0-8.795-.061-8.795-.145 0-.085 3.952-.146 8.795-.146 4.844 0 8.796.067 8.796.146ZM367.511 183.804c0 .084-3.952.151-8.796.151-4.843 0-8.795-.067-8.795-.151 0-.085 3.952-.146 8.795-.146 4.844 0 8.796.067 8.796.146ZM367.511 185.549c0 .079-3.952.146-8.796.146-4.843 0-8.795-.067-8.795-.146 0-.078 3.952-.146 8.795-.146 4.844 0 8.796.062 8.796.146ZM367.511 187.29c0 .078-3.952.146-8.796.146-4.843 0-8.795-.068-8.795-.146 0-.079 3.952-.146 8.795-.146 4.844 0 8.796.062 8.796.146ZM367.511 189.03c0 .078-3.952.146-8.796.146-4.843 0-8.795-.068-8.795-.146 0-.079 3.952-.146 8.795-.146 4.844 0 8.796.062 8.796.146ZM367.511 190.77c0 .079-3.952.146-8.796.146-4.843 0-8.795-.067-8.795-.146 0-.078 3.952-.146 8.795-.146 4.844 0 8.796.062 8.796.146ZM367.511 192.51c0 .079-3.952.146-8.796.146-4.843 0-8.795-.067-8.795-.146 0-.078 3.952-.146 8.795-.146 4.844 0 8.796.062 8.796.146ZM267.648 233.854c-5.278 0-9.721-5.052-9.721-10.318 0-5.265 4.646-9.677 9.924-9.677l85.038-3.84a11.478 11.478 0 0 1 6.194 1.423 11.388 11.388 0 0 1 4.471 4.494 11.17 11.17 0 0 1 .948 7.831c-2.258 10.216-10.788 10.104-14.113 9.874-3.326-.23-82.741.213-82.741.213Z" fill="#263238"/><path d="M267.648 231.373c4.387 0 7.943-3.536 7.943-7.898s-3.556-7.899-7.943-7.899-7.944 3.537-7.944 7.899 3.557 7.898 7.944 7.898ZM352.353 232.086c5.674 0 10.275-4.574 10.275-10.217 0-5.642-4.601-10.216-10.275-10.216-5.675 0-10.275 4.574-10.275 10.216 0 5.643 4.6 10.217 10.275 10.217Z" fill="#455A64"/><path d="m353.499 211.978-.221.034-.649.073-2.495.247c-2.174.213-5.313.494-9.202.808a831.039 831.039 0 0 1-60.887 2.667h-9.236l-2.507-.034h-.654a.908.908 0 0 1-.221 0h3.382l9.236-.09c7.791-.101 18.562-.342 30.446-.859a980.526 980.526 0 0 0 30.401-1.807l9.208-.713 2.501-.197.655-.039a.947.947 0 0 1 .243-.09ZM350.23 231.12c0 .079-18.489.146-41.296.146-22.808 0-41.297-.067-41.297-.146 0-.078 18.483-.146 41.297-.146 22.813 0 41.296.062 41.296.146Z" fill="#455A64"/><path d="M281.812 202.379a19.045 19.045 0 0 1-.564-1.987c-.345-1.229-.847-2.925-1.355-4.816a39.015 39.015 0 0 1-1.061-4.895 11.225 11.225 0 0 1-.091-1.522 1.87 1.87 0 0 1 .074-.561c.045 0 0 .791.22 2.043.22 1.252.632 2.975 1.129 4.856.497 1.881.982 3.587 1.276 4.839.147.623.259 1.123.316 1.482.046.183.065.372.056.561Z" fill="#E06363"/><path d="M346.696 228.179a2.738 2.738 0 0 1-.593-.387 7.147 7.147 0 0 1-1.321-1.387 7.91 7.91 0 0 1-1.236-2.565 7.393 7.393 0 0 1 1.298-6.647 8.051 8.051 0 0 1 2.112-1.914 7.153 7.153 0 0 1 1.756-.791c.222-.076.454-.124.688-.141a11.56 11.56 0 0 0-2.331 1.123 8.284 8.284 0 0 0-2.01 1.903 7.314 7.314 0 0 0-1.253 6.416 7.922 7.922 0 0 0 1.129 2.509c.51.694 1.102 1.325 1.761 1.881Z" fill="#FAFAFA"/><path d="M302.063 180.177a55.067 55.067 0 0 1-4.415 3.369 51.809 51.809 0 0 1-4.584 3.115 55.04 55.04 0 0 1 4.414-3.368 51.904 51.904 0 0 1 4.585-3.116ZM302.74 177.792a39.802 39.802 0 0 1-3.844 2.851 39.06 39.06 0 0 1-4.014 2.61 40.995 40.995 0 0 1 3.844-2.851 39.507 39.507 0 0 1 4.014-2.61ZM286.165 181.474a10.143 10.143 0 0 1-1.948 1.527c-.654.511-1.367.945-2.123 1.291a10.901 10.901 0 0 1 1.954-1.527 10.528 10.528 0 0 1 2.117-1.291ZM287.323 179.24a29.755 29.755 0 0 1-4.635 3.576 28.917 28.917 0 0 1 4.635-3.576Z" fill="#fff"/><path d="M305.049 192.897a34.115 34.115 0 0 1-6.311 0 34.29 34.29 0 0 1 6.311 0Z" fill="#E06363"/><path d="M266.067 230.177a2.388 2.388 0 0 1-.688-.146 6.567 6.567 0 0 1-1.739-.847 7.468 7.468 0 0 1-2.004-2.044 6.708 6.708 0 0 1-.48-6.736 7.311 7.311 0 0 1 1.694-2.301 6.438 6.438 0 0 1 1.603-1.084c.209-.107.431-.188.66-.241a9.983 9.983 0 0 0-2.117 1.476 7.43 7.43 0 0 0-1.597 2.246 6.585 6.585 0 0 0 .457 6.483 7.426 7.426 0 0 0 1.902 2.021 9.807 9.807 0 0 0 2.309 1.173Z" fill="#FAFAFA"/><path d="M278.115 199.016c0 .079-3.06.146-6.837.146-3.777 0-6.842-.067-6.842-.146 0-.078 3.06-.145 6.842-.145 3.782 0 6.837.067 6.837.145Z" fill="#fff"/><path d="m216.455 32.687-5.149-10.997a6.801 6.801 0 0 0-3.854-3.515 6.864 6.864 0 0 0-7.375 1.792 6.758 6.758 0 0 0-1.157 7.46l5.154 10.991a.403.403 0 0 0 .238.223.416.416 0 0 0 .327-.02l11.629-5.39a.41.41 0 0 0 .187-.544Z" fill="#E06363"/><path d="M19.077 180.599h-2.902v53.042h2.902v-53.042Z" fill="#E0E0E0"/><path d="M20.562 178.78a2.915 2.915 0 0 1-1.805 2.686 2.942 2.942 0 0 1-1.69.166 2.926 2.926 0 0 1-1.498-.796 2.893 2.893 0 0 1-.634-3.169 2.916 2.916 0 0 1 1.078-1.305 2.94 2.94 0 0 1 3.692.362 2.9 2.9 0 0 1 .857 2.056Z" fill="#E06363"/><path d="M76.74 180.599h-2.902v53.042h2.902v-53.042Z" fill="#E0E0E0"/><path d="M78.225 178.78a2.915 2.915 0 0 1-1.805 2.686 2.942 2.942 0 0 1-1.69.166 2.925 2.925 0 0 1-1.498-.796 2.893 2.893 0 0 1-.634-3.169 2.916 2.916 0 0 1 1.077-1.305 2.94 2.94 0 0 1 3.693.362c.548.545.857 1.285.857 2.056ZM82.239 185.718H7.893v13.226H82.24v-13.226Z" fill="#E06363"/><path d="m16.305 185.712-.13.225-7.638 13.007h-.644v-13.232h8.412ZM35.099 185.712l-7.78 13.232H17.163l3.088-5.255 4.686-7.977h10.162ZM53.882 185.712l-7.774 13.232H35.946l7.774-13.232h10.162ZM72.658 185.718l-7.774 13.226H54.728l7.774-13.226h10.156ZM82.239 185.718v13.226H73.51l7.78-13.226h.948Z" fill="#F5F5F5"/><path d="M82.239 206.146H7.893v13.226H82.24v-13.226Z" fill="#E06363"/><path d="m16.305 206.151-.13.219-7.638 13.007h-.644v-13.226h8.412ZM35.099 206.151l-7.78 13.226H17.163l3.088-5.254 4.686-7.972h10.162ZM53.882 206.151l-7.774 13.226H35.946l7.774-13.226h10.162ZM72.658 206.151l-7.774 13.226H54.728l7.774-13.226h10.156ZM82.239 206.151v13.226H73.51l7.78-13.226h.948Z" fill="#F5F5F5"/><path d="M82.239 198.944V195.48c0-2.245-.029-5.546-.046-9.762l.08.073-74.374.09.147-.146v13.225l-.147-.146 52.926.062 15.695.045h5.724-5.657l-15.66.039-53.028.062h-.147v-13.456h.152l74.34.073h.074v.079c0 4.233-.034 7.545-.04 9.807v3.205c0 .157-.04.214-.04.214ZM82.239 219.377v-3.463c0-2.246-.029-5.547-.046-9.768l.08.079-74.34.067.146-.146v13.231l-.146-.146 52.926.062 15.694.045H82.278h-5.657l-15.66.045-53.028.061h-.147V206h.152l74.34.073h.073v.073c0 4.238-.033 7.55-.04 9.812V219.164c0 .157-.073.213-.073.213ZM370.159 233.854c0 .079-82.097.146-183.343.146-101.247 0-183.366-.067-183.366-.146 0-.078 82.08-.146 183.366-.146 101.286 0 183.343.062 183.343.146Z" fill="#263238"/></svg>