<svg width="56" height="55" viewBox="0 0 56 55" fill="none" xmlns="http://www.w3.org/2000/svg">
<g clip-path="url(#clip0)">
<path d="M13.025 42.3352C12.4317 42.3352 11.9478 41.8543 11.9478 41.261C11.9478 40.6677 12.4257 40.1868 13.019 40.1868H13.0251C13.6184 40.1868 14.0993 40.6677 14.0993 41.261C14.0993 41.8543 13.6183 42.3352 13.025 42.3352Z" fill="#45B4B9"/>
<path d="M53.629 37.1751V27.9005C53.629 27.7674 53.6032 27.631 53.5545 27.5071L48.1831 13.8581C48.0215 13.4473 47.625 13.1773 47.1835 13.1773H36.8877V8.66736C36.8877 8.07407 36.4067 7.59314 35.8135 7.59314H22.4339C21.8406 7.59314 21.3597 8.07407 21.3597 8.66736C21.3597 9.26065 21.8406 9.74158 22.4339 9.74158H34.7393V13.1774H31.6784C31.0852 13.1774 30.6042 13.6583 30.6042 14.2516V36.9511H17.3684C16.2606 35.8188 14.7216 35.1153 13.0219 35.1153C11.3223 35.1153 9.78337 35.8189 8.67542 36.9511H4.03555V21.4963H18.1869V23.2772C18.1869 23.6791 18.4113 24.0474 18.7685 24.2318C18.9237 24.312 19.0927 24.3514 19.261 24.3514C19.4801 24.3514 19.6982 24.2843 19.8835 24.1527L26.9052 19.1609C27.1887 18.9593 27.357 18.6331 27.357 18.2854C27.357 17.9377 27.1887 17.6114 26.9052 17.4099L19.8835 12.4181C19.556 12.1853 19.1257 12.1547 18.7685 12.339C18.4113 12.5234 18.1869 12.8917 18.1869 13.2937V15.0745H4.03555V9.74158H12.7874C13.3807 9.74158 13.8616 9.26065 13.8616 8.66736C13.8616 8.07407 13.3807 7.59314 12.7874 7.59314H2.96133C2.36804 7.59314 1.88711 8.07407 1.88711 8.66736V37.1751C0.929551 37.5931 0.258057 38.5514 0.258057 39.6646V40.8066C0.258057 42.3045 1.47074 43.5232 2.96133 43.5232H7.34779C8.24477 45.7954 10.4493 47.4067 13.0219 47.4067C15.5946 47.4067 17.7991 45.7954 18.6961 43.5232H35.2763C36.1733 45.7954 38.3777 47.4067 40.9504 47.4067C43.5232 47.4067 45.7275 45.7954 46.6246 43.5232H52.5549C54.0455 43.5232 55.2582 42.3045 55.2582 40.8066V39.6646C55.2581 38.5514 54.5866 37.5931 53.629 37.1751ZM4.03555 17.223H19.2611C19.8544 17.223 20.3353 16.742 20.3353 16.1488V15.3753L24.4288 18.2854L20.3353 21.1954V20.422C20.3353 19.8287 19.8544 19.3478 19.2611 19.3478H4.03555V17.223ZM6.92025 41.3748H2.96133C2.66055 41.3748 2.40649 41.1147 2.40649 40.8067V39.6647C2.40649 39.3583 2.66055 39.0995 2.96133 39.0995H7.30826C7.05625 39.7723 6.91746 40.5005 6.91746 41.2611C6.91746 41.2991 6.91961 41.3368 6.92025 41.3748ZM13.0219 45.2583C10.8405 45.2583 9.0659 43.4651 9.0659 41.261C9.0659 39.0569 10.8406 37.2636 13.0219 37.2636C15.2032 37.2636 16.9781 39.0568 16.9781 41.261C16.9781 43.4652 15.2032 45.2583 13.0219 45.2583ZM50.9776 26.8263H40.0849V19.8753H48.2422L50.9776 26.8263ZM32.7526 15.3257H46.4517L47.3967 17.727H39.0107C38.4175 17.727 37.9365 18.2079 37.9365 18.8012V27.9006C37.9365 28.4939 38.4175 28.9748 39.0107 28.9748H51.4806V31.8887H49.8995C49.3063 31.8887 48.8253 32.3697 48.8253 32.963C48.8253 33.5563 49.3063 34.0372 49.8995 34.0372H51.4806V36.9511H45.2969C44.1891 35.8188 42.6501 35.1153 40.9504 35.1153C39.2508 35.1153 37.7118 35.8189 36.6039 36.9511H32.7526V15.3257ZM19.1236 41.3748C19.1242 41.3368 19.1265 41.2992 19.1265 41.261C19.1265 40.5005 18.9876 39.7723 18.7357 39.0994H35.2368C34.9849 39.7722 34.846 40.5004 34.846 41.261C34.846 41.2991 34.8481 41.3368 34.8489 41.3748H19.1236ZM40.9504 45.2583C38.769 45.2583 36.9944 43.4651 36.9944 41.261C36.9944 39.0569 38.7691 37.2636 40.9504 37.2636C43.1317 37.2636 44.9065 39.0568 44.9065 41.261C44.9065 43.4652 43.1317 45.2583 40.9504 45.2583ZM53.1096 40.8067C53.1096 41.1147 52.8556 41.3748 52.5548 41.3748H47.052C47.0526 41.3368 47.0549 41.2992 47.0549 41.261C47.0549 40.5005 46.916 39.7723 46.6641 39.0994H52.5549C52.8557 39.0994 53.1097 39.3582 53.1097 39.6646V40.8067H53.1096Z" fill="#45B4B9"/>
<path d="M40.9533 40.1868H40.9472C40.354 40.1868 39.876 40.6677 39.876 41.261C39.876 41.8543 40.36 42.3352 40.9532 42.3352C41.5464 42.3352 42.0274 41.8543 42.0274 41.261C42.0274 40.6677 41.5465 40.1868 40.9533 40.1868Z" fill="#45B4B9"/>
<path d="M7.83008 30.802C7.23679 30.802 6.75586 31.2829 6.75586 31.8762C6.75586 32.4695 7.23679 32.9504 7.83008 32.9504H13.1101C13.7034 32.9504 14.1843 32.4695 14.1843 31.8762C14.1843 31.2829 13.7034 30.802 13.1101 30.802H7.83008Z" fill="#45B4B9"/>
<path d="M17.4059 27.5291C17.4059 26.9358 16.925 26.4548 16.3317 26.4548H7.83008C7.23679 26.4548 6.75586 26.9358 6.75586 27.5291C6.75586 28.1223 7.23679 28.6033 7.83008 28.6033H16.3317C16.925 28.6033 17.4059 28.1223 17.4059 27.5291Z" fill="#45B4B9"/>
<path d="M17.6108 9.74158H17.6138C18.2071 9.74158 18.6866 9.26065 18.6866 8.66736C18.6866 8.07407 18.2041 7.59314 17.6108 7.59314C17.0175 7.59314 16.5366 8.07407 16.5366 8.66736C16.5366 9.26065 17.0175 9.74158 17.6108 9.74158Z" fill="#45B4B9"/>
</g>
<defs>
<clipPath id="clip0">
<rect width="55" height="55" fill="white" transform="translate(0.258057)"/>
</clipPath>
</defs>
</svg>
