<svg width="786" height="360" viewBox="0 0 786 360" fill="none" xmlns="http://www.w3.org/2000/svg"><path fill="#B21A1A" d="M0 0h786v360H0z"/><path d="M540.119 220.765h-22.561a17.658 17.658 0 0 1-6.936-1.328 17.794 17.794 0 0 1-5.881-3.944 17.982 17.982 0 0 1-3.904-5.943 18.125 18.125 0 0 1-1.314-7.007v-72.887h-20.285v72.887c0 22.762 15.79 38.713 38.32 38.713h42.844v-111.6h-20.283v91.109zM443.725 84l-20.291 6.279v150.976h20.291V84zm-285.078 45.656H114l6.08 20.291h44.647l-6.08-20.291zm42.599 0h-21.293l34.043 111.6h23.191l34.075-111.6h-21.324l-24.33 79.728-24.362-79.728zm-52.775 111.595h46.693l-6.268-21.303h-40.425c-3.653 0-7.156-1.496-9.739-4.161-2.583-2.664-4.034-6.278-4.034-10.045 0-3.768 1.451-7.382 4.034-10.046 2.583-2.664 6.086-4.161 9.739-4.161h32.277l-6.267-21.303h-26.01c-20.651 0-34.471 14.224-34.471 35.558s13.757 35.461 34.471 35.461z" fill="#fff"/><path fill-rule="evenodd" clip-rule="evenodd" d="M590.848 90.342L611.716 84v43.412h20.869c23.181 0 39.426 16.268 39.426 39.48v34.882c0 23.213-16.212 39.481-39.426 39.481h-41.737V90.342zm59.465 119.345a17.525 17.525 0 0 0 1.389-7.047l-.066-34.366a17.435 17.435 0 0 0-1.38-7.052 18.057 18.057 0 0 0-4.128-5.981 18.881 18.881 0 0 0-6.223-3.966 19.51 19.51 0 0 0-7.339-1.326h-21.445v71.015h21.51a19.49 19.49 0 0 0 7.334-1.335 18.946 18.946 0 0 0 6.22-3.966 18.117 18.117 0 0 0 4.128-5.976z" fill="#fff"/><path d="M321.984 198.888c0 25.198 17.379 42.361 42.893 42.361 31.306 0 38.271-24.041 38.271-24.041l-19.784-5.846a22.127 22.127 0 0 1-11.038 8.403 22.42 22.42 0 0 1-13.933.234 22.147 22.147 0 0 1-11.32-8.028 21.7 21.7 0 0 1-4.228-13.114v-32.014a21.702 21.702 0 0 1 4.228-13.114 22.147 22.147 0 0 1 11.32-8.028 22.42 22.42 0 0 1 13.933.234 22.127 22.127 0 0 1 11.038 8.403l19.784-5.846s-6.869-23.916-38.271-23.916c-25.578 0-42.893 17.07-42.893 42.267v32.045z" fill="#fff"/></svg>