<svg viewBox="0 0 72 29" width="72" height="29" fill="none" xmlns="http://www.w3.org/2000/svg"><g clip-path="url(#a)"><path fill-rule="evenodd" clip-rule="evenodd" d="M.593 19.336c2.22 7.17 10.014 11.24 17.41 9.088L9.967 2.457C2.571 4.608-1.626 12.165.593 19.337Z" fill="url(#b)"/><path fill-rule="evenodd" clip-rule="evenodd" d="M26.788 9.664C24.569 2.494 16.775-1.576 9.378.575l8.036 25.968c7.396-2.152 11.593-9.708 9.374-16.88Z" fill="url(#c)"/><path fill-rule="evenodd" clip-rule="evenodd" d="M17.345 26.518c-1.18.343-2.431.528-3.727.528-7.16 0-12.966-5.628-12.966-12.57 0-5.687 3.895-10.491 9.24-12.044 1.18-.343 2.43-.528 3.726-.528 7.16 0 12.966 5.629 12.966 12.571 0 5.687-3.895 10.49-9.24 12.043Z" fill="#B31A1A"/><mask id="d" maskUnits="userSpaceOnUse" x="61.781" y="9.25" width="8" height="10" fill="#000"><path fill="#fff" d="M61.781 9.25h8v10h-8z"/><path d="M66.254 17.343h-2.796l-.5 1.599h3.296c1.644 0 2.749-1.067 2.749-2.673-.01-2.746-4.573-2.124-4.573-3.446a.974.974 0 0 1 .297-.683c.187-.182.439-.285.703-.289h2.523l.5-1.599H65.43a2.606 2.606 0 0 0-1.03.166 2.547 2.547 0 0 0-.874.555c-.248.242-.443.53-.57.85-.129.318-.187.658-.173 1 0 2.753 4.568 2.131 4.568 3.465a1.003 1.003 0 0 1-.308.767 1.057 1.057 0 0 1-.789.3"/></mask><path d="M66.254 17.343h-2.796l-.5 1.599h3.296c1.644 0 2.749-1.067 2.749-2.673-.01-2.746-4.573-2.124-4.573-3.446a.974.974 0 0 1 .297-.683c.187-.182.439-.285.703-.289h2.523l.5-1.599H65.43a2.606 2.606 0 0 0-1.03.166 2.547 2.547 0 0 0-.874.555c-.248.242-.443.53-.57.85-.129.318-.187.658-.173 1 0 2.753 4.568 2.131 4.568 3.465a1.003 1.003 0 0 1-.308.767 1.057 1.057 0 0 1-.789.3" fill="#000"/><path d="M63.458 17.343v-.125h-.091l-.028.087.119.038Zm-.5 1.599-.118-.038-.051.162h.17v-.124Zm6.045-2.673h.124-.124Zm-4.573-3.446-.124-.002v.002h.124Zm.297-.683-.087-.09.087.09Zm.703-.289v-.124h-.002l.002.124Zm2.523 0v.124h.092l.027-.087-.119-.037Zm.5-1.599.119.037.05-.161h-.17v.124Zm-3.023 0-.006.125h.006v-.125Zm-1.904.721.087.09-.087-.09Zm-.743 1.85h.125v-.005l-.125.005Zm4.568 3.465h-.124v.005l.124-.005Zm-.071.415.115.047-.115-.047Zm-.237.352.087.09-.087-.09Zm-.362.23-.044-.116.044.116Zm-.427-.067h-2.796v.249h2.796v-.249Zm-2.915.087-.5 1.6.238.074.5-1.6-.238-.074Zm-.38 1.76h3.295v-.248h-3.296v.249Zm3.295 0c.85 0 1.57-.275 2.078-.768.508-.494.795-1.196.795-2.028h-.249c0 .773-.265 1.408-.72 1.85-.455.44-1.11.698-1.904.698v.249Zm2.873-2.797a1.978 1.978 0 0 0-.765-1.607c-.448-.364-1.04-.59-1.613-.768-.585-.18-1.137-.307-1.56-.476a1.576 1.576 0 0 1-.479-.27.424.424 0 0 1-.156-.324h-.248c0 .207.091.373.236.506.141.13.336.232.555.32.433.172 1.022.31 1.579.482.568.175 1.12.39 1.53.723.403.328.67.77.672 1.415h.249Zm-4.573-3.443a.849.849 0 0 1 .26-.596l-.174-.178c-.21.204-.33.48-.334.77l.248.004Zm.26-.596a.905.905 0 0 1 .617-.254l-.003-.248c-.295.004-.578.12-.788.324l.174.178Zm.616-.253h2.523v-.25H65.43v.25Zm2.642-.088.5-1.599-.238-.074-.5 1.599.238.074Zm.38-1.76H65.43v.249h3.023v-.25Zm-3.017 0a2.73 2.73 0 0 0-1.079.174l.088.233c.312-.118.646-.172.98-.159l.01-.248Zm-1.079.174c-.343.13-.655.328-.916.582l.173.178c.236-.23.52-.41.831-.527l-.088-.233Zm-.916.582a2.591 2.591 0 0 0-.6.892l.23.093c.122-.303.307-.577.543-.807l-.173-.178Zm-.6.892a2.534 2.534 0 0 0-.18 1.052l.248-.01a2.285 2.285 0 0 1 .163-.95l-.231-.092Zm-.181 1.047c0 .73.306 1.24.76 1.612.447.365 1.038.593 1.611.771.585.183 1.138.31 1.56.48.21.085.372.174.48.274a.431.431 0 0 1 .157.328h.248a.68.68 0 0 0-.236-.51 1.81 1.81 0 0 0-.555-.322c-.434-.175-1.023-.314-1.58-.487-.568-.177-1.12-.393-1.528-.727-.403-.329-.668-.772-.668-1.419h-.249Zm4.568 3.47a.877.877 0 0 1-.063.364l.231.092c.06-.148.087-.307.08-.466l-.248.01Zm-.063.364a.902.902 0 0 1-.208.31l.174.177c.115-.112.206-.246.265-.394l-.23-.093Zm-.208.31a.934.934 0 0 1-.32.202l.089.233c.151-.058.29-.145.405-.258l-.174-.178Zm-.32.202a.955.955 0 0 1-.377.061l-.01.249c.163.006.324-.02.476-.077l-.088-.233Z" fill="#000" mask="url(#d)"/><path d="m52.919 17.25.06.018.017-.06-.06-.017-1.562-.455-.043-.012-.025.037a1.682 1.682 0 0 1-.84.63 1.734 1.734 0 0 1-1.062.017 1.685 1.685 0 0 1-.862-.602 1.607 1.607 0 0 1-.322-.981v-2.49a1.607 1.607 0 0 1 .322-.981c.213-.285.515-.496.862-.602.346-.105.719-.099 1.061.018.343.116.638.337.84.63l.026.036.043-.012 1.562-.455.06-.017-.018-.06-.06.018.06-.018v-.002l-.002-.005-.005-.016a2.329 2.329 0 0 0-.121-.28 2.839 2.839 0 0 0-.47-.657c-.458-.479-1.23-.953-2.483-.953-1.02 0-1.883.338-2.491.93-.608.59-.956 1.43-.956 2.425v2.493c0 .994.348 1.834.956 2.425.608.59 1.47.93 2.492.93 1.253 0 2.024-.476 2.482-.954a2.839 2.839 0 0 0 .568-.875l.023-.062.005-.017.002-.004v-.001l-.06-.018ZM39.813 13.345c0-.43.176-.844.49-1.149.313-.305.74-.477 1.183-.477.445 0 .87.172 1.184.477.314.305.49.718.49 1.149v2.488c0 .43-.176.844-.49 1.149-.314.305-.74.476-1.184.476-.444 0-.87-.171-1.183-.476a1.602 1.602 0 0 1-.49-1.149v-2.488Zm5.115 0c0-.987-.348-1.825-.954-2.416-.607-.591-1.468-.932-2.486-.932-1.019 0-1.88.338-2.486.928-.607.59-.955 1.428-.955 2.42v2.488c0 .987.348 1.825.955 2.416.606.591 1.467.931 2.486.931 1.018 0 1.879-.337 2.486-.927.606-.59.954-1.428.954-2.42v-2.488ZM59.425 10.237v7.043H57.66a1.386 1.386 0 0 1-.995-.393 1.34 1.34 0 0 1-.303-.443 1.304 1.304 0 0 1-.101-.522V10.175h-1.769v5.746c0 .903.326 1.675.887 2.22.561.546 1.354.862 2.282.862H61.194v-8.828h-1.769v.062ZM33.277 18.942v.062h1.786V11.899h1.318l.014-.044.5-1.599.025-.08h-1.857v-.648a1.308 1.308 0 0 1 .404-.966c.13-.127.285-.227.456-.295.171-.067.354-.1.539-.098h1.069l.013-.044.5-1.599.025-.08h-1.606c-.928 0-1.72.316-2.282.861-.56.546-.886 1.318-.886 2.221v.647H32.149l-.013.044-.5 1.599-.025.08H33.277v7.044Z" fill="#000" stroke="#000" stroke-width=".124"/><path d="M10.324 2.317a13.36 13.36 0 0 1 6.57-.005M17.064 26.595a13.36 13.36 0 0 1-6.39.121A13.112 13.112 0 0 1 5 23.863" stroke="#fff" stroke-width=".083"/><path d="M11.157 10.158H7.503l.495 1.604h3.654l-.495-1.604Zm-1.04 8.735h3.746l-.498-1.604h-3.248c-.293 0-.574-.112-.78-.313a1.054 1.054 0 0 1-.324-.756c0-.284.116-.556.323-.757.207-.2.488-.313.781-.313h2.586l-.494-1.604h-2.092a2.682 2.682 0 0 0-1.083.159 2.615 2.615 0 0 0-.92.576 2.52 2.52 0 0 0-.593.891c-.131.335-.187.692-.165 1.05-.022.356.035.714.166 1.048.13.334.333.637.594.89.261.252.575.448.92.575.344.126.713.18 1.081.158ZM14.545 10.158h-1.693l2.706 8.74h1.836l2.707-8.74h-1.694l-1.929 6.243-1.933-6.243Z" fill="#fff"/></g><defs><linearGradient id="b" x1="17.489" y1="25.255" x2="11.014" y2="2.351" gradientUnits="userSpaceOnUse"><stop stop-color="#B21A1A"/><stop offset="1" stop-color="#B21A1A" stop-opacity="0"/></linearGradient><linearGradient id="c" x1="9.893" y1="3.745" x2="16.368" y2="26.649" gradientUnits="userSpaceOnUse"><stop stop-color="#B31A1A"/><stop offset="1" stop-color="#B31A1A" stop-opacity="0"/></linearGradient><clipPath id="a"><path fill="#fff" d="M0 0h72v29H0z"/></clipPath></defs></svg>