<svg width="97" height="28" viewBox="0 0 97 28" fill="none" xmlns="http://www.w3.org/2000/svg"><path d="M74.04 23.53h-3.876a3.03 3.03 0 0 1-2.201-.907 3.122 3.122 0 0 1-.896-2.228V7.855h-3.485v12.54c0 3.916 2.712 6.66 6.582 6.66h7.359v-19.2h-3.484V23.53zM57.483 0l-3.485 1.08v25.974h3.485V0zM8.516 7.854H.848l1.044 3.491h7.669l-1.045-3.49zm7.317.001h-3.657l5.847 19.2h3.984l5.852-19.2h-3.662l-4.18 13.717-4.184-13.717zM6.769 27.054h8.02l-1.077-3.665H6.77c-.628 0-1.23-.258-1.673-.716a2.486 2.486 0 0 1-.693-1.728c0-.648.25-1.27.693-1.728a2.328 2.328 0 0 1 1.673-.716h5.544l-1.077-3.665H6.77c-3.548 0-5.921 2.447-5.921 6.117s2.363 6.1 5.92 6.1z" fill="#fff" fill-opacity=".77"/><path fill-rule="evenodd" clip-rule="evenodd" d="M82.754 1.091L86.338 0v7.469h3.585c3.981 0 6.772 2.798 6.772 6.792v6c0 3.994-2.785 6.793-6.772 6.793h-7.17V1.091zm10.213 20.532c.163-.385.244-.797.239-1.212l-.012-5.913a3.004 3.004 0 0 0-.237-1.213 3.104 3.104 0 0 0-.709-1.028 3.239 3.239 0 0 0-1.069-.683 3.34 3.34 0 0 0-1.26-.228h-3.684v12.217h3.695a3.35 3.35 0 0 0 1.26-.23c.4-.156.763-.388 1.068-.682.305-.293.546-.643.71-1.028z" fill="#fff" fill-opacity=".77"/><path d="M36.57 19.765c0 4.335 2.985 7.288 7.368 7.288 5.377 0 6.573-4.136 6.573-4.136l-3.398-1.006a3.801 3.801 0 0 1-1.896 1.446 3.845 3.845 0 0 1-2.393.04 3.804 3.804 0 0 1-1.944-1.381 3.739 3.739 0 0 1-.727-2.256v-5.508c-.01-.81.246-1.6.727-2.256a3.804 3.804 0 0 1 1.944-1.381 3.845 3.845 0 0 1 2.393.04 3.801 3.801 0 0 1 1.896 1.446l3.398-1.006s-1.18-4.115-6.573-4.115c-4.394 0-7.368 2.937-7.368 7.272v5.513z" fill="#fff" fill-opacity=".77"/></svg>